/* XPM */
static char *anadelete[] = {
/* columns rows colors chars-per-pixel */
"20 20 3 1",
"  c black",
". c #840000",
"X c None",
/* pixels */
"XXXXXXXXXXXXXXXXXXXX",
"XXXXXXXXXXXXXXXXXXXX",
"XXXXXXXXXXXXXXXXXXXX",
"XXXXXXXXXXXXXXXXXXXX",
"XXX  .XXXXXXXX  .XXX",
"XXX    .XXXXX  .XXXX",
"XXXX    .XXX  .XXXXX",
"XXXXXX   .X .XXXXXXX",
"XXXXXXX     .XXXXXXX",
"XXXXXXXX   .XXXXXXXX",
"XXXXXXX     .XXXXXXX",
"XXXXXX   .X  .XXXXXX",
"XXXXX   .XXX  .XXXXX",
"XXXX   .XXXXX .XXXXX",
"XXX    .XXXXXX .XXXX",
"XXX   .XXXXXXXXXXXXX",
"XXXX  .XXXXXXXX .XXX",
"XXXXXXXXXXXXXXXXXXXX",
"XXXXXXXXXXXXXXXXXXXX",
"XXXXXXXXXXXXXXXXXXXX"
};
