/* XPM */
static char *anaharm[] = {
/* columns rows colors chars-per-pixel */
"20 20 3 1",
"  c black",
". c #840000",
"X c None",
/* pixels */
"XXXXXXXXXXXXXXXXXXXX",
"XXXXXXXXXXXXXXXXXXXX",
"XXXXXXXXXXXXXXXXXXXX",
"XXXXXXXXXXXXXXXXXXXX",
"XXXX XXXXXXX.XX.XXXX",
"XXX X XXXXXX.XX.XXXX",
"XXX X XX XXX....XXXX",
"XXX X X X XX.XX.XXXX",
"XXX X X X XX.XX.XXXX",
"XXX X X X XXXXXXXXXX",
"X                   ",
"XXXXX X X XXXXXXXXXX",
"XXXXX X X XXXXXXXXXX",
"XXXXX X X XXXXXXXXXX",
"XXXXX X XX XXXXXXXXX",
"XXXXXX XXXXXXXXXXXXX",
"XXXXXXXXXXXXXXXXXXXX",
"XXXXXXXXXXXXXXXXXXXX",
"XXXXXXXXXXXXXXXXXXXX",
"XXXXXXXXXXXXXXXXXXXX"
};
