/* XPM */
static char *magick[] = {
/* columns rows colors chars-per-pixel */
"20 20 3 1",
"  c black",
". c #840000",
"X c None",
/* pixels */
"XXXXXXXXXXXXXXXXXXXX",
"XXXXXXXXXXXXXXXXXXXX",
"XXXXXXXXXXXXXXXXXXXX",
"XXXXXXX XXXXXXXXXXXX",
"XXXXXX X XXXXX..XXXX",
"XXXXX XXX XXX.XX.XXX",
"XXXXX XXX XXX....XXX",
"XXXX XXXXX XX.XX.XXX",
"XXXX XXXXX XXXXXXXXX",
"XX                  ",
"XXXXXXXXXXX XXXXX XX",
"XXXXX....XX XXXXX XX",
"XXXXXX.XX.XX XXX XXX",
"XXXXXX.XX.XX XXX XXX",
"XXXXXX.XX.XXX X XXXX",
"XXXXX....XXXXX XXXXX",
"XXXXXXXXXXXXXXXXXXXX",
"XXXXXXXXXXXXXXXXXXXX",
"XXXXXXXXXXXXXXXXXXXX",
"XXXXXXXXXXXXXXXXXXXX"
};
