/* XPM */
static char *anavector[] = {
/* columns rows colors chars-per-pixel */
"20 20 3 1",
"  c black",
". c #840000",
"X c None",
/* pixels */
"XXXXXXXXXXXXXXXXXXXX",
"XXXXXXXXXXXXXXXXXXXX",
"XXXX XXXXXXXXXXXXXXX",
"XXX   XXXXXXXXXXXXXX",
"XXXX XXXXXXXXXXXXXXX",
"XXXX XXXXXXXXXXXXXXX",
"XXXX XXXXXXXX   XXXX",
"XXXX XXXXXXXXX  XXXX",
"XXXX XXXXXXXX X XXXX",
"XXXX XXXXXXX XXXXXXX",
"XXXX XXXXXX XXXXXXXX",
"XXXX XXXXX XXX.XX.XX",
"XXXX XXXX XXXX.XX.XX",
"XXXX XXX XXXXX.XX.XX",
"XXXX XX XXXXXXX..XXX",
"XXXX X XXXXXXXXXXXXX",
"XXXX  XXXXXXXXXXX XX",
"XX                 X",
"XXXX XXXXXXXXXXXX XX",
"XXXXXXXXXXXXXXXXXXXX"
};
