/* XPM */
static char *editzoomyin[] = {
/* columns rows colors chars-per-pixel */
"20 20 5 1",
"  c black",
". c #000084",
"X c None",
"o c #848484",
"O c white",
/* pixels */
"XXXXXXXXXXXXXXXXXXXX",
"XXXXXXXXXXXXXXXXXXXX",
"XXXXXXXXXXXXXXXXXXXX",
"XXXXXXo    oXXXXXXXX",
"XXXXX  OOOO  XXXXXXX",
"XXXX oOOOOOOo XXXXXX",
"XXXo OOO..OOO oXXXXX",
"XXX OOOO..OOOO XXXXX",
"XXX OO......OO XXXXX",
"XXX OO......OO XXXXX",
"XXX OOOO..OOOO XXXXX",
"XXXo OOO..OOO oXXXXX",
"XXXX oOOOOOOo XXXXXX",
"XXXXX  OOOO    XXXXX",
"XXXXXXo    oX  .XXXX",
"XXXXXXXXXXXXXX. .XXX",
"XXXXXXXXXXXXXXX. .XX",
"XXXXXXXXXXXXXXXX. XX",
"XXXXXXXXXXXXXXXXXXXX",
"XXXXXXXXXXXXXXXXXXXX"
};
