/* XPM */
static char *editlock2[] = {
/* columns rows colors chars-per-pixel */
"19 18 4 1",
"  c black",
". c #848284",
"X c None",
"o c white",
/* pixels */
"XXXXXXXXXXXXXXXXXXX",
"XXXXXXXXXXXXXXXXXXX",
"XXXXXXXXXXXXXXXXXXX",
"XXXXXXXXXXXXXXXXXXX",
"XXXXXXXXXX    XXXXX",
"XXXXXXXX  oooo XXXX",
"XXXXXX   ooXXX. XXX",
"XXXXXX o oXXXX. XXX",
"XXXXX oo oXXX.  XXX",
"XXXXX oX .XX..  XXX",
"XXXXX .X.      XXXX",
"XXXXX .....    XXXX",
"XXXXXX ...    .XXXX",
"XXXXXX       .XXXXX",
"XXXXX ..   ..XXXXXX",
"XXXXXXXXXXXXXXXXXXX",
"XXXXXXXXXXXXXXXXXXX",
"XXXXXXXXXXXXXXXXXXX"
};
