/* XPM */
static char *magick[] = {
/* columns rows colors chars-per-pixel */
"21 20 4 1",
"  c black",
". c #848284",
"X c None",
"o c white",
/* pixels */
"XXXXXXXXXXXXXXXXXXXXX",
"XXXXXXXXXXXXXXXXXXXXX",
"XXXXXXXXXXXXXXXXXXXXX",
"XXXXXXXXXXXXXXXXXXXXX",
"XXXXXXXXXXXXXXXXXXXXX",
"XXXXXXXX  XXXXXXXXXXX",
"XXXXXXXX o XXXX  XXXX",
"XXXXXXXX Xo    o XXXX",
"XXXXXXXX Xo.oo.o XXXX",
"XX...... XX.XX.X XXXX",
"XX       X. .. X XXXX",
"XXXXXXXX .     . XXXX",
"XXXXXXXX .       XXXX",
"XXXXXXXX   XXXX  XXXX",
"XXXXXXXX  XXXXXXXXXXX",
"XXXXXXXXXXXXXXXXXXXXX",
"XXXXXXXXXXXXXXXXXXXXX",
"XXXXXXXXXXXXXXXXXXXXX",
"XXXXXXXXXXXXXXXXXXXXX",
"XXXXXXXXXXXXXXXXXXXXX"
};
