/* XPM */
static char *editshowall[] = {
/* columns rows colors chars-per-pixel */
"20 20 8 1",
"  c black",
". c #000084",
"X c cyan",
"o c #840000",
"O c red",
"+ c None",
"@ c #848484",
"# c white",
/* pixels */
"++++++++++++++++++++",
"++++++++++++++++++++",
"++...............+++",
"++...............+++",
"++...............+++",
"++ #### ######## +++",
"++ #+    +++++## +++",
"++ # @X@@ ###### +++",
"++  @##@+@ ++++# +++",
"++  X#X@X+ ##### +++",
"++  +X+@+# ++++# +++",
"++  @+X@#@ ##### +++",
"++ # @+@@ o ++## +++",
"++ ##    O#o ### +++",
"++ #### ##O#o ## +++",
"++         Oo    +++",
"++++++++++++  ++++++",
"++++++++++++++++++++",
"++++++++++++++++++++",
"++++++++++++++++++++"
};
