/* XPM */
static char *editpageup[] = {
/* columns rows colors chars-per-pixel */
"20 20 2 1",
"  c black",
". c None",
/* pixels */
"....................",
"....................",
"....................",
"....................",
"....................",
"....................",
"........ .... ......",
".......  ...  ......",
"......   ..   ......",
".....    .    ......",
"....          ......",
".....    .    ......",
"......   ..   ......",
".......  ...  ......",
"........ .... ......",
"....................",
"....................",
"....................",
"....................",
"...................."
};
