/* XPM */
static char *filenew[] = {
/* columns rows colors chars-per-pixel */
"20 20 3 1",
"  c black",
". c None",
"X c white",
/* pixels */
"....................",
"....................",
"....................",
".....        .......",
"..... XXXXXX  ......",
"..... XXXXXX X .....",
"..... XXXXXX    ....",
"..... XXXXXXXXX ....",
"..... XXXXXXXXX ....",
"..... XXXXXXXXX ....",
"..... XXXXXXXXX ....",
"..... XXXXXXXXX ....",
"..... XXXXXXXXX ....",
"..... XXXXXXXXX ....",
"..... XXXXXXXXX ....",
".....           ....",
"....................",
"....................",
"....................",
"...................."
};
