/* XPM */
static char *fileexit[] = {
/* columns rows colors chars-per-pixel */
"20 20 6 1",
"  c black",
". c #004080",
"X c #007cf8",
"o c #404080",
"O c None",
"+ c #78fcf8",
/* pixels */
"OOOOOOOOOOOOOOOOOOOO",
"OOOOOOOOOOOOOOOOOOOO",
"OOOOOOOOOOOOOOOOOOOO",
"OOOOOOO        OOOOO",
"OOOOOOO oooo X OOOOO",
"OOOOO   ooo X. OOOOO",
"OOOOO X oo X.. OOOOO",
"OO    XX o X.. OOOOO",
"OO XXXXXX  X.. OOOOO",
"OO    XX o X.. OOOOO",
"OOOOO X oo X . OOOOO",
"OOOOO   oo X . OOOOO",
"OOOOOOO    X.. OOOOO",
"OOOOOOO OO X.. OOOOO",
"OO      ++ X..    OO",
"OO++OO++OO X. +OO+OO",
"OOOO++OO++ X OO++OOO",
"OO++OO++OO  O++OO+OO",
"OOOOOOOOOOOOOOOOOOOO",
"OOOOOOOOOOOOOOOOOOOO"
};
