/* XPM */
static char *solidrect[] = {
/* columns rows colors chars-per-pixel */
"29 14 2 1",
"  c black",
". c None",
/* pixels */
".............................",
".........         ...........",
".........         ...........",
".........         ...........",
".........         ...........",
".........         ...........",
".........         ...........",
".........         ...........",
".........         ...........",
".........         ...........",
".............................",
"..                        ...",
".............................",
"............................."
};
