/* XPM */
static const char *addcard_xpm[]={
"16 16 64 1",
"a c #000000",
"E c #010101",
"B c #020202",
"m c #030303",
"G c #040404",
"C c #050505",
"b c #060606",
"L c #070707",
"D c #090909",
"8 c #0c0c0c",
"Z c #0d0d0d",
"0 c #0e0e0e",
"3 c #0f0f0f",
"N c #111111",
"R c #121212",
"K c #161616",
"9 c #a8a8a8",
"r c #a9a9a9",
"x c #aeaeae",
"2 c #b1b1b1",
"g c #b5b5b5",
"7 c #b6b6b6",
"Y c #b7b7b7",
"l c #b8b8b8",
"O c #bababa",
"c c #bbbbbb",
"P c #bcbcbc",
"e c #bdbdbd",
"# c #bebebe",
"i c #bfbfbf",
"y c #c0c0c0",
"X c #c1c1c1",
"w c #c2c2c2",
"p c #c3c3c3",
"h c #c4c4c4",
". c #c5c5c5",
"j c #c6c6c6",
"f c #c7c7c7",
"k c #c8c8c8",
"d c #c9c9c9",
"F c #cbcbcb",
"V c #cccccc",
"5 c #cdcdcd",
"1 c #cfcfcf",
"q c #d4d4d4",
"A c #ebebeb",
"t c #ededed",
"J c #eeeeee",
"I c #efefef",
"n c #f0f0f0",
"M c #f1f1f1",
"Q c #f2f2f2",
"H c #f3f3f3",
"6 c #f4f4f4",
"4 c #f5f5f5",
"W c #f6f6f6",
"u c #f8f8f8",
"z c #f9f9f9",
"U c #fafafa",
"T c #fbfbfb",
"S c #fcfcfc",
"v c #fdfdfd",
"s c #fefefe",
"o c #ffffff",
".#abacde#fghijkl",
"amnooaajplqcjrp.",
"osotuvoawjx.#ypi",
"ozAoamBBaaCDEFk#",
"aGDooEHoovIoai#g",
"j#amaomEJKLMNkik",
"OPLQoRnoouvSai#O",
"yhEoEaLTBUmoap#h",
"lVEMosWooWozmp#X",
"FYaoaWZao0aoal1P",
"w23nuono4UoTaiip",
".waoaaoaDoaoZyxp",
"Y5aooooooS6oafql",
".#aoaaWaUaEoB7ie",
"eY8oooozoooHaXhw",
"XdaCaEabaamaC.9F"};
