/* XPM */
static const char *breakrep_xpm[]={
"16 16 56 1",
"i c #000000",
"r c #010101",
"R c #020202",
"y c #030303",
"s c #040404",
"N c #060606",
"E c #070707",
"z c #080808",
"F c #090909",
"S c #0c0c0c",
"H c #0d0d0d",
"V c #0e0e0e",
"W c #111111",
"M c #121212",
"G c #141414",
"U c #a4a4a4",
"1 c #ababab",
"v c #acacac",
"I c #adadad",
"A c #b0b0b0",
"D c #b2b2b2",
"X c #b3b3b3",
"K c #b4b4b4",
"Q c #b5b5b5",
"O c #b6b6b6",
"l c #b7b7b7",
"n c #b8b8b8",
"k c #b9b9b9",
"b c #bababa",
"e c #bbbbbb",
"B c #bcbcbc",
"a c #bdbdbd",
"h c #bebebe",
"Z c #bfbfbf",
". c #c0c0c0",
"f c #c1c1c1",
"m c #c2c2c2",
"# c #c3c3c3",
"p c #c4c4c4",
"g c #c5c5c5",
"d c #c6c6c6",
"j c #c7c7c7",
"q c #c8c8c8",
"C c #c9c9c9",
"o c #cacaca",
"c c #cccccc",
"L c #cdcdcd",
"t c #cecece",
"u c #cfcfcf",
"P c #d0d0d0",
"0 c #d1d1d1",
"J c #d2d2d2",
"Y c #d3d3d3",
"x c #d4d4d4",
"T c #d6d6d6",
"w c #d8d8d8",
".##a.bcb.defedeg",
"ehijkflgmnhhhoke",
"pqrkppsihthupvw.",
"n#ixiyzf#Am.fBCD",
"qdEiiiiFiGiiiHIJ",
"KLiKMsipBDdjpp#l",
"chzdqaiNCLOfBbjh",
"lfihe.Ple.mpeqQg",
".dimahmakuakmygl",
"kch.gqO#RidchiOc",
"kgenfcna#iiSeiTQ",
"tUVMiisNWrNNiih#",
"gcall#.eXiiiYiCp",
"IkugmCmZyz.fBs#Q",
"0C1pna.abQqhgi#C",
"Blc#Zff.hcOahpfb"};
