/* XPM */
static const char *ctrlpan_xpm[]={
"16 16 227 2",
"#Z c #000000",
"#D c #000002",
"az c #000004",
"bg c #000100",
"bD c #000200",
"a# c #000202",
"#8 c #000204",
"aj c #000205",
"bE c #000300",
"bt c #000302",
"#T c #000304",
"#f c #000400",
"#V c #000402",
"#W c #000907",
"aY c #010000",
"ap c #010002",
"bs c #010a07",
"#6 c #010b0d",
"#L c #020b08",
"a1 c #030000",
".1 c #030400",
"aD c #040000",
"#v c #04100c",
"al c #050a0d",
"aE c #060000",
"ar c #060002",
"a4 c #070103",
"aM c #070709",
"aG c #080000",
"a2 c #080204",
"bC c #080d09",
"a3 c #090305",
"au c #0a0000",
".v c #0f0000",
"ad c #0f0607",
".L c #100300",
"## c #120000",
"aH c #120306",
".K c #140000",
"#o c #150d0b",
".u c #160000",
"aF c #180d11",
".J c #1a0000",
".e c #1b0000",
".I c #1f0000",
".V c #200000",
"#. c #210706",
".U c #220000",
".H c #230000",
".W c #240200",
".d c #290000",
".c c #2b0000",
".b c #310000",
".E c #350000",
".o c #3c0000",
".# c #3f0000",
".a c #400000",
".q c #51090a",
".p c #601212",
".t c #643b37",
".s c #6d3735",
"ab c #737172",
".G c #743a39",
".F c #773737",
".r c #7d3d3b",
"be c #7f8180",
"#J c #818d89",
"#Y c #828886",
"bf c #878988",
"#g c #a6b3ac",
"a7 c #abaca6",
"#M c #abafae",
".P c #acaead",
"ai c #adb4ba",
"ag c #aeb3b9",
"#4 c #b1b9bc",
"bq c #b2b6b5",
"#z c #b3b7b6",
"am c #b3b7ba",
"#w c #b3bfbb",
".C c #b4afb6",
"ba c #b4b3b1",
"a. c #b4bdbc",
"aB c #b5b5b7",
"#j c #b5bbb9",
".8 c #b6babd",
"bG c #b6c2c0",
"a0 c #b7b3b2",
"bc c #b7b5b6",
"by c #b7bab1",
"a5 c #b7bab3",
"bw c #b7bdb1",
"bF c #b7c3c1",
"bl c #b8b9b4",
"aK c #b8bcbd",
"#Q c #b8bdc1",
"#S c #b8c0c3",
"#i c #b8c1be",
".N c #b9b8b3",
"bA c #b9bbb6",
".5 c #b9bfbd",
"aV c #babcb9",
"#5 c #bac1c7",
".i c #bbb3b1",
"aC c #bbb6ba",
"bB c #bbbdb8",
"bh c #bbc1b7",
".S c #bcbbc0",
"#P c #bcbcba",
"bk c #bcbfb8",
".7 c #bcc0c3",
".n c #bdb6be",
"aO c #bdb9ba",
"#C c #bdbdbf",
".6 c #bdc1c2",
"#k c #bdc3c3",
"#h c #bdc8c4",
"ae c #beb4b5",
".O c #bebfba",
"bj c #bec1ba",
"bv c #bec4b8",
"br c #bec4c2",
"#9 c #bec6c8",
".M c #bfbab4",
"b. c #bfbebc",
"aL c #bfc0c2",
"#x c #bfc8c5",
"#n c #c0b6b5",
"#2 c #c0bcbb",
"a9 c #c0c1bc",
"#A c #c0c4c3",
"aI c #c1b2b5",
".l c #c1bac1",
".k c #c1bbbf",
"#B c #c1c1c3",
".R c #c1c2c4",
"bx c #c1c4bb",
".B c #c2bdc3",
".z c #c2bebf",
"bu c #c2cbca",
"bn c #c3c4bf",
"aw c #c3c6cb",
"#y c #c3c9c7",
"#3 c #c3cad0",
"#R c #c3cbcd",
".w c #c4b6b3",
".h c #c4b9b7",
"aS c #c4babb",
"aX c #c4c4c2",
"#O c #c4c4c4",
"aU c #c4c6c3",
"#1 c #c5c1c0",
"#0 c #c5c3c4",
"b# c #c5c4c2",
"aA c #c5c4c9",
"ao c #c5c5c7",
".3 c #c5cbc7",
"aP c #c6c2c3",
".Q c #c6c7c9",
"#N c #c6c8c7",
".j c #c7c1c3",
".D c #c7c2c9",
"aN c #c7c5c8",
"bm c #c7c8c3",
"a6 c #c7cac3",
"bp c #c7cbca",
"#l c #c7cdcd",
"ah c #c7cfd2",
"av c #c8b9bc",
"#m c #c8bcbc",
".T c #c8c7cc",
"bi c #c8cbc2",
"ax c #c8cbd0",
".4 c #c9cfcd",
"aW c #cacac8",
"bd c #cacaca",
".2 c #cacfc9",
".9 c #cbafae",
"aJ c #cbbbbe",
"aT c #cbbfc1",
"aR c #cbc0c4",
".x c #cbc3c0",
"bo c #cbcdca",
"bz c #cbcec7",
"bb c #cccbc9",
"af c #cdc3c4",
"aQ c #cdc7c9",
"aZ c #cdc9c8",
"a8 c #cecfca",
"as c #cfc5c6",
".A c #cfcace",
"an c #d0d4d5",
".y c #d1ccc9",
".m c #d4cdd5",
".g c #d5c3bf",
".f c #dabebb",
"#F c #e8f1ee",
"#X c #eef9f5",
"#u c #eefdf6",
"#I c #eefdf8",
"#7 c #f0fafc",
"#t c #f2fffa",
"#K c #f4fffb",
"#r c #f5fffa",
"#H c #f5ffff",
"#s c #f7fffd",
"#U c #f7ffff",
"#p c #f8f4f1",
"#G c #f8ffff",
"Qt c #f99f9f",
"#e c #f9fffb",
"#c c #fafdf6",
"#d c #fbfffb",
"ak c #fbffff",
"#E c #fcffff",
".Z c #fef5ee",
"ay c #feffff",
"#a c #ffedeb",
".Y c #fff0e9",
"#b c #fff8f3",
".X c #fff8f4",
"at c #fffbfd",
"aq c #fffcfd",
"ac c #fffdfd",
".0 c #fffff8",
"#q c #fffffb",
"aa c #ffffff",
"Qt.#.a.b.c.d.e.f.g.h.i.j.k.l.m.n",
".o.p.q.r.s.t.u.v.w.x.y.z.A.B.C.D",
".E.F.G.H.I.J.K.L.M.N.O.P.Q.R.S.T",
".U.V.I.W.X.Y.Z.0.1.2.3.4.5.6.7.8",
".9#.###a#b.0#c#d#e#f#g#h#i#j#k#l",
"#m#n#o#p#q#d#r#s#t#u#v#w#x#y#z#A",
"#B#C#D#E#F#G#H#I#H#J#K#L#M#N#O#P",
"#Q#R#S#T#H#U#V#W#U#X#Y#E#Z#0#1#2",
"#3#4#5#6#7#8#9a.a##Eaaabacadaeaf",
"agahaiajakalamanaoapaqarasatauav",
"aw.7axajayazaAaBaCaDaEaFaGaHaIaJ",
".6aKaL#DaaaMaNaOaPaQaEaRaSaGauaT",
"aUaVaWaXaYaY.zaZa0a1a2aDa3aDa4.j",
"a5a6a7a8a9b.b#babbaYbcbd#Zbebfbg",
"bhbhbibjbkblbmbnbgbobpbqbrbsbtbu",
"bvbwbxbybkbzbAbBbCbDbDbsbE#fbFbG"};
