/* XPM */
static const char *delcard_xpm[]={
"16 16 62 1",
"a c #000000",
"b c #010101",
"F c #020202",
"v c #030303",
"L c #040404",
"S c #050505",
"l c #060606",
"T c #070707",
"R c #090909",
"U c #0a0a0a",
"W c #0b0b0b",
"y c #0e0e0e",
"Y c #101010",
"D c #131313",
"4 c #141414",
"0 c #adadad",
"2 c #aeaeae",
"X c #b0b0b0",
"u c #b2b2b2",
"A c #b3b3b3",
"J c #b4b4b4",
"B c #b5b5b5",
"H c #b6b6b6",
"o c #b7b7b7",
"Q c #b8b8b8",
"s c #b9b9b9",
"g c #bababa",
"I c #bbbbbb",
"i c #bcbcbc",
"m c #bdbdbd",
"c c #bebebe",
"d c #bfbfbf",
"# c #c0c0c0",
"e c #c1c1c1",
"h c #c2c2c2",
". c #c3c3c3",
"K c #c4c4c4",
"p c #c5c5c5",
"f c #c6c6c6",
"7 c #c7c7c7",
"C c #c8c8c8",
"n c #c9c9c9",
"z c #cacaca",
"P c #cbcbcb",
"N c #cccccc",
"6 c #cecece",
"5 c #cfcfcf",
"O c #d0d0d0",
"t c #d3d3d3",
"3 c #d6d6d6",
"1 c #d8d8d8",
"r c #f0f0f0",
"E c #f2f2f2",
"V c #f5f5f5",
"q c #f6f6f6",
"w c #f8f8f8",
"G c #f9f9f9",
"Z c #fbfbfb",
"M c #fcfcfc",
"x c #fdfdfd",
"k c #fefefe",
"j c #ffffff",
".#aaab.cdecfgfhc",
"ijjjkjalmdinomhp",
"ajqjjrjjac###stu",
"vjwxjyjazpAzdBsC",
"gDjEFGajanzHpd.h",
"gajDwljaeBIfJnKo",
"nsLjaMajaNhIOoIP",
"ih#ajbjFfQecba#e",
"iiK.afRIzoSaMTdm",
"hOalFaaUavVjjGWi",
"sXYwjkjZjaRkjjaT",
"p#aqjMjjjjjaaUhp",
"aSvjrjZavaaKnpeJ",
"aGaMaavs01#2NAB3",
"aYa4duz#m5J#Q6CJ",
"CBsci7geh2CpKcg."};
