/* XPM */
static const char *faultrecur_xpm[]={
"16 16 250 2",
"bZ c #1d2820",
"a1 c #1f2322",
"bT c #203025",
"az c #252024",
"bf c #262a29",
"bX c #263b2c",
"bV c #273e2e",
"Qt c #28292b",
"bQ c #2b2b2b",
"bW c #2b4232",
"by c #2d272b",
"bU c #2d4135",
"a9 c #2f3833",
".E c #313234",
"#T c #323033",
".i c #32312d",
"aT c #323834",
"bS c #323d37",
"#6 c #343235",
"a7 c #343434",
"#. c #353537",
"bY c #35453b",
"b2 c #363135",
"b0 c #363a39",
"bR c #373c38",
"aS c #383d39",
"bP c #3a3539",
"#S c #3a383b",
"bj c #3b3539",
".d c #3b3a35",
"b1 c #3b3b3b",
".T c #3b3c3e",
"aO c #3c373b",
"#o c #3c3c3e",
"bN c #3d373b",
".U c #3e3f41",
"a8 c #3e433f",
".o c #414244",
"#E c #434144",
"aR c #444444",
"ai c #454346",
"#n c #454547",
"aj c #464447",
"bi c #474145",
".n c #47484a",
"bG c #475e4e",
"aP c #484347",
"a4 c #494448",
"#D c #4a4a4c",
".9 c #4a4b4d",
"a5 c #4c464a",
".c c #4c4b49",
".D c #4c4d4f",
"#5 c #4e4c4f",
"ar c #4e5a4e",
"bF c #4e6555",
"as c #505c50",
"bx c #514b4f",
"bB c #515652",
"#P c #525252",
"aq c #526053",
"bI c #526258",
"bH c #54695a",
"#2 c #555a54",
"b3 c #565054",
"bM c #565155",
"ba c #586d5e",
"ae c #595e58",
"ay c #5a585b",
"bK c #5a5e5d",
"ap c #5a665c",
"bE c #5a6e62",
"#k c #5b5b5b",
"bD c #5e6e63",
"#A c #5f5f5f",
"at c #606a62",
"bJ c #606b63",
"aW c #607264",
".h c #615e57",
".j c #61605c",
"bC c #616c66",
"bL c #626262",
".m c #626365",
"bA c #636363",
"#9 c #666b67",
".H c #6a6a68",
"bO c #6d676b",
".z c #6e6d69",
".6 c #6e6e6e",
"ad c #6e756e",
"bz c #706b6f",
"#V c #70726f",
".# c #717274",
"#e c #74756f",
"ao c #757f76",
"#w c #797c73",
".a c #7c7c7c",
".1 c #7c7d75",
".Q c #7d7d7d",
".l c #7e7e7e",
"ax c #7f7d80",
"#G c #7f7f7d",
".k c #808080",
".b c #81817f",
".S c #818284",
"a0 c #818881",
"bh c #827d81",
"#4 c #828083",
"#a c #828282",
".s c #838280",
"#g c #83847c",
".e c #84817c",
".8 c #858688",
"#M c #888e84",
"bm c #89928d",
"ah c #8b898c",
".X c #8b8b89",
"#3 c #8d8f8e",
"#v c #8d9389",
"#R c #908e91",
"#m c #909092",
"ac c #929c91",
"be c #929c94",
".P c #959490",
".Y c #959492",
"#C c #969698",
"a. c #989f97",
".W c #999999",
"#b c #9a9a98",
"#q c #9a9a9a",
".g c #9b9891",
"a3 c #9b999c",
"#B c #9b9b9b",
"#y c #9b9d98",
".0 c #9c9b96",
".C c #9c9d9f",
".f c #9d9a93",
".r c #9d9d9b",
"#O c #9fa19c",
"#0 c #9fa79c",
"#N c #a0a59f",
"au c #a1a8a1",
"#K c #a1a99e",
"aX c #a1b1a4",
"#u c #a2a59e",
".2 c #a3a39b",
".u c #a5a29d",
"aN c #a5a3a6",
".K c #a5a49f",
"bw c #a7a2a6",
"#h c #a7a8a0",
"#r c #a8a8a6",
"an c #a8ada9",
"aw c #a9a9a9",
"br c #a9bbad",
"b# c #a9bbaf",
"al c #aaaaaa",
".J c #abaaa5",
"bu c #abafae",
"bt c #acb6ae",
"bn c #acb9af",
"#Y c #adb4ac",
"#l c #afafaf",
".Z c #b1b0ab",
"#W c #b1b6b2",
"bb c #b1c3b5",
"am c #b2b4b1",
"af c #b2b4b3",
"bc c #b2c4b6",
"bo c #b2c4b8",
"bp c #b2c7b8",
".7 c #b3b3b3",
"aY c #b3c3b6",
"#s c #b5b5b3",
"aU c #b5c1b7",
"aI c #b5c3b6",
"aV c #b5c5ba",
"a6 c #b6b1b5",
"av c #b6b8b7",
"aE c #b6c0b7",
"bv c #b7b7b7",
"bg c #b8b8b8",
"aD c #b8beba",
"b. c #b8c5bb",
".t c #b9b8b3",
"aC c #b9beba",
"#L c #b9bfb5",
".y c #bbbab6",
"#8 c #bbbdba",
"bl c #bcbcbc",
"aL c #bcbebd",
"aB c #bebebe",
"aK c #bec5be",
".4 c #c0bfbb",
"bs c #c0cdc4",
"#F c #c1bfc2",
".L c #c1c1b9",
"aQ c #c2c0c3",
"#i c #c2c3be",
"#x c #c2c5bc",
"aH c #c2d0c3",
"ab c #c3cdc2",
"aZ c #c3cec6",
"bq c #c3d8c9",
"ak c #c4c2c5",
"#d c #c4c5bf",
"aF c #c4d1c7",
"aG c #c4d4c7",
".I c #c5c4c2",
"aM c #c5c5c5",
"a# c #c5cfc6",
"bd c #c5d2c9",
".5 c #c6c5c1",
"#I c #c6cbc4",
".M c #c7c7bf",
"#Q c #c7c7c7",
"#Z c #c7d1c6",
".N c #c9c9c1",
".G c #cbcbcb",
".F c #cbccce",
"## c #ceced0",
"#z c #cecfca",
"#t c #ced1ca",
"#7 c #d0ced1",
"a2 c #d1d1d1",
"#J c #d1d6cf",
"aa c #d1ddd1",
".w c #d3d0c9",
"#U c #d3d1d4",
".R c #d3d3d3",
"#p c #d3d3d5",
"#f c #d3d6cd",
".p c #d4d5d7",
"aJ c #d4ded6",
"#j c #d5d6d1",
"aA c #d6d4d7",
"ag c #d6d6d6",
".3 c #d7d7cf",
".v c #d8d5ce",
"bk c #dad5d9",
".V c #dadbdd",
"#c c #dddddb",
".A c #dedede",
"#1 c #e1e8e1",
".B c #e5e5e5",
"#H c #e7e9e6",
".x c #e8e5de",
".q c #e9e9e9",
".O c #f6f5f1",
"#X c #fbfffa",
"Qt.#.a.b.c.d.e.f.g.h.i.j.k.l.m.n",
".o.p.q.r.s.t.u.v.w.x.y.z.A.B.C.D",
".E.F.G.H.I.J.K.L.M.N.O.P.Q.R.S.T",
".U.V.W.X.Y.Z.0.1.2.3.4.5.6.7.8.9",
"#.###a#b#c#d#e#f#g#h#i#j#k#l#m#n",
"#o#p#q#r#s#t#u#v#w#x#y#z#A#B#C#D",
"#E#F#l#G#H#I#J#K#L#M#N#O#P#Q#R#S",
"#T#U.G#V#W#X#Y#Z#K#0#1#2#3.G#4#5",
"#6#7#Q#8#9a.a#aaabacadaeafagahai",
"ajakalamanaoapaqarasatauavawaxay",
"azaAaBaCaDaEaFaGaHaIaJaKaLaMaNaO",
"aPaQaRaSaTaUaVaWaXaYaZa0a1a2a3a4",
"a5a6a7a8a9b.b#babbbcbdbebfbgbhbi",
"bjbkblanbmbnbobpbqbrbsbtbubvbwbx",
"bybzbAbBbCbDbEbFbGbHbIbJbKbLbMbN",
"bObPbQbRbSbTbUbVbWbXbYbZb0b1b2b3"};
