/* XPM */
static const char *findcard_xpm[]={
"16 16 63 1",
"d c #000000",
"1 c #010101",
"P c #020202",
"s c #030303",
"f c #040404",
"t c #050505",
"e c #070707",
"r c #080808",
"c c #090909",
"I c #0a0a0a",
"m c #0b0b0b",
"7 c #0f0f0f",
"X c #101010",
"B c #111111",
"0 c #121212",
"E c #131313",
"Z c #b1b1b1",
"5 c #b2b2b2",
"Y c #b4b4b4",
"Q c #b5b5b5",
"n c #b6b6b6",
"R c #b7b7b7",
"U c #b8b8b8",
"4 c #b9b9b9",
"a c #bababa",
"q c #bbbbbb",
"p c #bcbcbc",
"D c #bdbdbd",
". c #bebebe",
"x c #bfbfbf",
"C c #c0c0c0",
"g c #c1c1c1",
"# c #c2c2c2",
"o c #c3c3c3",
"h c #c4c4c4",
"b c #c5c5c5",
"v c #c6c6c6",
"i c #c7c7c7",
"8 c #c8c8c8",
"N c #c9c9c9",
"w c #cacaca",
"M c #cbcbcb",
"3 c #cccccc",
"2 c #d4d4d4",
"V c #ebebeb",
"6 c #ececec",
"W c #efefef",
"T c #f0f0f0",
"u c #f1f1f1",
"J c #f2f2f2",
"H c #f3f3f3",
"G c #f4f4f4",
"F c #f5f5f5",
"K c #f6f6f6",
"L c #f7f7f7",
"S c #f8f8f8",
"z c #f9f9f9",
"y c #fafafa",
"O c #fbfbfb",
"k c #fcfcfc",
"A c #fdfdfd",
"l c #fefefe",
"j c #ffffff",
".#abcdddedffddg#",
"haibdjjjkjlljmno",
"pqdfrddddstdudvq",
"wxdyjjjjzjABjdCg",
"pDEzFjlGjHjdytq#",
"x.djjGjjjljrjdo#",
"wCIGjjJKAjLdAdMD",
"pNdjjOjjAjjdjPqC",
"hQcjzlkkOjdrLtR#",
"qvdAujjjjFPzdcia",
".idjjlSyjTdjJeUh",
"hhrVAjkjjjrOjWXY",
"CZd0dsddd1djOdDw",
"U2ax#3D#3wddAXCQ",
"D4ogoUZw5#sv167g",
"bqg4gbDCx.8Rxmd#"};
