/* XPM */
static const char *frnext_xpm[]={
"21 20 158 2",
"#t c #010000",
"ao c #010002",
"#f c #010100",
"#1 c #020001",
"#Q c #020100",
"#A c #020200",
"aA c #030000",
"#2 c #030102",
"#y c #030200",
"#s c #030300",
"#S c #040203",
"aa c #040205",
"#J c #040300",
"#K c #040301",
"#8 c #050400",
"#T c #050402",
"#r c #050500",
"#M c #060405",
"#I c #060500",
"#4 c #060503",
"#e c #060600",
"az c #070304",
"#n c #070601",
"#Y c #070602",
"#E c #070604",
"aj c #080607",
"#X c #080702",
"#m c #080703",
"#R c #080705",
"#9 c #090806",
"a. c #0a0809",
"#H c #0a0904",
"#Z c #0a0905",
"ab c #0b0a06",
"ai c #0c0b09",
"ap c #0d0c0a",
"#0 c #0e0d0b",
"as c #14100d",
"#5 c #181617",
"af c #1d1b1e",
"a# c #c0bebf",
"an c #c0bec1",
"#i c #c0bfba",
"#w c #c1c0bc",
".Q c #c2c1bc",
".5 c #c3c2bd",
"#j c #c4c3be",
".S c #c4c4b8",
".A c #c6c5c0",
"#l c #c6c5c1",
".w c #c6c6be",
"ak c #c7c5c6",
"ad c #c8c6c7",
"#6 c #c8c7c2",
"#D c #c8c7c3",
".R c #c8c8bc",
"#b c #c8c8be",
".o c #c8c9bb",
"## c #c9c8c3",
"#. c #c9c8c4",
".2 c #c9c9bd",
"#c c #c9c9bf",
"#G c #c9c9c1",
".O c #cac9c4",
".G c #cacabe",
"#q c #cacac2",
".p c #cacbbd",
".l c #cbcac5",
".8 c #cbcac6",
"#z c #cbcbc1",
".L c #cbcbc3",
".j c #cccbc6",
".s c #ccccc0",
".e c #ccccc2",
".X c #ccccc4",
"ax c #cdc9c8",
"#V c #cdccc7",
"#B c #cdccc8",
".J c #cdcdc3",
".i c #cdcdc5",
".M c #cecdc8",
"#x c #cecdc9",
"au c #cecdcb",
".b c #cecec2",
".V c #cecec4",
".4 c #cecec6",
"#3 c #cfcec9",
"ah c #cfceca",
".q c #cfcfc3",
".x c #cfcfc7",
"#W c #d0cfca",
".H c #d0d0c6",
".C c #d1d0cb",
"#v c #d1d0cc",
".T c #d1d1c5",
".u c #d1d1c7",
".f c #d1d1c9",
"Qt c #d1d2c4",
".z c #d2d1cc",
".c c #d2d2c6",
".I c #d2d2c8",
".g c #d2d2ca",
"av c #d3cfce",
"aB c #d3d0c9",
"ae c #d3d1d2",
".Y c #d3d2cd",
".r c #d3d3c7",
".t c #d3d3c9",
".h c #d3d3cb",
".m c #d4cfc9",
"ag c #d4cfcb",
".n c #d4d0c7",
"#P c #d4d3ce",
".a c #d4d4c8",
"at c #d5d1d0",
".F c #d5d5c9",
".U c #d5d5cb",
"#N c #d5d5cd",
".7 c #d6d5d0",
"#g c #d6d6ce",
"aq c #d7d4cf",
".N c #d7d6d1",
"aw c #d7d6d4",
"#p c #d7d7cd",
".v c #d7d7cf",
"ar c #d8d5d0",
"al c #d8d6d7",
"#L c #d8d7d5",
".B c #d9d8d3",
"ay c #d9d8d6",
"#F c #d9d9d1",
".# c #d9dacc",
".k c #dad9d4",
".Z c #dad9d5",
".E c #dadace",
".3 c #dadad0",
"#O c #dadad2",
"am c #dbd9dc",
".0 c #dbdad5",
".1 c #dbdbcf",
".K c #dbdbd1",
".W c #dbdbd3",
".6 c #dcdbd6",
"#C c #dcdbd7",
".D c #dcdcd0",
".d c #dcdcd2",
".9 c #dddcd8",
"#o c #ddddd3",
"#7 c #deddd8",
".P c #dfdeda",
"#U c #dfdfd7",
"#h c #e0dfda",
"#a c #e0e0d4",
".y c #e1e1d9",
"#k c #e2e1dd",
"#d c #e2e2d8",
"#u c #e4e3df",
"ac c #eeeced",
"Qt.#.a.b.c.b.d.e.f.g.h.i.j.k.l.f.m.n.n.n.n",
".o.p.q.c.r.s.t.u.v.w.x.y.z.A.B.C.m.n.n.n.n",
".D.E.F.G.H.I.J.K.L.h.M.M.N.O.P.Q.m.n.n.n.n",
".R.S.F.T.I.U.V.V.W.X.Y.z.z.Q.Z.0.m.n.n.n.n",
".1.2.3.J.e.e.W.4.Y.5.6.7.8.9#.##.m.n.n.n.n",
".S#a#b#c#d#e#f#g###h#i#j#k#l#m#n.m.n.n.n.n",
".U.H#o#p#q#r#f#s#t.N#u#v#w#x#y#t.m.n.n.n.n",
".t.e.I#z.h#e#A#f#t#t#t#B#C#D#E#t.m.n.n.n.n",
"#F#G.h.h.O#H#I#J#t#J#K#t#t#L#M#t.m.n.n.n.n",
".L.4#N#O#P#t#t#Q#y#t#t#E#R#t#S#T.m.n.n.n.n",
".X#U#V.A#W#X#Y#Z#t#0#t#t#t#1#2#y.m.n.n.n.n",
".X#O#3#W.C#Q#t#t#t#4#t#0#2#5#t#0.m.n.n.n.n",
".7#6.M#7#B#t#8#m#y#9#t#ta.a#aa#Q.m.n.n.n.n",
".k.l.z.j#lab#8#t#K#t#tacadaeaf#tag.n.n.n.n",
".l#W.P#.ahab#taiajakala#amanaoapag.n.n.n.n",
"aq##ar.jar#tas#DatauavawaxayazaA.m.n.n.n.n",
".maB.maB.maB.maB.maB.maB.maBag.m.n.n.n.n.n",
".n.n.n.n.n.n.n.n.n.n.n.n.n.n.n.n.n.n.n.n.n",
".n.n.n.n.n.n.n.n.n.n.n.n.n.n.n.n.n.n.n.n.n",
".n.n.n.n.n.n.n.n.n.n.n.n.n.n.n.n.n.n.n.n.n"};
