/* XPM */
static const char *frpause_xpm[]={
"21 20 114 2",
".S c #040000",
".7 c #050000",
".0 c #060100",
".T c #070200",
".4 c #080300",
".3 c #090400",
"#M c #090401",
"#. c #0a0500",
"#a c #0b0600",
".R c #0c0701",
"#i c #0c0703",
"#t c #0e0905",
"#F c #110c09",
"#C c #130e0b",
"#R c #221d1a",
".Q c #beb9b3",
"#A c #c1bcb9",
".H c #c2beb5",
"#Q c #c5c0bd",
"#e c #c6c1bd",
"#E c #c6c1be",
".E c #c6c2b9",
"#U c #c7c2be",
".n c #c9c5ba",
".C c #c9c5bc",
".V c #cac5bf",
"#O c #cac5c2",
".u c #cac6bb",
"## c #cbc6c0",
"#r c #cbc6c2",
".L c #cbc7be",
"#f c #ccc7c3",
"#I c #ccc7c4",
".m c #ccc8bd",
".y c #ccc8bf",
"#h c #cdc8c4",
"#N c #cdc8c5",
".o c #cdc9be",
"#b c #cec9c3",
"#T c #cec9c5",
"#w c #cec9c6",
".b c #cecabf",
".v c #cecac1",
".M c #cfcac4",
"#V c #cfcac6",
".j c #cfcbc0",
".A c #cfcbc2",
".X c #d0cbc5",
"#c c #d0cbc7",
"#P c #d0cbc8",
".f c #d0ccc1",
".1 c #d1ccc6",
"#x c #d1ccc9",
".d c #d1cdc2",
"#u c #d2cdc9",
"#y c #d2cdca",
".i c #d2cec3",
".w c #d2cec5",
".U c #d3cec8",
"#l c #d3ceca",
"#K c #d3cecb",
"Qt c #d3cfc4",
".z c #d3cfc6",
"#v c #d4cfc9",
"#j c #d4cfcb",
"#L c #d4cfcc",
".g c #d4d0c5",
".h c #d4d0c7",
".5 c #d5d0ca",
"#n c #d5d0cc",
"#z c #d5d0cd",
".k c #d5d1c6",
".B c #d5d1c8",
".N c #d6d1cb",
"#g c #d6d1cd",
"#D c #d6d1ce",
".# c #d6d2c7",
".6 c #d7d2cc",
"#d c #d7d2ce",
"#S c #d7d2cf",
".c c #d7d3c8",
".F c #d7d3ca",
".Z c #d8d3cd",
"#B c #d8d3d0",
".e c #d8d4c9",
".x c #d8d4cb",
".P c #d9d4ce",
"#s c #d9d4d0",
".l c #d9d5ca",
".K c #d9d5cc",
".2 c #dad5cf",
".a c #dad6cb",
".D c #dad6cd",
".p c #dbd7cc",
".8 c #dcd7d1",
"#m c #dcd7d3",
"#J c #dcd7d4",
".r c #dcd8cd",
".Y c #ddd8d2",
"#q c #ddd8d4",
".s c #ddd9ce",
".J c #ddd9d0",
".O c #ded9d3",
"#o c #ded9d5",
"#H c #ded9d6",
".9 c #dfdad4",
"#p c #dfdad6",
"#G c #e0dbd8",
".q c #e0dcd1",
".I c #e1ddd4",
".t c #e3dfd4",
"#k c #e4dfdb",
".W c #e6e1db",
".G c #f0ece3",
"Qt.#.#.a.b.c.d.eQtQt.f.#.d.e.g.g.h.h.h.h.h",
".c.g.i.#.j.k.c.#.c.c.#.a.b.d.d.d.h.h.h.h.h",
".g.dQt.l.cQt.e.m.k.n.c.o.p.d.q.g.h.h.h.h.h",
".p.#.g.f.d.j.r.l.e.s.g.t.u.e.j.k.h.h.h.h.h",
".v.w.x.h.x.x.y.z.A.A.B.C.D.v.h.h.h.h.h.h.h",
".x.h.A.E.F.G.H.I.v.I.z.A.J.K.L.J.h.h.h.h.h",
".M.N.O.P.N.Q.R.S.T.U.V.W.S.R.S.X.h.h.h.h.h",
".N.U.X.M.Y.Z.0.S.0.U.1.2.S.3.4.5.h.h.h.h.h",
".5.X.M.2.V.2.S.S.S.Y.6.U.3.7.S.2.h.h.h.h.h",
".U.8.P.9.5.X#..T.3##.M.V.R.4#a#b.h.h.h.h.h",
"#c#d#e#f#g#h#i.S.S#j#g#k.S.S.0.P.h.h.h.h.h",
"#l#m#n#o#p#q.S.S.T#g#r#s.S#t.S#u#v.h.h.h.h",
"#w#x#y#z#A#B.S#C.S#z#D#E#F.S.S#d#v.h.h.h.h",
"#G#z#D#H#I#J.S.S.T#G#K#L.4#M.S#n#v.h.h.h.h",
"#N#O#P#H#B#Q#R.S.S#E#S#B.S.S#F#g#v.h.h.h.h",
"#g#m#n#T#n#g#U#j#l#m#j#l#d#g#V#d#v.h.h.h.h",
"#v#v#v#v#v#v#v#v#v#v#v#v#v#v#v#v.h.h.h.h.h",
".h.h.h.h.h.h.h.h.h.h.h.h.h.h.h.h.h.h.h.h.h",
".h.h.h.h.h.h.h.h.h.h.h.h.h.h.h.h.h.h.h.h.h",
".h.h.h.h.h.h.h.h.h.h.h.h.h.h.h.h.h.h.h.h.h"};
