/* XPM */
static const char *frstop_xpm[]={
"21 20 136 2",
"#g c #010000",
"#S c #010002",
"#f c #010100",
"#G c #020001",
"#V c #020003",
"#o c #020100",
"#s c #030200",
"#n c #030300",
"#q c #040300",
"#J c #040301",
"#2 c #050304",
"#K c #060405",
"#i c #060501",
"#Q c #060503",
"#x c #070602",
"#E c #070604",
"#3 c #080607",
"#y c #080705",
"#R c #090708",
"#t c #090806",
"#p c #0b0a06",
"#e c #0b0b03",
"#U c #0c0a0b",
"#h c #0c0b06",
"#D c #0c0b07",
"#F c #0f0e0c",
"#z c #110f10",
"#j c #11100e",
"#P c #14130f",
"#4 c #181619",
"#1 c #201f1d",
"#d c #b8b8b0",
".L c #bebdb8",
"## c #c1c0bc",
"#5 c #c1c0be",
".l c #c2c1bc",
"#k c #c2c1bd",
"#8 c #c3bfbc",
"#N c #c3c2be",
".S c #c4c3be",
"#0 c #c4c3bf",
".C c #c4c4b8",
".T c #c5c4bf",
"#T c #c5c4c2",
".6 c #c6c6be",
"ad c #c7c3c4",
".8 c #c7c6c1",
".4 c #c7c7bd",
"#H c #c8c7c5",
"#w c #c9c8c3",
"#l c #c9c9bf",
".z c #cac9c4",
".V c #cacabe",
".a c #cbcbbf",
"#b c #cbcbc1",
"#I c #cbcbc3",
".s c #ccccc0",
".G c #ccccc2",
".v c #ccccc4",
"ac c #cdc9c8",
"#B c #cdccc7",
"#A c #cdccca",
".c c #cdcdc1",
".w c #cdcdc5",
"#v c #cecdc8",
".d c #cecec2",
".F c #cecec4",
".x c #cecec6",
".q c #cecfc1",
".j c #cfcec9",
"#9 c #cfceca",
"#u c #cfcecc",
".f c #cfcfc5",
"aa c #d0cccb",
"#M c #d0cfca",
"#Y c #d0cfcb",
".X c #d0d0c6",
".y c #d0d0c8",
"Qt c #d0d1c3",
"a. c #d1cdcc",
".Y c #d1d0cb",
".0 c #d1d0cc",
".r c #d1d1c5",
".N c #d1d1c7",
".g c #d1d1c9",
"#7 c #d2cfca",
".R c #d2d1cc",
".u c #d2d2c8",
".m c #d2d2ca",
"af c #d3d0c9",
".Z c #d3d2cd",
".2 c #d3d2ce",
".B c #d3d3c7",
".e c #d3d3c9",
".i c #d3d3cb",
".n c #d4cfc9",
"#X c #d4cfcb",
".o c #d4d0c7",
"#6 c #d4d1cc",
".Q c #d4d3ce",
".1 c #d4d3cf",
".M c #d4d4c8",
".J c #d5d4cf",
".9 c #d5d4d0",
"#W c #d5d4d2",
".t c #d5d5c9",
".O c #d5d5cb",
".p c #d5d6c8",
"#C c #d6d5d0",
".K c #d6d5d1",
".D c #d6d6ca",
".W c #d6d6cc",
".h c #d6d6ce",
".k c #d7d6d1",
"#. c #d7d6d2",
"#r c #d7d7cf",
".P c #d8d8ce",
".H c #d8d8d0",
".I c #d9d8d3",
"#O c #d9d8d4",
"ab c #d9d8d6",
".b c #d9d9cd",
".# c #d9dacc",
".A c #dad9d4",
"a# c #dad9d7",
".E c #dadad0",
".7 c #dadad2",
".3 c #dbdbcf",
"ae c #dcd8d5",
"#c c #dcdcd2",
"#m c #dcdcd4",
"#Z c #dddcd8",
"#L c #dedddb",
".U c #e3e2de",
".5 c #e4e4da",
"#a c #e6e5e0",
"Qt.#.a.b.c.d.e.f.g.h.i.g.j.k.l.m.n.o.o.o.o",
".p.q.d.r.s.t.u.u.v.w.x.y.z.j.j.A.n.o.o.o.o",
".B.C.D.r.u.E.F.G.H.x.j.I.I.J.K.L.n.o.o.o.o",
".b.c.M.a.G.N.O.P.w.x.Q.R.S.T.U.J.n.o.o.o.o",
".V.M.u.e.W.X.v.x.R.Y.j.Z.0.1.2.l.n.o.o.o.o",
".B.3.4.4.W.5.6.7.R.Y.8.Y.9#.###a.n.o.o.o.o",
"#b.W#c.P.i#d#e#f#g#h#i#i#g#g#j#k.n.o.o.o.o",
".e#l.W#b.H#m#f#n#g#o#g#p#o#q#g#..n.o.o.o.o",
".i.x.w#r.8.k#g#g#g#p#o#s#t#g#g#u.n.o.o.o.o",
".w.h.m.H#v#w#o#g#x#o#g#g#g#y#z#A.n.o.o.o.o",
".g.H.8#B#C#v#D#q#t#g#E#F#G#g#g#H.n.o.o.o.o",
"#I.i#B.J#C.Z#g#g#E#g#J#s#g#G#K#L.n.o.o.o.o",
"#M.Z.Q.k#N#O#g#P#g#Q#G#g#g#R#S#T.n.o.o.o.o",
".I#B#v#C#N.2#g#g#g#y#G#R#U#g#V#W#X.o.o.o.o",
"#B#w#Y#Z#.#0#1#g#2#g#g#3#S#S#4#5#X.o.o.o.o",
"#6.k#7#w#7.Y#8#9a.a#aaabacabadae.n.o.o.o.o",
".naf.naf.naf.naf.naf.naf.naf#X.n.o.o.o.o.o",
".o.o.o.o.o.o.o.o.o.o.o.o.o.o.o.o.o.o.o.o.o",
".o.o.o.o.o.o.o.o.o.o.o.o.o.o.o.o.o.o.o.o.o",
".o.o.o.o.o.o.o.o.o.o.o.o.o.o.o.o.o.o.o.o.o"};
