/* XPM */
static const char *gexplore_xpm[]={
"32 32 917 2",
".# c #000002",
"mf c #000004",
"i3 c #00000b",
".r c #00000c",
"d9 c #00000e",
"mh c #000010",
"eB c #000013",
"ck c #000015",
"d8 c #000017",
"gi c #00001a",
".g c #00001b",
"lT c #00001d",
".q c #000020",
"db c #000022",
"i# c #000024",
"df c #000025",
"jC c #000028",
"dQ c #00002c",
"fT c #00002e",
"gm c #000030",
"#n c #000031",
"a4 c #000032",
"cI c #000033",
"b7 c #000034",
"dJ c #000035",
"cf c #000037",
"jb c #000038",
".i c #000039",
"fO c #00003a",
".p c #00003b",
"eu c #00003c",
"ic c #00003d",
"bb c #00003e",
"fZ c #00003f",
"ba c #000040",
"ex c #000041",
"h4 c #000044",
"eD c #000045",
"eF c #000046",
"eG c #000047",
"hO c #000048",
"dD c #00004a",
"jL c #00004c",
"fu c #00004d",
".j c #000051",
".o c #000052",
"jG c #000053",
".k c #000055",
"gU c #000057",
".m c #000061",
".n c #000065",
".l c #000066",
".y c #000100",
"jx c #000103",
"mk c #000104",
".B c #000105",
"cn c #000124",
"iU c #00013a",
"iv c #00014e",
".b c #000200",
"mm c #000204",
"ml c #00020e",
"cP c #000232",
".d c #000300",
"lV c #000302",
"l. c #000332",
"e# c #00034a",
"mj c #000400",
"#4 c #000403",
".f c #000411",
".e c #000500",
"bU c #000510",
"bq c #000603",
"jR c #000632",
".x c #010000",
"gk c #010004",
"h9 c #01001b",
"k3 c #01002c",
"hS c #01002e",
"a9 c #01004b",
"b2 c #01004c",
"kq c #010100",
"bY c #010133",
"bE c #01013f",
"ko c #010200",
"Qt c #010207",
".a c #010300",
"bu c #01032a",
"aL c #010350",
"aj c #010358",
"aX c #010400",
"ah c #01055e",
"mn c #01090c",
"lp c #020038",
"gI c #020044",
"hE c #020055",
"k# c #020056",
"hj c #020248",
"is c #020339",
"jY c #020400",
"bS c #020500",
"mg c #020516",
"mc c #030004",
"li c #03000b",
"lI c #030013",
"j7 c #03003f",
"cH c #030047",
"hN c #030053",
"jj c #03014c",
"af c #030155",
".v c #030200",
"fR c #030208",
"hg c #030214",
"ag c #030359",
"d1 c #03043c",
"dN c #030447",
".t c #030500",
"iC c #03051e",
"ef c #030536",
"et c #030538",
"ai c #030760",
"mi c #03080e",
"#P c #030866",
"jq c #03093b",
"mo c #040002",
"mb c #040014",
"il c #04003b",
"c9 c #040055",
"do c #040136",
"hc c #040144",
"hr c #040231",
"kE c #04033c",
"bx c #04033f",
"hq c #040428",
"#N c #040468",
"me c #040500",
"#I c #04053e",
"jv c #040605",
"lX c #040718",
"lY c #04091d",
".h c #040931",
"jp c #040941",
"cD c #050050",
"lq c #05023b",
"ey c #050245",
"h5 c #050259",
"kF c #050344",
"gY c #050440",
"c8 c #050448",
"iW c #050855",
".R c #050977",
"lW c #050e0d",
"lg c #060000",
"mp c #06000b",
"jg c #06004c",
"kP c #060400",
"dP c #06053e",
"gt c #060549",
"ae c #060553",
"dz c #06063c",
"#e c #06064c",
"ed c #060650",
"cv c #060737",
"bC c #06073d",
"k7 c #060740",
"#y c #060805",
"lU c #06081d",
"go c #060853",
"lZ c #060c1c",
"jH c #070062",
"cV c #07033e",
"dC c #070358",
".w c #070400",
"i9 c #07042f",
"h# c #070447",
"fv c #070453",
"c# c #070640",
".s c #07080a",
"dM c #07084b",
"k4 c #070932",
"#S c #07093c",
"gS c #070954",
".c c #070c06",
"lG c #080001",
"ma c #08001c",
"aQ c #080135",
"ky c #080145",
"ge c #08024a",
"jK c #08025c",
"hm c #080361",
"by c #080450",
"gq c #080462",
"id c #080548",
"gV c #080560",
"dH c #080611",
"aH c #080651",
"ir c #08083a",
"cu c #080937",
"#m c #080c49",
".T c #080d61",
"lx c #080f22",
"m. c #090008",
"iP c #090250",
"bi c #090538",
"fo c #09061b",
"hR c #09063d",
"gT c #09065d",
"d7 c #090832",
"bZ c #090842",
"cq c #090844",
"e7 c #09084a",
"c. c #09093b",
"ab c #090945",
"jS c #090f41",
"cM c #09102c",
"ih c #0a0255",
"cE c #0a045a",
"kR c #0a0509",
"k0 c #0a0734",
"hH c #0a0740",
"#L c #0a085c",
"md c #0a0904",
"b6 c #0a0942",
"k6 c #0a0945",
"#T c #0a0a2e",
"jO c #0a0a54",
".N c #0a0b5b",
"bB c #0a0c3f",
"#O c #0a0d74",
"gR c #0a0e4d",
"iZ c #0a113d",
"jh c #0b0358",
"kx c #0b0541",
"ke c #0b0766",
"ft c #0b095c",
".u c #0b0a00",
"cc c #0b0a44",
"c5 c #0b0b3f",
"h0 c #0b0c38",
"iT c #0b0c44",
"h1 c #0b0e3b",
"gQ c #0b1048",
"kI c #0b1435",
"mr c #0c000d",
"bM c #0c0451",
"iK c #0c0457",
"kB c #0c0459",
"j6 c #0c082d",
"hI c #0c083b",
"hd c #0c0854",
"bI c #0c094e",
".Q c #0c0a78",
"bc c #0c0c56",
"fm c #0c0d46",
"fQ c #0d092e",
"bJ c #0d0a4f",
"cz c #0d0b3c",
"ik c #0d0d2f",
"cA c #0d0d3f",
"i0 c #0d0d49",
"fl c #0d0e4f",
"hB c #0d0f42",
"fW c #0d0f5c",
"jm c #0d0f64",
"eW c #0d1043",
"gd c #0e084e",
"dk c #0e0a56",
"iH c #0e0b40",
"iG c #0e0c3e",
"ez c #0e0d39",
"iy c #0e0e4e",
"gp c #0e0e64",
"bD c #0e0f48",
"#2 c #0e100b",
".U c #0e1452",
"iO c #0f0953",
"kD c #0f0a4a",
"fN c #0f0b55",
"an c #0f0c39",
"bf c #0f0c53",
"hF c #0f0c5d",
"cW c #0f0d3f",
"aa c #0f0f41",
"aG c #0f0f4d",
"k5 c #0f1040",
"iz c #0f1048",
"ec c #0f1051",
".z c #0f1110",
"e3 c #0f115c",
"kh c #0f144c",
"gM c #100a4a",
"b3 c #100b5b",
"jf c #100c49",
"a5 c #100e4f",
"aD c #100f49",
"#M c #100f6c",
"gZ c #10123b",
"e2 c #10125c",
"#H c #10143a",
"gL c #110a58",
"ji c #110c5e",
"cS c #110d59",
"d5 c #110f58",
"bF c #11114f",
"e6 c #111157",
"dj c #11124b",
"d0 c #111437",
"bj c #12094c",
"cg c #120b4f",
"eY c #121153",
"d4 c #121258",
"dd c #121317",
"h7 c #12163c",
"fq c #121852",
"fY c #130f63",
"mq c #14071b",
"j. c #140f49",
"jD c #141043",
"kG c #14125d",
"hi c #141556",
"aC c #14163d",
".M c #141653",
"jJ c #150d60",
"da c #151344",
"dG c #151440",
"hA c #151642",
"iL c #160f5c",
"hn c #160f6c",
"fX c #16136c",
"gh c #16143c",
"eJ c #16184b",
"kC c #170f65",
"k. c #171157",
"cr c #171262",
"am c #17173d",
"eg c #17174d",
"dy c #181743",
"hK c #18175d",
"gH c #191359",
"aP c #19144c",
"a8 c #191561",
"dn c #191a48",
"ig c #1a145a",
"bv c #1a1859",
"cO c #1a1e4b",
"dg c #1a1e4d",
"bN c #1b115a",
".O c #1b1a78",
"dK c #1b205a",
".S c #1b2086",
".P c #1f1c85",
"aM c #1f1f65",
"jc c #201772",
"c4 c #202042",
"#d c #24275c",
"ii c #635da5",
"#Q c #6669b8",
"c6 c #6968a4",
"cB c #6a6b99",
"h8 c #6b689d",
"ak c #6b6bb1",
"aN c #6d6fa2",
"l3 c #6e7678",
"gr c #6f6cc5",
"bg c #706bae",
"bG c #7071a7",
"gW c #716ebf",
"iM c #716fa1",
"d# c #716fb0",
"hz c #717291",
"ev c #7173ae",
"l0 c #727983",
"hM c #746ec4",
"hk c #7471c0",
"eX c #7576b9",
"dA c #7577aa",
"l9 c #766a76",
"ew c #7677b7",
"j# c #7771ad",
"iI c #7774ab",
"d6 c #7775b4",
"l2 c #777f82",
"ho c #7874c0",
"iR c #7875aa",
"e0 c #78769b",
"fM c #7876b7",
"ca c #7877b1",
"iS c #7878ae",
"ci c #78797d",
"dc c #79778f",
"lM c #797873",
"lr c #797a98",
"l4 c #797f7f",
"jd c #7a71ce",
"gc c #7a75b5",
"h. c #7a77a2",
"cF c #7a77be",
"l6 c #7a7879",
"lR c #7a7a96",
"ka c #7b71d1",
"im c #7b77b4",
"hL c #7b78c9",
"#w c #7b7a7f",
"bo c #7b7b83",
"jX c #7b7d7c",
"cd c #7c74c7",
"bK c #7c78b3",
"gu c #7c7ea4",
"hl c #7d78d2",
"gs c #7d7ac9",
"bR c #7d7d89",
"gO c #7d7e83",
"lS c #7d7e9d",
"lK c #7e7882",
"hP c #7e7bb0",
"cK c #7e7e86",
"bd c #7e7ec6",
"d3 c #7e7fc2",
"l1 c #7e858b",
"lQ c #7f7d92",
"lO c #7f7f7d",
"dF c #7f7fb1",
"fw c #7f7fbf",
"iq c #7f81a8",
"i2 c #7f8287",
"g0 c #7f8291",
"ju c #7f8386",
"gG c #807ab6",
"dE c #807ebf",
"kO c #808076",
"hT c #808195",
"hZ c #8181a5",
"l5 c #818382",
"j8 c #827ac5",
"ie c #827dc0",
"gX c #8281c7",
"aW c #82847f",
"jI c #837dc7",
"d2 c #8384c5",
"au c #83867f",
"jE c #8481b0",
"lF c #857e78",
"iQ c #8581bc",
"lP c #86868e",
"lN c #878880",
"f0 c #8889b9",
"lL c #898788",
"d. c #8a84da",
"kz c #8a87bc",
"kn c #8a8b86",
"iA c #8a8ca1",
"gj c #8b8899",
"k1 c #8d88ca",
"#1 c #8d8d8f",
"eA c #8e8eaa",
"hs c #8e8eb2",
"l8 c #918790",
"lf c #928e82",
"l7 c #979296",
"#h c #a2a0ff",
"kj c #a4abbb",
"#a c #a9afbf",
"ix c #aaade2",
"jA c #aaaeb1",
"a# c #aaaec7",
"ax c #aab0ac",
"cR c #abace5",
"cY c #abadc2",
"lb c #abafb8",
"kH c #abb0da",
"l# c #abb4bd",
"bO c #aca6d6",
"kd c #adaafb",
"fV c #adb0f3",
"#A c #adb1b2",
"fA c #adb2b8",
"#k c #adb2ff",
"aO c #aeacdd",
"cx c #aeafce",
"fx c #aeb0d7",
"eO c #aeb1aa",
"g3 c #aeb1b8",
"j9 c #afaaea",
"#s c #afadb2",
"kk c #afb7ba",
"bk c #b0a7e6",
"gK c #b0afeb",
"eS c #b0b1ac",
"h6 c #b0b3e0",
"aK c #b0b3ff",
"f5 c #b0b5ae",
"gb c #b1ade0",
"k2 c #b1afe1",
"dL c #b1b3f0",
"fD c #b1b6af",
"lt c #b1b6ca",
"#c c #b1b6d3",
"#v c #b2b2b4",
"cw c #b2b4cd",
"#j c #b2b4ff",
"gx c #b2b5ba",
"ht c #b2b6b9",
"f1 c #b2b6d1",
"g1 c #b2b7ba",
"#G c #b2b8d2",
"bW c #b2bac7",
"aT c #b3add3",
"gg c #b3aee6",
"f9 c #b3afac",
"gD c #b3b1b2",
"c2 c #b3b3cd",
"lv c #b3b4e2",
"eI c #b3b4f5",
"#3 c #b3b6ad",
"fk c #b3b7dd",
"je c #b4aff2",
"fn c #b4b1e0",
"aF c #b4b4f0",
"fa c #b4b6b5",
"hw c #b4b6c5",
"er c #b4b7c0",
"bs c #b4b8d1",
".9 c #b4bab0",
"eV c #b4bad2",
"iY c #b4baea",
"kA c #b5b1ec",
"lD c #b5b3b6",
"#U c #b5b3c8",
"in c #b5b4de",
"b1 c #b5b4f0",
"jw c #b5b5b3",
"lc c #b5b5bf",
"e5 c #b5b5fd",
"kv c #b5b6bb",
"i6 c #b5b7c4",
"jW c #b5b8bd",
"gv c #b5babd",
"js c #b5bace",
"a1 c #b5bbcb",
"#b c #b5bccc",
"ln c #b6b5c3",
"du c #b6b5c5",
"#Z c #b6b6b8",
"ek c #b6b8c5",
"#9 c #b6b8cf",
"e9 c #b6b8de",
"eK c #b6b9da",
"al c #b6b9e6",
"aJ c #b6b9ff",
"ja c #b7b3e6",
"ap c #b7b4c9",
"bw c #b7b6f2",
"kW c #b7b7b5",
"io c #b7b7d9",
"dB c #b7b7f5",
"en c #b7b8b0",
"ks c #b7b8b2",
"j3 c #b7b8ba",
"aA c #b7b8d7",
"dq c #b7b9ce",
"ei c #b7b9d2",
"fs c #b7b9ff",
"#8 c #b7bacb",
"br c #b7bdcd",
"#. c #b7beb7",
"jo c #b7bfee",
"iN c #b8b6e7",
"ct c #b8b8ee",
"ee c #b8b9f1",
"dR c #b8bad1",
"h3 c #b8baf7",
".8 c #b8bcbb",
".A c #b8bcbd",
"bp c #b8bda7",
"f4 c #b8bdb6",
"cm c #b8bed4",
"le c #b9b6ad",
"aq c #b9b6c7",
"fJ c #b9b6d3",
"ep c #b9b8b4",
"gl c #b9b8b6",
"eQ c #b9b9af",
"kT c #b9b9b1",
"dI c #b9b9b9",
"aV c #b9b9c1",
"de c #b9bab4",
"ll c #b9bab5",
"#E c #b9bfcf",
"#l c #b9bfff",
"la c #b9c0ca",
"iJ c #bab5f5",
"if c #bab5f7",
"#Y c #bab7be",
"kc c #bab7fc",
"hx c #babac2",
"hY c #babbcf",
"bH c #babbf3",
"#D c #babfc3",
"lw c #babfd3",
"kJ c #bac1d4",
"#V c #bbb9c6",
"i. c #bbbaca",
"g9 c #bbbacc",
"cp c #bbbaf3",
"f8 c #bbbbb3",
"fd c #bbbcb4",
"#p c #bbbcc1",
"bA c #bbbcf5",
"dT c #bbbdc9",
"hG c #bbbde6",
"be c #bbbdfa",
"gA c #bbbeb5",
"i1 c #bbbecf",
"cZ c #bbbed1",
"kM c #bbbfbe",
"#B c #bbbfc0",
"bt c #bbbfd8",
"k9 c #bbbfe5",
"ly c #bbc4cb",
"fG c #bcb9b4",
"gE c #bcbac8",
"i4 c #bcbbcb",
"#K c #bcbbff",
"g6 c #bcbcbc",
"dW c #bcbcbe",
"b5 c #bcbcf0",
"fi c #bcbdcf",
"c0 c #bcbdd1",
"hv c #bcbecb",
"g4 c #bcc0c1",
"iV c #bcc0ff",
"#6 c #bcc1ba",
"kl c #bcc2c0",
"gw c #bcc4b9",
"bL c #bdb7f5",
"ff c #bdbab1",
"bm c #bdbbd1",
"iF c #bdbbea",
"hf c #bdbcdc",
"iE c #bdbce4",
"at c #bdbdbf",
"jN c #bdbdff",
"kN c #bdbeb9",
"f7 c #bdbfba",
"dV c #bdbfbe",
"az c #bdbfd6",
".5 c #bdc1c0",
"eU c #bdc1cd",
"gz c #bdc2bc",
"lA c #bdc2c5",
"a. c #bdc3d3",
"jU c #bdc4d4",
"jQ c #bdc4f8",
"kb c #beb7ff",
"fI c #beb9cd",
"fh c #bebdc3",
"lC c #bebdc5",
"ip c #bebee0",
"cb c #bebef0",
"aI c #bebeff",
"km c #bebfc1",
"hX c #bebfd1",
"hy c #bebfd4",
"ej c #bec1d0",
"fj c #bec2df",
"ay c #bec3c7",
"ga c #bfbbe0",
"e1 c #bfbccf",
"as c #bfbcd1",
"kw c #bfbcd7",
"#t c #bfbeb9",
"#0 c #bfbec3",
"kZ c #bfbedd",
"hV c #bfbfd9",
"kt c #bfc0ba",
"j1 c #bfc0bb",
"eM c #bfc0c5",
"av c #bfc2b9",
"ds c #bfc2cb",
"f2 c #bfc3ce",
"ce c #c0bbfe",
"hh c #c0bcd5",
"bP c #c0bcdd",
"fp c #c0becb",
"hb c #c0beff",
"fe c #c0c0b6",
"dS c #c0c1d3",
"di c #c0c1f7",
"fz c #c0c3d4",
"jt c #c0c4cf",
"aB c #c0c4e1",
"hu c #c0c5bf",
"fy c #c0c5db",
"jV c #c0c8cb",
"ch c #c1bcf2",
"bn c #c1bfd4",
"bQ c #c1bfd7",
"j5 c #c1c0d2",
"a7 c #c1c0f9",
"kX c #c1c1cb",
"cU c #c1c1f7",
"dU c #c1c2c6",
"eL c #c1c3d2",
"cj c #c1c4b9",
"el c #c1c4cb",
"es c #c1c5d1",
"f6 c #c1c6c0",
"iu c #c1c6ff",
"f3 c #c1c7c5",
"kg c #c1c8f4",
"ao c #c2bde5",
"eC c #c2bfd0",
"e. c #c2c0cb",
"fP c #c2c0e5",
"fK c #c2c0e8",
"fS c #c2c1bd",
"dv c #c2c1d1",
"ib c #c2c1fa",
"hW c #c2c2de",
"eT c #c2c3c5",
"dY c #c2c3d5",
"jl c #c2c3ff",
"kU c #c2c4b9",
"em c #c2c4c1",
"g5 c #c2c4c3",
"dr c #c2c6d1",
"m# c #c3b5c2",
"aR c #c3bde3",
"fL c #c3c0f5",
"i8 c #c3c2e1",
"j4 c #c3c3cb",
"dm c #c3c3f7",
"b# c #c3c3ff",
"kp c #c3c5ad",
"kV c #c3c5ba",
"eN c #c3c5c2",
"jZ c #c3c6b5",
"fb c #c3c6bd",
"cL c #c3c6bf",
"lB c #c3c6cd",
"fH c #c4bfc6",
"bl c #c4c0e5",
"bh c #c4c0f3",
"lm c #c4c3c9",
"hp c #c4c3ef",
"g7 c #c4c4c6",
"dt c #c4c4d0",
"hD c #c4c4ff",
"#o c #c4c5e3",
"fc c #c4c7be",
"#7 c #c4caca",
"bX c #c4cae4",
"lz c #c4cdc8",
"gF c #c5c0e9",
"eq c #c5c4ca",
"hQ c #c5c4f0",
"ad c #c5c5ff",
"fE c #c5c7c2",
"hU c #c5c7d4",
"f. c #c5c9e2",
"a3 c #c5c9e6",
"bT c #c5cab4",
"fB c #c5cbc1",
"lJ c #c6bfd1",
"kQ c #c6c3b0",
"gB c #c6c5c1",
"dX c #c6c6d2",
"cC c #c6c6fc",
"f# c #c6c8d4",
"fC c #c6ccbe",
"#W c #c7c3d4",
"gP c #c7c4d7",
"iB c #c7c5db",
"dw c #c7c6d4",
"i7 c #c7c8dc",
"#F c #c7cbe4",
"#R c #c7cbff",
"lh c #c8c0bd",
"jF c #c8c2ff",
"lE c #c8c3bf",
"g# c #c8c3da",
"#r c #c8c5cc",
"eo c #c8c8c0",
"jz c #c8cac9",
"aY c #c8ccbe",
"## c #c8cfd9",
"lH c #c9bec6",
"fg c #c9c8c4",
"gC c #c9c8c6",
".4 c #c9c9c7",
"ld c #c9c9cb",
"jB c #c9c9e5",
"a0 c #c9cfdb",
"ms c #cab9c9",
"aS c #cac4e6",
"aU c #cac5e3",
"cG c #cac5ff",
"ar c #cac6e1",
"eb c #cacbff",
"a2 c #cad0e0",
"#X c #cbc7d6",
"fF c #cbc8bf",
"c7 c #cbcbff",
"kr c #cbccc6",
"#x c #cbcec7",
"kK c #cbd2d8",
"kY c #cccadf",
"eP c #cccec3",
"kL c #ccd1d4",
"#C c #cdd3d1",
"g8 c #cecdd3",
"lo c #cecdec",
"ku c #ced0cd",
"gy c #cfd2d7",
"lk c #d0d0c6",
"eR c #d0d0c8",
"j2 c #d0d2d1",
"g2 c #d1d4db",
"c1 c #d2d2ec",
"ls c #d2d5e8",
"g. c #d4ced8",
"cJ c #d4d4f0",
"#q c #d5d6d1",
"#u c #d7d6d1",
"ij c #d7d7fd",
"ea c #d9dcff",
".7 c #d9dde0",
".L c #dee2ff",
"c3 c #dfdff9",
"cT c #e5e4ff",
"dx c #e7e7ff",
"b. c #eaeaff",
"jk c #ececff",
"jP c #ecefff",
".X c #edeef2",
"h2 c #edf0ff",
"aE c #eeebff",
"ac c #eeefff",
"ha c #efeeff",
".D c #eff1f0",
"dZ c #eff1ff",
"it c #eff2ff",
"ia c #f0f1ff",
"jn c #f0f6ff",
"cs c #f1edff",
"#J c #f1f1ff",
"lu c #f1f5ff",
"cN c #f1f7ff",
".H c #f1faf5",
"he c #f2edff",
"e4 c #f2f4ff",
"e8 c #f3f4ff",
"gn c #f3f7ff",
"#i c #f4f2ff",
"eH c #f4f4ff",
"fr c #f4f7ff",
"iX c #f4f9ff",
"fU c #f4fbff",
"dl c #f5f1ff",
"eh c #f5f6ff",
"eE c #f5f7ff",
"iD c #f5f9ff",
"iw c #f5faff",
"kf c #f5fbff",
"aZ c #f5fefb",
"b4 c #f6f5ff",
"a6 c #f6f6ff",
"ki c #f6fcff",
"bV c #f6feff",
"#g c #f7f4ff",
"kS c #f7f6f4",
"#f c #f7f6ff",
"dO c #f7f7ff",
".6 c #f7f9f8",
"dh c #f7f9ff",
"j0 c #f7faf1",
"jr c #f7fbff",
"jT c #f7fcff",
"jM c #f8f4ff",
".2 c #f8f7f2",
"dp c #f8f7ff",
"hJ c #f8f8ff",
".Y c #f8f9f1",
"hC c #f8f9ff",
"cQ c #f8faff",
"k8 c #f8fbff",
".V c #f8fcff",
".K c #f8fdff",
"cl c #f8feff",
".J c #f8ffff",
"bz c #f9f5ff",
"co c #f9f7ff",
"gJ c #f9f8ff",
"b0 c #f9f9ff",
"b9 c #f9faff",
"b8 c #f9fbff",
"#z c #f9fefa",
".I c #f9ffff",
".Z c #fafaf0",
"jy c #fafefd",
".F c #fafff8",
"gf c #fbf6ff",
"eZ c #fbf9ff",
"cy c #fbfbff",
"cX c #fbfcff",
".W c #fbfeff",
".G c #fbfffa",
"aw c #fbfffd",
"i5 c #fbffff",
".E c #fcfffb",
"#5 c #fcfffd",
"gN c #fefcff",
".C c #feffff",
"lj c #fffcff",
".0 c #fffff3",
".1 c #fffff8",
".3 c #fffffb",
"Qt.#.a.b.c.d.e.d.f.g.h.i.j.k.l.m.n.m.o.p.q.r.s.t.u.v.w.x.x.y.z.A",
".B.C.D.E.F.G.H.I.J.K.L.M.N.O.P.Q.R.S.T.U.V.W.X.Y.Z.0.1.2.3.4.y.5",
".y.6.7.8.9#.###a#b#c#d#e#f#g#h#i#j#k#l#m#n#o#p#q#r#s#t#u#v#w.y#x",
"#y#z#A#B#C#D#E#F#G#H#I#J#K#L#M#N#O#P#Q#R#S#T#U#V#W#X#Y#Z#0#1#2#3",
"#4#5#6#7#8#9a.a#aaabacadae.jafagahaiajakalamanaoapaqarasatau.bav",
".bawaxayazaAaBaCaDaEaFaGaH#faI#faJaKaLaMaNaOaPaQaRaSaTaUaVaWaXaY",
".daZa0a1a2a3a4a5a6a7a8a9b.b#babbbcbdbe.pbfbgbhbibjbkblbmbnbo.bbp",
"bq.Ibrbsbtbubv#gbwbxbybzbAbBbCbDbEbFbGbHbIbJbKbLbMbNbObPbQbRbSbT",
"bUbVbWbXbYbZb0b1b2b3b4b5b6b7b8b8b9c.c#cacbccb2cdcecfcgchbQci.bcj",
"ckclcmcnbZcocpcqcrcsctcucvb8aBcwcxcyczcAcBcCcDcEcFcGcHcIcJcK.ycL",
"cMcNcOcPcQcRbacScTcUcVcWcXcYcZc0c1c2c3c4c5c6c7c8c9d.d#dadbdcddde",
"dfdgcIdhdidjdkdldmdndodpdqdrdsdtdudvdwdxdydzdAdBdCdDdEdFdG.gdHdI",
"dJdKdhdLdMdNdObHdPdQcydRdSdTdUdVdW#0dXdYdZd0d1d2d3d4d5d6d7d8d9e.",
"e#eaebeceddOeeefegeheiejekelemeneoepeqerescleteuevewexeyezeAeBeC",
"eDeEeFeGeHeIeueJb8eKdReLeMeNeOePeQeReSeTeUeV.VeW#meXeYcqeZe0d8e1",
"bae2e3e4e5e6e7e8e9f.dqf#fafbfcfdfefffgfhfifjfkdhfleufmb0fn.qfofp",
"a4fqfrfsftfufvfwfxfyfzfAfBfCfDfEfFfGfHfIfJfKfLfMfNfOeZfPfQckfRfS",
"fTfUfVfW.kfXfYfZf0f1f2f3f4f5f6f7f8f9g.g#gagbgcgdgegfggghgigjgkgl",
"gmgngogpgqgrgsgtfOgugvgwgxgygzgAgBgCgDgEgFgGgHgIgJgKgLgMgNgO.rgP",
"gQgRgSgTgUgVgWgXgYgZg0g1g2g3g4g5g6g7g8g9h.cVh#hahbhchdhehfhgeBhh",
".ihihjhkhlhmhnhohphqhrhshthuhvhweMhxhyhzhAhBhChDhEhFcQhGhHhIgidv",
"cIhJbbhKhLhMhNhOhPhQhRhShThUhVhWhXhYhZh0h1h2h3h4h5#fh6h7a4h8h9i.",
"i#iaibicidieifigihiiijikiliminioipiqirisitiuivfWiwixiyizcXiAeBiB",
"iCiDiEiFiGiHiIiJiKiLiMiNiOiPiQiRiSiTiUdhiVh4iWiXiYiZi0#Ji1i2i3i4",
".ri5i6i7i8i9j.j#jajbjcjdjejfjgjhjijjjkjlgUjmjnjojpjqjrjsjtjujvjw",
"jxjyjzjAhvjBjCjDjEjFjGjHjIjejJjKjLjMjNjO.ojPjQjRjSjTjUjVjWjXjYjZ",
".aj0j1j2j3j4j5j6j7j8j9k.k#kakbkcbzkdkejGkfkgcfkhkikjkkklkmknkokp",
"kq.1krksktkukvkwkxkykzkAkBkCkDkEkFkGc9eHkHkIcIjrkJkKkLkMkNkOkPkQ",
"kRkSkTkUkVkWkXkYkZk0.ik1k2k3k4k5k6k7k8k9hBl.cll#lalblcldlelflglh",
"liljfgkTlklllmlni.lolplqlrlsltlulvb8lwlxjC.VlylzlAlBlClDlElFlGlH",
"lIlJlKlLlMlNlOlPlQlRlSlTlUi3lVlWlXcklYlZl0l1l2l3l4l5l6l7l8l9m.m#",
"mamblimcmdkqmemfeBd8eBmgmhmimj.emkmleBd9.dmjmmmn.y.a.xmompmqmrms"};
