/* XPM */
static const char *graphlist_xpm[]={
"16 16 134 2",
".t c #040404",
"#L c #111111",
".u c #131313",
".o c #141414",
".r c #151515",
"#U c #171717",
".v c #191919",
".q c #1a1a1a",
"a. c #1b1b1b",
"#e c #1c1c1c",
"aa c #1d1d1d",
"#. c #1e1e1e",
"#F c #1f1f1f",
".D c #212121",
"#Y c #222222",
".0 c #232323",
"a# c #252525",
"#k c #262626",
".V c #282828",
".s c #2a2a2a",
"#d c #2b2b2b",
"#f c #2c2c2c",
".M c #2d2d2d",
"ab c #2e2e2e",
".K c #303030",
".p c #313131",
"#7 c #363636",
".X c #3c3c3c",
"#9 c #4c4c4c",
"#6 c #535353",
".U c #545454",
"#S c #606060",
"#w c #676767",
"#I c #686868",
".7 c #696969",
"#H c #6a6a6a",
"#x c #6f6f6f",
".N c #707070",
"#c c #757575",
".T c #797979",
"#R c #7a7a7a",
"#0 c #7b7b7b",
"#v c #7c7c7c",
"#G c #7d7d7d",
"#p c #7e7e7e",
".S c #7f7f7f",
"#b c #808080",
"#j c #818181",
"#u c #828282",
"#t c #848484",
"#a c #858585",
".b c #868686",
".f c #878787",
"#2 c #888888",
".C c #898989",
".g c #8a8a8a",
".w c #8c8c8c",
".c c #8e8e8e",
"## c #8f8f8f",
".d c #919191",
".Z c #929292",
"#4 c #939393",
"#E c #949494",
".n c #959595",
"#y c #969696",
".e c #979797",
"#3 c #989898",
"#z c #9a9a9a",
"#1 c #9b9b9b",
".Q c #9c9c9c",
"#5 c #9d9d9d",
"#X c #9e9e9e",
"#J c #9f9f9f",
".6 c #a0a0a0",
".5 c #a1a1a1",
".a c #a3a3a3",
".4 c #a6a6a6",
".h c #acacac",
".J c #b7b7b7",
"#T c #b9b9b9",
"#8 c #bdbdbd",
"#W c #c1c1c1",
"#h c #c4c4c4",
".z c #c6c6c6",
".y c #c7c7c7",
".k c #c8c8c8",
"Qt c #c9c9c9",
".j c #cacaca",
".l c #cbcbcb",
".Y c #cccccc",
"#q c #cdcdcd",
".A c #cecece",
".i c #cfcfcf",
".# c #d1d1d1",
"#r c #d2d2d2",
".1 c #d3d3d3",
".O c #d4d4d4",
"#A c #d5d5d5",
".8 c #d6d6d6",
".L c #d8d8d8",
".R c #d9d9d9",
"#N c #dadada",
"#g c #dbdbdb",
"#K c #dcdcdc",
"#Q c #dddddd",
"#V c #dedede",
"#Z c #dfdfdf",
".W c #e0e0e0",
"#O c #e1e1e1",
".B c #e2e2e2",
"#s c #e3e3e3",
".m c #e4e4e4",
"#i c #e5e5e5",
"#l c #e6e6e6",
".P c #e7e7e7",
".x c #e8e8e8",
"#B c #e9e9e9",
"#m c #eaeaea",
".E c #ebebeb",
".3 c #ececec",
"ad c #ededed",
"#C c #eeeeee",
"#D c #efefef",
".H c #f0f0f0",
".2 c #f1f1f1",
".9 c #f2f2f2",
"ac c #f4f4f4",
"#n c #f6f6f6",
"#M c #f7f7f7",
".F c #f8f8f8",
"#o c #f9f9f9",
"#P c #fafafa",
".I c #fcfcfc",
".G c #ffffff",
"Qt.#.a.b.c.d.e.f.e.g.h.i.j.i.k.l",
".m.n.o.p.q.o.r.s.t.u.v.w.x.y.z.A",
".B.C.D.E.F.G.H.I.J.K.L.M.N.B.O.j",
".P.Q.D.R.C.S.T.d.U.V.H.W.X.w.O.Y",
".W.Z.0.F.1.P.2.3.4.V.5.6.7.s.l.8",
".9.d#..i##.S#a#b#c#d#e.K#d#f#g#h",
"#i#j#k.F#l.9.H#m.3#n#o.G#p.X#q#r",
"#s###f.Y#t#u#v.C#u#w#x#y#z#k#A#q",
"#l.b.M.3.B.2#B.P.3#B#C#D#E#F.L.Y",
".x.C.V.1#j#G#u#v#H#I.7#J###k#K.y",
".H.c#L#M.3#C#N#O.m#P.L#g.4.D#O.l",
"#Q.d#f#O#R#G.c#R#S#u.b#T.Z#U#V#W",
".B#y.0#C#P#M#B#M.G.3#Q.F#X#Y#Z.1",
".9#0.r#1.Z#2#3#E#4#y#1#5#6#7#A#W",
".1#8#9#.a.a#.Ka.aa#Yaa#Fab#j#O.z",
"#h.R#Z#sac#Q.E#i.x.3ad.E#K.B#r.j"};
