/* XPM */
const static char *modify_login_xpm[]={
"16 16 9 1",
"  c None",
"b c #000000",
"g c #0000ff",
"f c #00ff00",
"# c #808000",
"d c #808080",
"e c #ff0000",
"a c #ffff00",
"c c #ffffff",
"  ####          ",
" #aaaa#         ",
"b#a##bb#        ",
"b##cb# bdddd    ",
"b#abbaabccccd   ",
"b#aaaa#ccbcccd  ",
" b#aa#bcbceffcd ",
"  b#a#bcbeefaacd",
"   #a#cccbegabcb",
"  b#a#bbccbgbcb ",
" b#aa#  bccbcb  ",
"  b#a#   bccb   ",
"   #a#    bb    ",
"  b#a#          ",
" b#aa#          ",
"  bab           "};
