/* XPM */
const static char *output_xpm[]={
"17 17 6 1",
"  c #d4d0c8",
"b c #000000",
"# c #000080",
"a c #808080",
"c c #ff0000",
"d c #ffffff",
"                 ",
"                 ",
"  #   # ab bb ba ",
"    #   bbcbbcbb ",
"  #   #  cccccc  ",
"     #  bbcbbcbb ",
" b   #  bbcbbcbb ",
" b ##### cccccca ",
" b  ### bbcbbcbb ",
" b d # dab bb ba ",
" bd d d d d d db ",
" bdbdbdbdbdbdbdb ",
" bdddddddddddddb ",
" bdbdbdbdbdbdbdb ",
" bdddddddddddddb ",
" bbbbbbbbbbbbbbb ",
"                 "};
