/* XPM */
static const char *paramod_xpm[]={
"16 16 252 2",
"#3 c #1a1800",
"#e c #211219",
"aw c #272700",
"#u c #291e1a",
"ah c #2a2800",
"av c #2b2d00",
"#K c #2d2614",
"a4 c #2d2900",
"aN c #2e2d00",
"#Y c #302921",
"by c #322107",
"bj c #322503",
"#J c #322721",
"ax c #323100",
"#Z c #37301e",
"#I c #382e2f",
"au c #383911",
"aL c #383a0b",
"#t c #3a2b30",
"#H c #3a2e38",
"aM c #40400c",
"ai c #444116",
"ag c #444410",
"#q c #46374e",
".J c #4f3b57",
"#v c #4f4539",
"## c #50405a",
".Y c #523e59",
"#2 c #58552c",
"#b c #68566e",
"aQ c #695e3e",
".q c #6a5866",
".Z c #736074",
"bP c #745d4b",
"af c #747343",
"a2 c #797b4c",
"ad c #7a765b",
".s c #7b6481",
"ay c #7b7948",
".r c #7c697d",
".V c #7c6a80",
"#d c #7c6c79",
"az c #7c7751",
"bh c #7c7852",
"bx c #7d6f52",
"a7 c #7f6f55",
"bk c #817253",
"aK c #81835e",
".G c #827184",
".0 c #82727f",
"#s c #827481",
"#L c #837d63",
"#M c #837e60",
"#X c #84797d",
"#0 c #847f62",
"a3 c #868454",
"aP c #888157",
"a1 c #888a63",
"bw c #898061",
"bi c #89815c",
"#N c #898667",
"bz c #8b755e",
".U c #8b7d8e",
"#a c #8d7d97",
"bM c #8d826c",
".X c #8e7a96",
"a6 c #8e815f",
"#f c #8e8381",
"#p c #90809a",
"a5 c #908760",
"bv c #918c6f",
"aO c #918d5d",
"at c #919072",
"#c c #938295",
"#G c #948798",
"#4 c #95926f",
"bO c #96846e",
"bg c #989876",
"ae c #999771",
"bN c #9a8a73",
".F c #9a8c99",
"aA c #9a9174",
".b c #9c899d",
"aj c #a09b7b",
".K c #a18da8",
"#r c #a192a5",
"ac c #a19e8f",
"#1 c #a29e79",
".c c #a48da9",
".t c #a58dad",
"#w c #a69f8d",
"aR c #ab9c85",
"ba c #aeacad",
".C c #aeb9b1",
"bd c #afb0a8",
"bG c #b0aec3",
"#l c #b0b3b8",
"bJ c #b1afb0",
".k c #b1b7ad",
".8 c #b1b9bc",
".n c #b1beb4",
"bl c #b39f86",
".h c #b4a7ae",
"#E c #b4a7bb",
"aE c #b4afab",
"#S c #b4b1ba",
".l c #b4bfb1",
"#n c #b6a7be",
"bC c #b7b2b6",
"ar c #b7b3aa",
"#z c #b7b7ad",
"#. c #b8a9be",
"bT c #b8b4c2",
"bF c #b8b5c8",
"bn c #b9b5b2",
"#P c #b9b6a5",
"bU c #b9b6c7",
"#V c #baaebc",
".O c #bab5b2",
"aH c #bab7ae",
"bH c #bab9c9",
".5 c #babdb6",
"#x c #bbb6a2",
".3 c #bbb6b0",
"#7 c #bbb6b3",
"a9 c #bbb8b3",
"bY c #bbb9c7",
"aW c #bbbab6",
"aY c #bbbbaf",
".P c #bbbeb7",
".R c #bbc4c1",
".S c #bbc5c4",
"as c #bcbba7",
".z c #bcbcb4",
"#A c #bcbcba",
".D c #bcc9c0",
".H c #bdabc3",
"aC c #bdb1a3",
"a# c #bdb4b9",
"b0 c #bdb8b4",
"bD c #bdbac3",
"bs c #bdbeb9",
".6 c #bdc2be",
".7 c #bdc2c5",
".Q c #bdc4bd",
".B c #bdc5ba",
".a c #beacb8",
".o c #beafb2",
"#Q c #bebbb4",
"bS c #bebcc1",
"bX c #bebcd2",
"aX c #bebdb8",
"bI c #bebdc5",
"#T c #bfb2c3",
"#9 c #bfb5be",
"aV c #bfbbb8",
"bc c #bfbfbd",
"#m c #bfc3cc",
".m c #bfcbc1",
".N c #c0b5b9",
"ao c #c0baba",
"aq c #c0bbb7",
"bV c #c0bed6",
"bo c #c0bfc5",
"bt c #c0c0b4",
"be c #c0c1b1",
"#B c #c0c1c6",
"aZ c #c0c2ad",
"#k c #c0c2c1",
"al c #c1b9ae",
"#h c #c1bbaf",
".i c #c1bbbb",
"#i c #c1bfb3",
"#C c #c1c1cb",
"b# c #c2bebd",
"bZ c #c2bfc6",
"bW c #c2c0d8",
"br c #c2c1c6",
".M c #c3b3be",
".w c #c3b3c0",
".# c #c3b4b7",
"bb c #c3c1c4",
"bp c #c3c1cc",
".A c #c3c9bf",
"Qt c #c4b6b5",
"aa c #c4bebe",
"aD c #c4bfbb",
"aU c #c4c1bc",
".j c #c4c4bc",
"#j c #c4c5bf",
".u c #c5aecb",
"am c #c5bcb5",
"aT c #c5c0ba",
".I c #c6b2ce",
".v c #c6b3c9",
"an c #c6bdc0",
"aF c #c6c1bd",
"bq c #c6c5cd",
".4 c #c6c6be",
"ak c #c7c1ab",
"ap c #c7c1c1",
"#8 c #c7c1c3",
"bR c #c7c2c6",
"bK c #c7c3ba",
"bu c #c7c5b0",
"bE c #c7c5d3",
"bB c #c8c4c5",
"a. c #c9bfc7",
"aG c #c9c6c1",
"#R c #c9c7ca",
"#6 c #cac4b6",
".e c #cbb4d1",
"#U c #cbbecf",
".2 c #cbc1c0",
".y c #cbc6c3",
"aJ c #cbcbaf",
".d c #ccb4d4",
"bm c #ccb8a0",
".f c #ccb8d1",
"aS c #ccbdaa",
"#D c #cdc0d4",
"#5 c #cecab1",
".W c #cfbdd7",
"b1 c #cfc4b2",
"#g c #cfc6bd",
"#y c #cfccbb",
"#O c #d0ceb5",
"aI c #d0d1bf",
"a0 c #d0d3b6",
"b2 c #d1c0ae",
"bf c #d1d1b7",
"b4 c #d2bbab",
".x c #d2c5cc",
".9 c #d3c4d9",
"bQ c #d4baa9",
"b5 c #d4baab",
".g c #d5c3d3",
".1 c #d5c8cf",
"b. c #d5d1ce",
".L c #d6c3d7",
".E c #d6c9d2",
"ab c #d6cfc9",
"bA c #d7c1ac",
"#F c #d8cbdf",
"aB c #d8cdbb",
"#o c #dacbe2",
"bL c #dad3c1",
"a8 c #dccab4",
"b3 c #dec9b6",
"#W c #dfd5de",
".T c #e1d3e2",
".p c #eddee5",
"Qt.#.a.b.c.d.e.f.g.h.i.j.k.l.m.n",
".o.p.q.r.s.t.u.v.w.x.y.z.A.B.C.D",
".E.F.G.H.I.J.K.L.M.N.O.z.P.Q.R.S",
".T.U.V.W.X.Y.Z.0.1.2.3.4.5.6.7.8",
".9#.###a#b#c#d#e#f#g#h#i#j#k#l#m",
"#n#o#p#q#r#s#t#u#v#w#x#y#z#A#B#C",
"#D#E#F#G#H#I#J#K#L#M#N#O#P#Q#R#S",
"#T#U#V#W#X#Y#Z#0#1#2#3#4#5#6#7#8",
"#9a.a#aaabacadaeafagahaiajakalam",
"anaoapaqarasatauavawaxayazaAaBaC",
"aDaEaFaGaHaIaJaKaLaMaNaOaPaQaRaS",
"aTaUaVaWaXaYaZa0a1a2a3a4a5a6a7a8",
"a9b.b#babbbcbdbebfbgbhbibjbkblbm",
"bnb#bbbobpbqbrbsbtbubvbwbxbybzbA",
"bBbCbDbEbFbGbHbIbJbKbLbMbNbObPbQ",
"bRbSbTbUbVbWbXbYbZb0alb1b2b3b4b5"};
