/* XPM */
const static char *pdr_xpm[]={
"16 16 7 1",
". c #000000",
"b c #008000",
"d c #800000",
"c c #808080",
"# c #c0c0c0",
"e c #ff0000",
"a c #ffffff",
"...............#",
".#aaaaa#aaaaaab#",
".aaaaaa#aaaaaab#",
".aaaaac#daaaa#b#",
".aaaaaa#aaaaaab#",
".aaaaaa#aac#.a.#",
".aaaaaae.cccc.##",
".aaaaaa#c#acac.#",
".aaaaaa.#ca#a#c#",
".aaaaaaccaacecc#",
".a####acaaacaa##",
".aaaaacccaaaacc#",
".aaaaaa.#ca#a#c#",
".b.....ccc###cc#",
"...............#",
"################"};
