/* XPM */
static const char *plancurve_xpm[]={
"16 16 238 2",
"a0 c #000104",
"aj c #000200",
"#n c #000300",
".F c #000302",
"bx c #000400",
"aP c #000502",
"aS c #000504",
"bJ c #000600",
"## c #000700",
"a3 c #000704",
".V c #000800",
"aR c #000a09",
".E c #000a0b",
"a2 c #00130f",
"bA c #010000",
"by c #010b03",
"be c #010c06",
"bP c #020300",
"bC c #040000",
"#o c #040800",
"bw c #040b04",
"bM c #050c05",
"bt c #060000",
"aL c #060002",
"aF c #070004",
"bv c #070601",
"bs c #080000",
"aU c #080d10",
"bu c #0a0501",
"aJ c #0b0004",
"aH c #0c0005",
"ai c #0c0500",
"bB c #0c0606",
".# c #0d000c",
"bz c #0d0d0b",
"an c #0e0000",
"#D c #0f0000",
".p c #0f0412",
"br c #120403",
"aK c #12050c",
"ax c #120d0a",
"aC c #121317",
"bE c #130000",
"#9 c #160000",
"#5 c #170000",
"#T c #190000",
"as c #1b0000",
"aG c #1b0b15",
"#8 c #1c0003",
"au c #1c0004",
"ad c #240000",
"a. c #5e3941",
"#r c #5e4540",
"#s c #613b38",
"#V c #66393e",
"#A c #6a181a",
"#t c #6d3b3c",
"#0 c #6e2f37",
"#G c #6f4344",
"#M c #722d30",
"#L c #752e32",
".9 c #7d3036",
"#y c #7f2d31",
"#J c #813f43",
"#j c #822b33",
"#i c #89383e",
"#z c #8e3c3e",
"#l c #953a41",
".n c #abbfb3",
".u c #acb4b6",
".g c #adc3c0",
"a5 c #aeb8b7",
"aA c #aec6b9",
"bL c #afbbb1",
"aM c #b0abaf",
"aE c #b0abb1",
".k c #b0c8bb",
".h c #b0cac1",
"ba c #b1acb2",
"a1 c #b1c4c0",
".t c #b2b5ba",
"ay c #b2b7b1",
".d c #b2b7bd",
".z c #b2b9b1",
"bd c #b2bbb6",
"bf c #b2bdb7",
".U c #b4c8bf",
"#a c #b5c0b2",
".j c #b5cfc4",
".w c #b6c1bd",
"bm c #b7b5b6",
".C c #b7b7af",
"aB c #b7bbbe",
"a8 c #b8b9bd",
"bi c #b8c3bf",
"aQ c #b9c9c6",
"bI c #bbc0b9",
".X c #bbc5bc",
".x c #bbc6c0",
".o c #bcb0be",
"bN c #bcc1bb",
"bh c #bcc7c1",
"bO c #bdbfba",
"#. c #bdcfc1",
".q c #beb6c3",
"a9 c #bebec0",
"bb c #bfb8bf",
".W c #bfccc3",
".m c #c0d4c8",
".b c #c1b6c6",
"b# c #c2c0c3",
"bk c #c2c6c5",
"az c #c2d8cc",
".Z c #c3bcb6",
"bc c #c3bcc3",
"bQ c #c4c0bd",
"bK c #c4cec5",
".r c #c5bfc9",
"#6 c #c6b4a8",
"bR c #c6c2bf",
".A c #c6c9c2",
"bj c #c6ccca",
"aD c #c7c6cb",
"#b c #c7c9bc",
"a6 c #c7cdcd",
"bH c #c8c8c0",
"bG c #c9beba",
"aN c #c9cdce",
"av c #cab1b7",
"#7 c #cabcaf",
"bp c #cabfc5",
"bq c #cbc0c6",
".e c #cbd6da",
"bD c #ccb4b4",
"am c #ccb9bf",
".0 c #cdbbb9",
".D c #cdcac1",
"#S c #ceb0b0",
"bF c #cfbdbb",
"#C c #d0bfb8",
"bn c #d1ccd0",
"#4 c #d2b1aa",
".a c #d2c1d3",
"Qt c #d3bbd1",
"ap c #d4b6c0",
"#E c #d5b9b6",
".2 c #d6b2b2",
"#e c #d6b3b1",
"#d c #d6bfb9",
"ao c #d8bec7",
"#F c #dab7b5",
"ar c #dcb6c3",
"#3 c #dfb6b4",
"#U c #e1babd",
"#X c #e3a7af",
"#O c #e3a9a7",
"#R c #e3b7ae",
".3 c #e3b7b8",
"#I c #e4a6ab",
".f c #e4f7f5",
"#f c #e7acae",
"#g c #e8a6a8",
".5 c #e8acae",
"#1 c #e8adb1",
"aT c #e9f7f7",
".6 c #eaa8ac",
".l c #ebfff6",
"ak c #edf8ea",
".i c #eeffff",
"#Y c #f0b1ba",
".H c #f0f6f4",
"#N c #f2b2b2",
"b. c #f2f0f3",
"a4 c #f2fefc",
"a7 c #f3f7f8",
"aO c #f3fdfc",
"#H c #f5bec1",
"bo c #f5eff3",
"#Q c #f6c5be",
".Y c #f6f7f1",
"al c #f7fff6",
"aY c #f8fcff",
"bg c #f8fffd",
".v c #f8ffff",
".y c #f9fffb",
".G c #f9ffff",
"aV c #fafbff",
".I c #fbfffe",
"aZ c #fbffff",
"#q c #fdf0e7",
"aX c #fdfcff",
"#m c #fea3a8",
".8 c #feb3b8",
"aW c #fef9ff",
".J c #fefffd",
"bl c #feffff",
"#K c #ffbec4",
".S c #ffe3e4",
"#k c #ffe3e9",
".7 c #ffe5e9",
"#u c #ffe6e8",
"#v c #ffe6e9",
"#w c #ffe6ea",
"#x c #ffe6ec",
"#B c #ffe7e8",
".4 c #ffe7ea",
"#h c #ffe7ed",
"#Z c #ffe8f0",
"ab c #ffe8f4",
"ae c #ffebf3",
".P c #ffecea",
"#P c #ffede7",
"ac c #ffedfa",
"#W c #ffeef6",
"aa c #ffeffb",
"#2 c #fff0f1",
".1 c #fff1f0",
".T c #fff1f1",
"a# c #fff1fb",
".R c #fff2f3",
"af c #fff2f8",
"at c #fff2fd",
"aq c #fff3fe",
"ah c #fff4f0",
".Q c #fff4f4",
"aw c #fff5f8",
"aI c #fff5ff",
"ag c #fff6f8",
".O c #fff7f6",
".N c #fff9f8",
".L c #fffbf9",
".M c #fffbfa",
"#c c #fffdf4",
".c c #fffdff",
".s c #fffeff",
"#p c #fffff3",
".B c #fffff8",
".K c #fffffd",
"Qt.#.a.b.c.d.e.f.g.h.i.j.k.l.m.n",
".o.p.q.r.s.t.u.v.w.x.y.z.A.B.C.D",
".E.F.G.H.I.J.K.L.M.N.O.P.Q.R.S.T",
".U.V.W.X.Y.Z.0.1.2.3.4.5.6.7.8.9",
"#.###a#b#c#d#e.T#f#g#h#i#j#k#l#m",
"#n#o#p#q#r#s#t#u#v#w#x#y#w#z#A#B",
"#C#D#E#F#G#H#I#J#K#L#M#N#O#P#Q#R",
"#S#T#U#V#W#X#Y#Z#0#1#2#3#4#5#6#7",
"#8#9a.a#aaabacadaeafagahaiajakal",
"amanaoapaqarasatauavawaxay##azaA",
"aBaCaDaEaFaGaHaIaJaKaLaMaNaOaPaQ",
"aRaSaT.vaUaV.s.caW.c.c.saXaYaZa0",
"a1a2a3aPa4a5a6a7a8a9b.b#ba.cbbbc",
"bdbebfbfbgbhbi.Gbjbkblbmbnbobpbq",
"brbsbtbubvajbwbxbxbyajajbzbAbBbC",
"bDbEbFbGbtbHbIbJbKbLbMbNbObPbQbR"};
