/* XPM */
static const char *shinelabel_xpm[]={
"16 16 250 2",
"bN c #1a1e05",
"#f c #1d1805",
"#w c #211b0b",
"b0 c #313423",
"b2 c #31351c",
"ax c #32311d",
"a3 c #333520",
"#y c #342f1c",
"bE c #35301c",
"bX c #373330",
"bS c #393319",
"bI c #393532",
"bB c #393609",
"ba c #3a362b",
"bQ c #3a3704",
"#O c #3a3726",
"bK c #3a3a30",
"bx c #3a3e27",
"bZ c #3b3b31",
"bV c #3c3733",
"ah c #3c3b29",
"aN c #3d3f2a",
"b1 c #3d402b",
"bW c #3e3a37",
"#3 c #3f3c2b",
"bU c #40392f",
"bG c #403b35",
"bF c #403c31",
"bY c #403f3a",
"bf c #404131",
"bL c #404332",
"bh c #40442d",
"bJ c #41403b",
"bM c #434631",
"bD c #443f22",
"bH c #44403d",
"#g c #45402d",
"aL c #454636",
"bR c #474419",
"bC c #48441f",
"a4 c #484a34",
"be c #4a4a3e",
"bT c #4b4633",
"#v c #4d4737",
"by c #4d5138",
".5 c #4e4734",
".1 c #4e4936",
"#i c #504937",
"ay c #504f3b",
"bd c #515149",
"bc c #535049",
"#2 c #555243",
"av c #555344",
"a1 c #565747",
".4 c #57503d",
"bb c #57544d",
"ai c #585743",
"#j c #595240",
"#4 c #5c5948",
"bO c #5c6045",
"bi c #5d6148",
"#P c #5e5b4a",
"#z c #5f5a47",
"af c #5f5d4e",
"#M c #605d4c",
".U c #606443",
".W c #64644a",
".S c #646843",
"b3 c #64684d",
"aO c #656751",
".3 c #6a6350",
".Y c #6d6b56",
".0 c #6e6956",
".Z c #6e6b58",
".V c #6e7154",
".T c #6f7350",
"a6 c #706f36",
".2 c #736c5a",
"bA c #74713e",
".X c #74745c",
"#B c #757b3f",
"ak c #767b39",
"#l c #7c834d",
"aA c #7d7f3e",
"#6 c #7d8240",
"#R c #7d8343",
".7 c #7e8454",
"aQ c #808042",
"b# c #827f6e",
".R c #848b62",
"bl c #8c8a5a",
"#m c #919865",
".8 c #92986c",
"bk c #93925a",
"aB c #95965c",
".C c #989b7c",
"#C c #989d65",
".E c #999c7f",
".G c #9a9a82",
".H c #9b9a85",
"a7 c #9c9a67",
"#S c #9ca266",
".N c #9d9683",
".K c #9d9885",
".6 c #9ea474",
".J c #9f9c89",
"al c #a0a467",
".I c #a19e8b",
".D c #a1a485",
"#7 c #a1a568",
".O c #a59e8b",
".F c #a5a88d",
"#5 c #a5aa67",
"#A c #a5ab6f",
".B c #a6ac8a",
".M c #a7a08d",
".A c #a7ad89",
"bj c #a8a76e",
"bz c #a9a66f",
"aR c #aaab72",
".Q c #aab187",
"aP c #acac6c",
".P c #ada693",
"#Q c #adb471",
".L c #afaa97",
"bg c #afb19c",
"#N c #b0ad9c",
"a5 c #b1b173",
"aj c #b1b46f",
"#k c #b1b882",
"#Z c #b2af9e",
"aw c #b2b19f",
"#I c #b3b19c",
"ag c #b3b2a0",
"#e c #b4af9c",
"bs c #b4b1ac",
".k c #b5ae9b",
".a c #b5b9a0",
"bP c #b6b37e",
"#x c #b7b29f",
"ab c #b7b4a1",
"at c #b7b5a8",
"bu c #b7b7ad",
"az c #b7b876",
"aM c #b7b8a6",
"br c #b8b5b0",
"aF c #b8b69d",
"aV c #b8b6a1",
".p c #b8bca1",
".r c #b9bba3",
"Qt c #b9bda2",
".w c #bab7a4",
"aI c #bab8ac",
"#h c #bbb6a3",
"as c #bbb7ab",
"a# c #bcbb9d",
".q c #bcc0a5",
".z c #bdb5a0",
"#u c #bdb7a7",
"#d c #bdbaa7",
"aH c #bdbbae",
".t c #bdbca7",
"a2 c #bdbeac",
"#a c #bebea2",
"bt c #bebeb6",
"#q c #bebfa0",
"bv c #bebfaf",
"bq c #bfbbb2",
"ad c #bfbdae",
".d c #bfbeaa",
"bw c #bfc1ac",
".v c #c0bdaa",
".u c #c0bfab",
".s c #c0c2ac",
".b c #c0c4ab",
".n c #c0c5a7",
".h c #c1baa7",
".f c #c1beab",
"#0 c #c1beaf",
"#Y c #c1bfaa",
".c c #c1c3ad",
".# c #c1c5aa",
".y c #c3bca9",
"#G c #c4c3a5",
".e c #c4c3af",
".m c #c5bda8",
"ac c #c5c2b3",
"#W c #c5c4a5",
".i c #c6bfac",
".x c #c6c1ad",
"aJ c #c6c4b8",
"ar c #c7c4b5",
".o c #c7ccae",
".g c #c9c6b3",
"#K c #c9c6b5",
"#b c #cbcbb3",
".j c #ccc5b2",
"ap c #cccbaf",
"#c c #cfcdb8",
".l c #d1c9b4",
"ae c #d2d0c1",
"bo c #d5d0ba",
"bn c #d6d3b4",
"#s c #d7d5c0",
"#r c #dadac0",
"#J c #dcd9c6",
"#L c #dedbca",
"bp c #e0dcd0",
"au c #e1dfd2",
"bm c #e2deb8",
"#1 c #e3e0d1",
"a0 c #e3e1d5",
"#t c #e4e1ce",
"#U c #e4e7b8",
"#H c #e5e3ca",
"ao c #e5e5c1",
".9 c #e5eac1",
"aK c #e9e7da",
"aG c #eae7d4",
"aq c #ebe9d4",
"aX c #ebe9dd",
"## c #ebeccc",
"#8 c #ebeeb7",
"#. c #eceec9",
"#X c #edebd2",
"an c #edeec2",
"#V c #edefc8",
"#p c #eeefcd",
"aY c #f1eee5",
"aT c #f1efc9",
"#o c #f1f3cb",
"aZ c #f2efe6",
"#n c #f2f8ca",
"aS c #f4f3c3",
"aE c #f5f2d1",
"aD c #f5f3ca",
"b. c #f6f2d9",
"aa c #f6f4dd",
"#F c #f6f8d1",
"#E c #f6f9cc",
"aC c #f7f7c5",
"a. c #f8f8d2",
"#T c #f9fec8",
"#9 c #fafccd",
"a9 c #fdfad9",
"aW c #fffdee",
"am c #ffffd1",
"#D c #ffffd3",
"a8 c #ffffd8",
"aU c #ffffe4",
"Qt.#.a.b.c.c.d.e.f.g.h.i.j.k.l.m",
".n.o.p.q.r.s.t.u.v.w.x.y.k.j.z.z",
".A.B.C.D.E.F.G.H.I.J.K.L.M.N.O.P",
".Q.R.S.T.U.V.W.X.Y.Z.0.1.2.3.4.5",
".6.7.8.9#.###a#b#c#d#e#f#g#h#i#j",
"#k#l#m#n#o#p#q#r#s#t#u#v#w#x#y#z",
"#A#B#C#D#E#F#G#H#I#J#K#L#M#N#O#P",
"#Q#R#S#T#U#V#W#X#Y#Z#0#1#2#Z#3#4",
"#5#6#7#8#9a.a#aaabacadaeafagahai",
"ajakalamanaoapaqarasatauavawaxay",
"azaAaBaCaDaEaFaGaHaIaJaKaLaMaNaO",
"aPaQaRaSaTaUaVaWaXaYaZa0a1a2a3a4",
"a5a6a7a8a9b.b#babbbcbdbebfbgbhbi",
"bjbkblbmbnbobpbqbrbsbtbubvbwbxby",
"bzbAbBbCbDbEbFbGbHbIbJbKbLbMbNbO",
"bPbQbRbCbSbTbUbVbWbXbYbZb0b1b2b3"};
