/* XPM */
static const char *sta_xpm[]={
"32 32 920 2",
"h9 c #000009",
"cd c #00000a",
"hk c #00000c",
"gr c #000207",
"da c #000305",
"iv c #000308",
"al c #000400",
"gw c #000587",
"aQ c #000700",
"hs c #00075d",
"cc c #000800",
"gx c #000985",
"cH c #000d0b",
"gn c #000e6d",
"gl c #00169d",
"eL c #01106b",
"eo c #020010",
"fJ c #02068c",
"ce c #030013",
"d9 c #030785",
"ho c #030859",
"gk c #03179e",
"eT c #040000",
"eQ c #040015",
"d0 c #04090c",
"gU c #041119",
"i2 c #050001",
"dC c #050d10",
"gy c #051680",
"bN c #060c00",
"go c #061558",
"jg c #070000",
"dk c #070663",
"er c #08050e",
"ch c #080c53",
"d8 c #080e88",
"bi c #080f07",
"gu c #08107b",
"eM c #081271",
"gz c #081564",
"hr c #081679",
"bQ c #09000a",
"hJ c #090212",
"e0 c #090c6d",
"gt c #090e69",
"di c #09117e",
"hp c #09126f",
"jM c #0a0000",
"eO c #0a0650",
"fw c #0a0699",
"d6 c #0a088d",
"dh c #0a1281",
"fd c #0b0000",
"gi c #0b106e",
"gj c #0b1791",
"ck c #0c1759",
"fG c #0d0880",
"e. c #0d0c72",
"fI c #0d1199",
"eK c #0d196b",
"jx c #0e0000",
"hc c #0e0a69",
"fK c #0e1089",
"eX c #0e1388",
"eY c #0e158a",
"cj c #0e195b",
"hq c #0e1b81",
"b0 c #0f0000",
"bz c #0f0004",
"cm c #0f0f4f",
"hg c #0f135d",
"eJ c #0f1456",
"gm c #0f2499",
"hz c #100006",
"eR c #10050b",
"de c #100b69",
"cs c #110000",
"g8 c #110005",
"eS c #110900",
"fv c #11099c",
"eV c #110b77",
"eW c #111088",
"fL c #11126e",
"gv c #111d95",
"cY c #120000",
"dg c #12148d",
"eZ c #121691",
"f2 c #13020a",
"hd c #13167f",
"d7 c #131995",
"iM c #140002",
"fx c #140e94",
"fH c #141297",
"gG c #150002",
"df c #151285",
"dj c #15188b",
"gd c #160000",
"cl c #161968",
"fC c #170006",
"hW c #17000c",
"fy c #170d7e",
"hh c #17184e",
"ci c #171f6a",
"kt c #180000",
"fu c #18098a",
"ko c #190000",
"ig c #190006",
"he c #192088",
"hb c #1a0e5a",
"fQ c #1b0000",
"ky c #1c0000",
"fF c #1c1273",
"km c #1d0000",
"eN c #1d2379",
"kx c #1e0000",
"eU c #1e1564",
"d5 c #1e1894",
"hf c #1e2580",
"kq c #1f0000",
"kp c #200000",
"cg c #202255",
"kn c #210000",
"d4 c #211778",
"kC c #220000",
"fz c #221366",
"kw c #230000",
"eI c #23204f",
"kA c #240000",
"ft c #240b70",
"ht c #242c6d",
"kv c #260000",
"kk c #270000",
"g7 c #2a1713",
"kl c #2b0000",
"kg c #2b0002",
"kr c #2c0000",
"ks c #2c0605",
"kB c #2d0000",
"hy c #2d1719",
"by c #2d1a14",
"hn c #2d2e6e",
"ku c #2e0903",
"a4 c #2e1f1c",
"jf c #2f251c",
"jL c #301f17",
"gF c #311d14",
"kj c #330000",
"kz c #340402",
"e4 c #362012",
"eC c #36210e",
"fP c #37170c",
"fo c #371f13",
"cr c #372012",
"az c #372030",
"dP c #37210a",
"ed c #37210c",
"#4 c #38242f",
"gI c #391a00",
"hV c #391c21",
"cX c #391f0e",
"dn c #39200a",
"bZ c #39221a",
"a3 c #392524",
"gc c #3a1c11",
"jO c #3d0000",
"j1 c #3d1112",
"dp c #3e1428",
"jU c #3e150f",
"j2 c #3e1617",
"j8 c #3e171a",
"j9 c #3e171c",
"k. c #3f161a",
"ee c #40100e",
"j7 c #401715",
"iL c #402224",
"ka c #41100c",
"j3 c #411514",
"jX c #421210",
"k# c #421617",
"if c #421d25",
"jZ c #431112",
"iP c #440f09",
"jT c #441913",
"j6 c #451610",
"aE c #460007",
"c0 c #461532",
"hY c #46160a",
"gf c #462806",
"j4 c #47150c",
"jV c #471b18",
"jR c #480e0d",
"kf c #481416",
"ii c #48180c",
"fS c #491400",
"j5 c #49150a",
"j0 c #49181b",
"kb c #4b140f",
"jY c #4b191a",
"jS c #4b1a16",
"kd c #4c120e",
"cu c #4d0d2f",
"ke c #4d1514",
"e6 c #4d1b02",
"dQ c #4d1f29",
"h. c #4f1b0d",
"ji c #510b09",
"jW c #512421",
"kc c #521912",
"eE c #522313",
"bB c #540f24",
"fq c #541800",
"iO c #541911",
"hB c #541b10",
"jQ c #551013",
"jj c #551513",
"jP c #5a0d13",
"b2 c #5b1635",
"a7 c #5c1523",
"db c #6a7480",
"bG c #6e3025",
"iw c #6e7379",
"it c #727378",
"#I c #727773",
"io c #737895",
"hK c #746e7c",
"cI c #757985",
"ir c #757b8b",
"#Q c #767676",
"d1 c #767a7b",
"gs c #767f7c",
"gV c #778586",
"hl c #787683",
"iq c #787e94",
"ip c #787f9b",
"#O c #7a6a75",
"iC c #7a759d",
"aR c #7b6d6a",
"gC c #7b746c",
"#Z c #7e8476",
"#Y c #7e8573",
"iy c #7f7377",
"iD c #7f7aa3",
"ix c #807f85",
"#0 c #80808a",
"#H c #80817b",
"#X c #80837c",
"iF c #817790",
"#P c #817a81",
"in c #81819b",
"jD c #818284",
"dD c #818b94",
"im c #82798e",
"#W c #82817c",
"jC c #828282",
"c# c #832a18",
"jo c #836b69",
"hv c #837977",
"iE c #837da1",
"jE c #838182",
"#1 c #847e8a",
"iI c #856a61",
"jJ c #85705d",
"ay c #85717c",
"g4 c #85807c",
"#T c #858176",
"jB c #85827d",
"jF c #86817d",
"du c #873e47",
"#U c #87826e",
"#V c #87826f",
"is c #878995",
"js c #886a68",
"#J c #88878c",
"jv c #896f70",
"jp c #89716f",
"iz c #897983",
"iG c #897984",
"e1 c #897c83",
"eA c #897c85",
"#3 c #897d71",
"jA c #898176",
"fD c #8a716c",
"jG c #8a7e72",
"#G c #8a817a",
"iB c #8a81a0",
"ea c #8b7b85",
"#K c #8b7b88",
"fl c #8b7c7f",
"je c #8b7f71",
"bj c #8b8180",
"iK c #8c6d6a",
"bv c #8c7682",
"dM c #8c7b85",
"g# c #8c7d76",
"gg c #8d7362",
"jq c #8d7372",
"jI c #8d7865",
"hS c #8d7978",
"fe c #8d7d70",
"iA c #8d7f96",
"jz c #8d806d",
"cU c #8e7a85",
"bb c #8f323d",
"hU c #8f7372",
"bY c #8f7872",
"co c #8f7985",
"fO c #907562",
"il c #907a86",
"jy c #907f6f",
"iu c #909196",
"e3 c #917e6d",
"jK c #917e70",
"f3 c #917f7f",
"am c #918682",
"dy c #921c32",
"ie c #926e6e",
"#M c #927287",
"fM c #92807c",
"ec c #937e69",
"eB c #937e6b",
"fn c #937e6d",
"jm c #947271",
"#F c #947b76",
"cq c #947c70",
"dm c #947d6b",
"cW c #947d6d",
"dO c #947e69",
"gE c #948373",
"#2 c #948c81",
"dv c #952438",
"jr c #957976",
"iH c #95807f",
"hx c #95827c",
"gJ c #967c6f",
"g6 c #96857b",
"jH c #968676",
"bc c #972034",
"b3 c #976477",
"ef c #976f6f",
"ju c #977b7a",
"bW c #97818d",
"i. c #979ba6",
"dR c #98737b",
"#N c #997c90",
"jw c #998385",
"c1 c #9a7388",
"ik c #9a7879",
"bx c #9a8582",
"#S c #9a9792",
"c. c #9b2a1a",
"h# c #9b6e6b",
"gb c #9b806f",
"eF c #9c746a",
"#L c #9c8194",
"jn c #9c8281",
"hC c #9d6a69",
"ij c #9d726b",
"dq c #9d7889",
"e7 c #9e7061",
"iQ c #9e7271",
"jt c #9e807e",
"bd c #9f253a",
"fT c #9f6f61",
"cB c #a12e1b",
"a1 c #a18b97",
"a# c #a27977",
"lx c #a2b7ae",
"lz c #a2c1b9",
"a8 c #a36e74",
"bK c #a42d33",
"aF c #a47072",
"l3 c #a4afb1",
"cC c #a5301f",
"bC c #a56f7c",
"cv c #a5758b",
"hZ c #a57a74",
"kU c #a5a394",
"h8 c #a5a9b5",
"ic c #a68886",
"aP c #a6baae",
"bJ c #a91724",
"jk c #a97170",
"#m c #a9aeaa",
".d c #a9b6ad",
"c6 c #aa0f15",
"c5 c #aa2a2b",
"fr c #aa7468",
"lF c #aab5ad",
"dx c #ab223c",
"jl c #ac807f",
"lk c #acb9a8",
"#b c #aeada9",
"lv c #aeb8af",
"gT c #aebdd0",
"mg c #afb4ad",
"lG c #afb9b1",
"lA c #b2a6be",
".l c #b2b6b9",
"lP c #b2b8ae",
"mv c #b2b9c1",
"ak c #b2c3bb",
"l. c #b3acb4",
"#C c #b3b5b0",
"lt c #b3bbb0",
"ld c #b4c1b0",
"lp c #b4c8bc",
"aD c #b5adba",
"kM c #b5afa1",
"#D c #b5b9ba",
"l9 c #b5bfbe",
"#z c #b6a6b1",
"k1 c #b6b4a7",
".T c #b6bfbe",
"i8 c #b6c2ce",
"i9 c #b6c2d0",
"lq c #b6c8bc",
"l6 c #b7afc6",
".7 c #b7b8a8",
".G c #b7b9b4",
"lD c #b7bcbf",
".9 c #b7c1b9",
"lr c #b7c7ba",
".e c #b7c7bc",
"dB c #b8adb1",
".Q c #b8b2b6",
"hj c #b8b6ce",
"ma c #b8b9bb",
"lj c #b8beb4",
"Qt c #b8c1be",
"j. c #b8c2cc",
".S c #b8c4c4",
"lK c #b9adb9",
"lM c #b9b4b8",
"l1 c #b9b7bc",
".a c #b9bfbb",
".n c #b9c3c5",
".f c #b9c6bc",
"lI c #bab8bb",
"l7 c #bab9c7",
"#R c #babcb7",
".I c #bac0bc",
"i7 c #bac1c7",
".N c #bbb0b4",
".C c #bbc3b6",
"lo c #bbc5bc",
"k7 c #bbc6be",
"lb c #bbc7b9",
"dw c #bc364f",
"ja c #bcbbb6",
"j# c #bcc1c5",
"kZ c #bcc2b6",
"m. c #bcc7c3",
"k8 c #bcc9c2",
"mt c #bdbac3",
"mf c #bdbdbb",
".F c #bdbfba",
"gq c #bdc8dc",
".D c #bdc9bf",
".m c #bdcbce",
"ly c #bdd8d1",
"#w c #beb4aa",
"bP c #beb9bd",
"i3 c #bebab7",
"#8 c #bebcbd",
"kK c #bebdab",
"#t c #bec1b6",
"#s c #bec2b3",
"kY c #bec2b4",
"lm c #bec4b8",
"ln c #bec4ba",
".c c #bec9c1",
"i0 c #bfb3b3",
"li c #bfbbba",
".h c #bfbeba",
".L c #bfbfbd",
"k0 c #bfc1b4",
"i6 c #bfc1be",
"lV c #bfc1c0",
".B c #bfc2af",
".g c #bfc4be",
".J c #bfc5c1",
".b c #bfc8c3",
".# c #bfc8c5",
"lc c #bfcdbc",
"#7 c #c0b9b1",
"jh c #c0babc",
"#u c #c0bdc8",
"lC c #c0bec9",
"#r c #c0bfbd",
"k5 c #c0c0b6",
"lW c #c0c0c0",
"lU c #c0c0c2",
".Y c #c0c1b9",
".Z c #c0c1bb",
"#n c #c0c3bc",
"lE c #c0cbc5",
"a2 c #c1a9b7",
"f1 c #c1b3cc",
"k4 c #c1bab0",
".0 c #c1bdcc",
"eq c #c1beb7",
"lX c #c1bfc0",
"lg c #c1c0bc",
"i5 c #c1c1b5",
".t c #c1c2bd",
".K c #c1c6c2",
".j c #c2b7bb",
"kX c #c2c0b3",
".s c #c2c1bc",
"#l c #c2c2c2",
".E c #c2c3be",
"lu c #c2c7c0",
"la c #c2c7c1",
"lH c #c2c7c3",
"l8 c #c2c7cd",
"lw c #c2d2c8",
"cG c #c2d3c3",
".4 c #c3b2bc",
"#e c #c3b3bd",
"md c #c3b7c5",
"#v c #c3bbc8",
"iW c #c3bcc3",
"kJ c #c3bdaf",
"#q c #c3bdbd",
".M c #c3bdbf",
"lT c #c3bec2",
".X c #c3bec5",
"dZ c #c3c2ca",
"l# c #c3c3c3",
"ls c #c3cdc2",
"l4 c #c3d2d5",
"gD c #c4b9a7",
"kR c #c4b9b3",
"k3 c #c4bcb1",
".1 c #c4bccb",
"kS c #c4bdb3",
"lJ c #c4bdc4",
".u c #c4bdcf",
"i4 c #c4c0b4",
".H c #c4c9c3",
"iS c #c5b0b7",
"mr c #c5b5c0",
"jc c #c5baa8",
".w c #c5bab4",
"kN c #c5bbb1",
".v c #c5bccd",
".r c #c5bdca",
"mn c #c5bec5",
"kW c #c5bfaf",
"#o c #c5bfb3",
"iV c #c5c0c7",
"hI c #c5c0d6",
"bh c #c5cbbf",
".8 c #c5cbc1",
"jN c #c6baba",
"ms c #c6bac6",
"#p c #c6bdb4",
"#A c #c6bdb6",
"lS c #c6bdc2",
".U c #c6bebc",
"kV c #c6bfaf",
"lO c #c6cec3",
"m# c #c6cfcc",
"kO c #c7b8b3",
"a5 c #c7bac3",
".W c #c7bbc7",
"## c #c7bcb6",
"iT c #c7bcc4",
"lQ c #c7bdbe",
"mm c #c7bdc5",
".o c #c7bec3",
"mh c #c7c8c2",
"l2 c #c7cacf",
"kH c #c8b4b3",
"aA c #c8b8b8",
"lR c #c8bbc2",
".q c #c8bbcd",
"iY c #c8bcbe",
"a6 c #c8bcca",
"mo c #c8bdc3",
"lY c #c8bfc2",
"l0 c #c8bfc4",
"iU c #c8c0cb",
".k c #c8c3c9",
"k6 c #c8cec4",
"hA c #c9b2c6",
"kP c #c9b7b5",
".y c #c9b7c3",
".z c #c9bcc5",
"ml c #c9bcc6",
"iZ c #c9bdbd",
".2 c #c9bfb6",
"jb c #c9c3b5",
"#d c #c9c3c7",
"#c c #c9c8c6",
"lN c #c9cac5",
"mq c #cab6c2",
"#j c #cab9c3",
".V c #cabbbe",
"kI c #cabdb5",
".P c #cabdc4",
"#6 c #cabfbb",
"mb c #cac0cb",
"me c #cac3ca",
".R c #cacbcf",
"mu c #cacdd6",
"#f c #cbb3c1",
"e2 c #cbb9b7",
"#5 c #cbb9c5",
"aB c #cbc0bc",
"le c #cbd3c6",
"#E c #ccaba6",
"eb c #ccb8b7",
"fm c #ccb9b3",
"mk c #ccbac6",
"mi c #ccbbc3",
".p c #ccbbc5",
".O c #ccbdc4",
".3 c #ccbfb6",
"lL c #ccc2cb",
"g5 c #ccc3b4",
".6 c #ccc5bb",
"lf c #cccdc7",
"hT c #cdb6b0",
"b1 c #cdb7c3",
"dN c #cdb8b7",
"mc c #cdbfd0",
"#. c #cdc0ba",
".A c #cdc6bc",
"lh c #cdc7c9",
"gN c #cde3ff",
"kE c #cea9b0",
"bw c #ceb4c1",
"e5 c #ceb6c6",
"aC c #cec4cc",
"l5 c #cec4df",
"kL c #cecbba",
"ge c #cfaeb5",
"#h c #cfb0c2",
"bX c #cfb5be",
"dl c #cfb6b9",
"cV c #cfb6ba",
"cp c #cfb6bc",
"g9 c #cfbbc7",
"hw c #cfbeb6",
"fc c #cfbede",
"hX c #d0b3c9",
"eD c #d0b6c1",
"ct c #d0b7bd",
"fB c #d0b7d5",
"mj c #d0b8c6",
"gH c #d0b9c3",
".i c #d0c7ca",
"k2 c #d0cabe",
"d# c #d0cdc8",
"kT c #d0cec2",
"#9 c #d0cfd5",
"gP c #d0e9ff",
"kD c #d1aaaf",
"kF c #d1b2ba",
"fp c #d1b4c6",
"do c #d1b7b8",
"cZ c #d1b7ba",
"mp c #d1bdc8",
"kQ c #d1c2bf",
"iN c #d2b6c5",
".5 c #d2c2cd",
"jd c #d2c5b2",
"#x c #d2c6ba",
"i1 c #d2c8c9",
"iX c #d2c9cc",
"ll c #d2dfce",
"ih c #d3b0c6",
"fN c #d3bcac",
"ga c #d3beab",
"bA c #d3c1cf",
"#B c #d3d1c5",
"#y c #d4c3cd",
".x c #d4c7be",
"#k c #d4ced2",
"#g c #d5b6c8",
"#i c #d5bdcb",
"iR c #d6b6b9",
"k9 c #d6cad8",
"lZ c #d6cbd1",
"#a c #d7d4cd",
"kG c #dabfc4",
"lB c #dad3e5",
"iJ c #dfc1b7",
"f6 c #dfe2ff",
"fR c #e0bcc6",
"gZ c #e0eeff",
"gO c #e0f9ff",
"dI c #e2e8ff",
"id c #e4c1bd",
"hF c #e4e5ff",
"ex c #e4e8ff",
"g0 c #e4f8ff",
"kh c #e6b8c2",
"e9 c #e6f0ff",
"gQ c #e6fcff",
"hR c #e7e7ff",
"cQ c #e7ebff",
"fj c #e7ecff",
"f. c #e7f6ff",
"g1 c #e7faff",
"g2 c #e8f6ff",
"dG c #e9e4ff",
"fZ c #e9e5ff",
"fh c #e9e8ff",
"cO c #e9f2ff",
"gM c #e9f7ff",
"f4 c #eae5ff",
"eh c #eae7ff",
"hG c #eaeaff",
"f7 c #eaf1ff",
"f8 c #eaf2ff",
"f# c #eaf5ff",
"ac c #eafff7",
"fX c #ebe6ff",
"aJ c #ebf2ea",
"gR c #ebfeff",
"ki c #eca6b1",
"ev c #ecebff",
"fi c #ecf1ff",
"ew c #ecf2ff",
"bO c #ecf7ef",
"gS c #ecfcff",
"hu c #edefff",
"cN c #edf2ff",
"dJ c #edf3ff",
"f9 c #edf4ff",
"gY c #edf7ff",
"ad c #edfffe",
"gK c #eee7ff",
"h1 c #eeefff",
"cP c #eef7ff",
"gp c #eefbff",
"hH c #eff0ff",
"g. c #eff3ff",
"f0 c #f0e8ff",
"fY c #f0edff",
"dH c #f0f0ff",
"dK c #f0f1ff",
"fa c #f0f5ff",
"ep c #f1f0f5",
"hP c #f1f6ff",
"gL c #f1f7ff",
"gX c #f1f8ff",
"bq c #f1feff",
"bp c #f1ffff",
"dF c #f2eaff",
"eu c #f2edff",
"f5 c #f2f1ff",
"d2 c #f2f3ff",
"ey c #f2f4ff",
"fk c #f2f5ff",
"hO c #f2f7ff",
"h6 c #f2f8ff",
"gA c #f2f9ff",
"h3 c #f2fcff",
"bo c #f2fdff",
"aj c #f2ffff",
"fW c #f3e8ff",
"i# c #f3e9ff",
"hm c #f3f2ff",
"aO c #f3fff9",
"ff c #f4ebff",
"ek c #f4f0ff",
"cM c #f4f4ff",
"h2 c #f4fbff",
"h4 c #f4fcff",
"aI c #f4fff8",
"es c #f5ecff",
"cL c #f5f3ff",
"hN c #f5f7ff",
"hQ c #f5f8ff",
"br c #f5f9ff",
"bT c #f5faff",
"bn c #f5fcff",
"h5 c #f5fdff",
"gW c #f5ffff",
"hM c #f6eeff",
"dc c #f6fbff",
"fg c #f7f1ff",
"cK c #f7f4ff",
"hE c #f7f5ff",
"cR c #f7f6ff",
"bS c #f7fcff",
"dE c #f7feff",
"as c #f7fff1",
"at c #f7fff6",
"ab c #f7fff8",
"aW c #f7fffb",
"ai c #f7ffff",
"aw c #f8f1e7",
"cf c #f8f6ff",
"aV c #f8ffff",
"b. c #f9efe5",
"ia c #f9f0ff",
"fb c #f9f4ff",
"dd c #f9f6ff",
"bs c #f9f8ff",
"ej c #f9f9ff",
"ei c #f9fbff",
"bm c #f9fdfc",
"aX c #f9feff",
"ar c #f9fff8",
"a. c #fabfc1",
"fV c #faddff",
"au c #fafcff",
"fA c #fbe6ff",
"et c #fbf2ff",
"em c #fbf3ff",
"ah c #fbf5ff",
"bU c #fbf9ff",
"e# c #fbfaff",
"hi c #fbfbff",
"h7 c #fbfeff",
"aH c #fbfff4",
"ae c #fbffff",
"ib c #fce2eb",
"d3 c #fcf3ff",
"hD c #fcf4ff",
"bt c #fcf6f8",
"af c #fcf6ff",
"dL c #fcf9ff",
"g3 c #fcfeff",
"aq c #fcfff6",
"e8 c #fdf2ff",
"hL c #fdf3ff",
"ez c #fdfaff",
"bl c #fdfdf5",
"aa c #fef5ec",
"el c #fef5ff",
"cF c #fef6df",
"gh c #fef7ff",
"en c #fef8ff",
"av c #fefaff",
"cJ c #fefbff",
"aY c #fefcff",
"gB c #fefdff",
"ap c #feffe8",
"aU c #feffef",
"c7 c #ffc9d0",
"bI c #ffd1db",
"c8 c #ffd7dc",
"bH c #ffdcdf",
"bf c #ffdfe0",
"b9 c #ffe0cd",
"be c #ffe0ef",
"b8 c #ffe2ce",
"c9 c #ffe2df",
"cD c #ffe3d1",
"c4 c #ffe3dc",
"dU c #ffe4ff",
"eG c #ffe5eb",
"dz c #ffe5f2",
"cA c #ffe6d1",
"aM c #ffe6ed",
"dr c #ffe6ef",
"bL c #ffe7e0",
"dV c #ffe7ff",
"dW c #ffe8ff",
"d. c #ffe9e2",
"dt c #ffeaf0",
"h0 c #ffedf6",
"dX c #ffedff",
"fU c #ffeeff",
"fs c #ffefff",
"ba c #fff1ed",
"fE c #fff1ff",
"an c #fff2e8",
"c3 c #fff2ea",
"dA c #fff2fa",
"aL c #fff2fd",
"ha c #fff2ff",
"dY c #fff3ff",
"bu c #fff4ee",
"eg c #fff4ff",
"cz c #fff5d8",
"cE c #fff5dc",
"bD c #fff5f3",
"bk c #fff5f5",
"ds c #fff5f9",
"dS c #fff5ff",
"b6 c #fff6db",
"a0 c #fff6ee",
"eP c #fff6ff",
"b7 c #fff7da",
"ca c #fff7dd",
"c2 c #fff7fd",
"eH c #fff7ff",
"bF c #fff8ea",
"bg c #fff8f1",
"a9 c #fff8f4",
"b4 c #fff8f8",
"cn c #fff8fc",
"aK c #fff8fd",
"cT c #fff8ff",
"ax c #fff9f0",
"dT c #fff9ff",
"bM c #fffaed",
"b# c #fffaef",
"aS c #fffaf3",
"cw c #fffafb",
"cS c #fffaff",
"ag c #fffbff",
"bE c #fffcf1",
"aG c #fffcf3",
"bV c #fffcfa",
"cy c #fffde4",
"cx c #fffdef",
"bR c #fffdff",
"aZ c #fffef8",
"ao c #ffffe6",
"cb c #ffffe8",
"aT c #ffffec",
"b5 c #ffffef",
"aN c #fffffd",
"Qt.#.a.b.c.d.e.f.g.h.i.j.k.l.m.n.o.p.q.r.s.t.u.v.w.x.y.z.A.B.C.D",
".E.F.G.H.I.J.K.L.M.N.O.P.Q.R.S.T.U.V.W.X.Y.Z.0.1.2.3.4.5.6.7.8.9",
"#.###a#b#c#d#e#f#g#h#i#j#k#l#m#n#o#p#q#r#s#t#u#v#w#x#y#z#A#B#C#D",
"#E#F#G#H#I#J#K#L#M#N#O#P#Q#R#S#T#U#V#W#X#Y#Z#0#1#2#3#4#5#6#7#8#9",
"a.a#aaabacadaeafagahaiajakalamanaoapaqarasatauavawaxayazaAaBaCaD",
"aEaFaGaHaIaJaKaLaLaMaNaOaPaQaRaSaTaUaeaVaWaiaXaYaZa0a1a2a3a4a5a6",
"a7a8a9b.b#babbbcbdbebfbgbhbibjbkblbmbnbobpbqbrbsbtbubvbwbxbybzbA",
"bBbCbDbEbFbGbHbIbJbKbLbMbNbObPbQbRaXbSbobpbpbTbUagbVbWbXbYbZb0b1",
"b2b3b4b5b6b7b8b9c.c#cacbccaQcdcecfcgchcicjckclcmagcncocpcqcrcsct",
"cucvcwcxcyczcAcBcCcDcEcFcGcHcIcJcKcLcMcNcOcPcQcRcScTcUcVcWcXcYcZ",
"c0c1c2a9c3c4c5c6c7c8c9d.d#dadbdcdddedfdgdhdidjdkavcTcUdldmdncYdo",
"dpdqdrdsdtdudvdwdxdydzdAdBdCdDdEahdFdGdHdIdJdKcMdLcTdMdNdOdPcYcZ",
"dQdRc2dSdTdSdUdVdWdXdYcTdZd0d1d2d3d4d5d6d7d8d9e.e#dTeaebecedcYct",
"eeefc2egeheiejekelemenaveoepeqereseteuevewdJexeyeiezeAebeBeCcseD",
"eEeFeGeHeIeJeKeLeMeNeOePeQeReSeTcTeUeVeWeXeYeZe0eieze1e2e3e4cse5",
"e6e7aLdYe8dHe9f.f#fafbegfcfdfebVePfffgfhfidJfjfkeidTflfmfnfocYfp",
"fqfrfsdXftfufvfwfxfyfzfAfBfCfDeHfEfFfGfHfIfJfKfLddegfMfNfOfPfQfR",
"fSfTfUfVdXfWfXfYfZfgf0ePf1f2f3cTelf4f5f6f7f8f9g.bUcSg#gagbgcgdge",
"gfggcTghgigjgkglgmgngogpgqgrgsdEbrgtgugvgwgxgygzgAgBgCgDgEgFgGgH",
"gIgJfEgKgLgMgNgOgPgQgRgSgTgUgVgWf9gXgYgZg0g0g1g2gAg3g4g5g6g7g8g9",
"h.h#hadXhbhchdhehfhghhhihjhkhlaYhmhnhohphqhrhshthuaghvhwhxhyhzhA",
"hBhCdXfEfshDhEhFhGhHdLcShIhJhKaghLhMcLhNhOhPhQhRdTeHhShThUhVhWhX",
"hYhZh0dYcTh1h2h3h4h5h6h7h8h9i.e#cTePePi#iaafesePeHibicidieifigih",
"iiijikiliminioipiqirisitiuiviwixiyiziAiBiCiDiEiFiGiHiIiJiKiLiMiN",
"iOiPiQiRiSiTiUiViWiXiYiZi0i1i2i3i4i5i6i7i8i9j.j#jajbjcjdjejfjgjh",
"jijjjkjljmjnjojpjqjrjsjtjujvjwjxjyjzjAjBjCjDjEjFjGjHjIjJjKjLjMjN",
"jOjPjQjRjSjTjUjVjWjXjYjZj0j1j2j3j4j5j6j7j8j9k.k#kakbkckdkekfkgkh",
"kikjkkklkmknkokmkpkqkpkrkmksktkukvkkkwkqkxkykxkpkzkAkvkBkCknkDkE",
"kFkGkHkIkJkKkLkMkNkOkPkQkRkSkTkUkVkWkXkYkZ.CkZk0k1k2k3k4k5k6k7k8",
"k9l.l#lalblcldlelflglhli.Eljlklllmlnlo.elplplqlrlsltlulvlwlxlylz",
"lAlBlClDlElFlGlHlIlJlKlLlMlNlOlPlQlRlSlTlUlVlWlXlY.NlZl0l1l2l3l4",
"l5l6l7l8l9m.m#ma.Xmbmcmdmemfmgmhmimjmkmlmmmn.omo#jmpmqmrmsmtmumv"};
