/* XPM */
static const char *stastopflash_xpm[]={
"16 16 247 2",
"a3 c #00000b",
".H c #000100",
".Q c #000200",
".q c #000300",
".B c #000400",
"#R c #010000",
"aE c #030009",
"#i c #030200",
"#b c #030300",
".N c #030600",
".K c #040001",
"ba c #040015",
"aN c #04001d",
"#c c #040400",
"#h c #040900",
".2 c #040d00",
"#E c #050017",
".Z c #050500",
"#4 c #060000",
".M c #060700",
"#X c #070000",
"ag c #070600",
"aK c #070a00",
"au c #071000",
"#y c #080600",
"#O c #090300",
"#F c #09030f",
"bE c #09060d",
".L c #090700",
"#Q c #0a0025",
"#H c #0a0400",
"#r c #0a0800",
"aS c #0b0a0f",
"aH c #0c0011",
".3 c #0c0f00",
"#Y c #0d0700",
"av c #0e0a00",
"aZ c #111200",
"bo c #120a1f",
"#3 c #121400",
"aW c #140723",
"ar c #190d17",
"#M c #7d8f00",
"as c #827e51",
"bq c #82806b",
"ad c #86863e",
"#1 c #879800",
"aI c #8a8373",
"bc c #8b8867",
"aY c #8d8c56",
"#0 c #979b3a",
"#J c #98985c",
"a7 c #adb0a7",
"bv c #adb0b5",
"bD c #b0adb8",
"#. c #b0aebc",
"#l c #b0afb5",
"bt c #b0b2b1",
".5 c #b3b3b1",
"bR c #b3b5a8",
"bJ c #b3b8b2",
"ay c #b4abca",
".T c #b4b9bd",
".n c #b4bcbe",
"#A c #b5afcb",
"bA c #b5b5bd",
".s c #b5b6b0",
"bZ c #b5b7cc",
"bL c #b5b9d2",
"aD c #b6b4b9",
".F c #b6bcb0",
".l c #b6c0a7",
".u c #b7b1cb",
".c c #b7b7b5",
".v c #b8b2cc",
"#n c #b8b4cf",
"#p c #b8b5c0",
".z c #b8b8ba",
"aa c #b9b2b9",
"bp c #b9b3bf",
"an c #b9b7ba",
"bs c #b9b8c0",
".Y c #b9baa8",
".j c #b9babf",
".E c #b9c0b0",
"bY c #b9c0b9",
".D c #b9c1c3",
".# c #b9c7a6",
"Qt c #b9c89d",
"aV c #bab1c6",
"a0 c #bab5af",
"aO c #babca6",
"bz c #babdc6",
"a5 c #bac1a0",
"bx c #bac2b7",
".e c #bbb3dc",
"#D c #bbb4d3",
"#G c #bbb6b3",
"a9 c #bbb9c4",
"bG c #bbbab6",
".x c #bbbbb3",
".X c #bbbbb9",
"aB c #bbbcb4",
"bF c #bbbda7",
"bW c #bbbdb8",
"bj c #bbc0b9",
".p c #bbc5ac",
"bM c #bbc5bc",
"#k c #bcb9cc",
"bl c #bcbcc6",
".4 c #bcbdaf",
".6 c #bcbdc2",
".a c #bcc1bb",
"aq c #bdb2c0",
"bd c #bdb9b8",
".y c #bdbbc0",
"aC c #bdbcb8",
"bT c #bdbeae",
"a8 c #bdbec2",
".S c #bdc1c2",
"al c #bdc397",
"by c #bdc3bf",
"b# c #beb8c6",
"#7 c #bebbb2",
".9 c #bebbcc",
"bn c #bebcc1",
"bm c #bebebe",
".W c #bebfc3",
"bP c #bec1c8",
"b0 c #bec1e4",
".k c #bec3af",
".R c #bec3bc",
"#P c #bfb4d4",
"aM c #bfb6cb",
"a2 c #bfb9d3",
"a. c #bfbcc7",
"bV c #bfc0ba",
"#S c #bfc1ac",
"aQ c #bfc1b4",
"#m c #bfc1c0",
"bO c #bfc1cd",
".b c #bfc3c4",
"aP c #bfc69a",
"bN c #bfc8c5",
".o c #bfcaa8",
"aX c #c0b7ba",
"a# c #c0b9c1",
"#q c #c0bcb9",
"## c #c0bfc7",
"#C c #c0c1b9",
"#8 c #c0c4a3",
"bi c #c0c6b8",
"aw c #c1b6c6",
"#U c #c1bcd0",
".h c #c1bec9",
"az c #c1c3ad",
"bh c #c1c3be",
".G c #c1c5c6",
"ah c #c2b9be",
"aU c #c2bbcb",
".w c #c2bebd",
"bQ c #c2c4b7",
"bw c #c2c7cd",
".g c #c3bed4",
".O c #c3c4b2",
"bX c #c3c7b9",
".C c #c3c9c5",
"#5 c #c4b5de",
"aF c #c4bbcc",
"a1 c #c4bcd1",
"#9 c #c4c0ce",
".t c #c4c2c5",
"bf c #c4c2cf",
".J c #c4c5b7",
".V c #c4c5c7",
"aA c #c4ca9a",
"ai c #c5b5e2",
"aj c #c5bbde",
"#V c #c5bdc8",
"#z c #c5bdd2",
"#T c #c5c0d7",
".8 c #c5c8cd",
"bI c #c6c9c0",
"ak c #c7c6b4",
"bU c #c7c9b4",
".f c #c8bfea",
"#W c #c8c2c4",
"b. c #c8c5ce",
"bH c #c8c8c8",
"bg c #c8c9cd",
".m c #c8cfc8",
"#6 c #c9bee6",
".i c #c9c6d7",
"am c #c9c7ca",
"a6 c #c9cdbe",
".d c #cac9d1",
".r c #cacbcd",
".I c #caccbe",
"bK c #cacdde",
"aL c #cbc6b3",
"bS c #cbc8cf",
"aT c #cbc8d3",
"bB c #cbccc4",
".U c #cbccce",
".7 c #cbccd1",
".A c #cbcfc0",
"bu c #cbcfce",
"br c #cccbc9",
"aG c #cdc1d5",
"ab c #cdc2c8",
"bb c #cdc5d0",
"#B c #cdcbd0",
"aR c #cdcec6",
".P c #cdcec8",
"ap c #cec7cf",
"be c #cecad9",
"bk c #ced1d8",
"bC c #d0d0c8",
"ao c #d1ccd2",
"a4 c #d2d5c4",
"#j c #d3d0d9",
"#o c #d5d0e6",
"#a c #d8d7d3",
"ax c #dacdf8",
"#K c #dbe173",
".1 c #dce288",
"aJ c #e2e594",
"#L c #e4f640",
"#w c #e8f955",
"#N c #e9ed99",
"ae c #e9f561",
"#2 c #e9f951",
"#u c #ecf389",
"#f c #ecf96d",
"af c #edf969",
"#x c #eef3a1",
"#g c #eefc75",
"at c #f1f884",
"#v c #f2ff5a",
".0 c #fafccd",
"#Z c #fbf7c8",
"#I c #fbf7d2",
"#e c #ffffb5",
"#t c #ffffc8",
"#d c #ffffd3",
"#s c #ffffda",
"ac c #ffffe8",
"Qt.#.a.b.c.d.e.f.g.h.i.j.k.l.m.n",
".o.p.q.r.s.t.u.v.w.x.y.z.A.B.C.D",
".E.F.G.H.I.J.K.L.M.N.O.P.Q.R.S.T",
".U.V.W.X.Y.Z.L.0.1.2.3.4.5.6.7.8",
".9#.###a#b#c#d#e#f#g#h#i#j#k#l#m",
"#n#o#p#q#r#s#t#u#v#w#x#y#z#A#B#C",
"#D#E#F#G#H#I#J#K#L#M#N#O#P#Q#R#S",
"#T#U#V#W#X#Y#Z#0#1#2#3#4#5#6#7#8",
"#9a.a#aaab#Xacadaeafagahaiajakal",
"amanaoapaqar#XasatauavawaxayazaA",
"aBaCaDaEaFaGaHaIaJaKaLaMaN.gaOaP",
"aQaRaSaTaUaVaWaXaYaZa0a1a2a3a4a5",
"a6a7a8a9b.b#babbbc#cbdbebfbgbh.F",
"bibjbkblbmbnbobpbq.Zbrbsbtbubvbw",
"bxbybzbAbBbCbDbE#ibFbGbHbIbJbKbL",
"bMbNbObPbQbRbSbnbTbUbVbWbXbYbZb0"};
