/* XPM */
static const char *wfbs_xpm[]={
"16 16 244 2",
"as c #000000",
"aF c #000002",
"#W c #000004",
"a# c #000005",
"#S c #000007",
"#z c #000100",
"bV c #000302",
"#D c #000304",
"#t c #000400",
"#i c #000500",
"#h c #000800",
"#n c #000801",
"#Z c #000a04",
"bH c #000b08",
"#J c #000e05",
"#v c #001004",
"a9 c #010002",
"aU c #010004",
"#f c #010800",
"## c #021303",
"aV c #030002",
"#U c #030005",
"aR c #030007",
"#7 c #030009",
"bU c #030406",
"bt c #030e0a",
"at c #040000",
"an c #040007",
"#s c #060000",
"al c #06000b",
"a8 c #06050a",
"#4 c #070000",
"ba c #070002",
"#9 c #07000a",
"ap c #07060c",
"aJ c #080000",
"#p c #090000",
"aM c #0a0000",
"aw c #0b0000",
"#F c #0d070b",
"#H c #0d090a",
".1 c #0e0000",
"au c #0e0403",
"a2 c #0e0604",
"aE c #0e0d12",
"af c #0e0f0a",
"#c c #120000",
"ai c #120202",
"aA c #130816",
"aK c #150909",
"aI c #150f0f",
"aW c #181216",
".W c #191307",
"#P c #1a1511",
"aB c #1b131e",
".I c #210000",
".L c #230000",
".J c #240000",
".T c #245535",
".U c #30573a",
".E c #336740",
".F c #365e3b",
".K c #41080e",
"#N c #646e66",
"bs c #6a7370",
"aC c #6c6670",
"#x c #6c7d73",
"#u c #6e7e74",
"bG c #707978",
".t c #713132",
"aD c #76737a",
".e c #7d3036",
".u c #7d383d",
"a1 c #7d7374",
".d c #7e383a",
"#I c #7f8a86",
"#V c #807b81",
"#O c #807f7a",
"av c #817373",
"#G c #82797e",
"ah c #837876",
"ao c #857f89",
"be c #858585",
"#q c #867677",
"#e c #86817d",
"aT c #868489",
"#3 c #898480",
"aL c #8a7c7c",
"a. c #8a858c",
"#y c #8c978f",
"#r c #8d7f7f",
"bo c #918589",
"#d c #968281",
"aS c #979299",
".o c #9bd0a2",
"Qt c #a3d9a8",
"#m c #a5c1b5",
".# c #a5cca0",
"bX c #a9c2bc",
".p c #a9cfa6",
"#. c #aacdb7",
".9 c #aad6bd",
"#l c #abcdbf",
"#A c #b0afab",
"bk c #b0b4b5",
"#g c #b0c1b7",
"#B c #b0c6c3",
".V c #b1c0ab",
".4 c #b3c3b8",
"#a c #b4b4ac",
"by c #b4bfbb",
"bI c #b4c9c4",
"bO c #b5c0bc",
".A c #b6b8b3",
".Q c #b6c0b8",
".6 c #b6c1b9",
"bL c #b6c1bb",
"bW c #b6cbc6",
"bM c #b7c4bd",
".G c #b7c5ac",
"aQ c #b8b0bb",
"bi c #b8bcbd",
".R c #b8bfb8",
"bw c #b8c1be",
"#R c #b8c1c6",
"#Q c #b8c3c9",
".5 c #b8c8be",
"#C c #b9ccca",
".O c #babab2",
"#E c #babbbd",
".7 c #bbc0bc",
"bK c #bbc4bf",
".q c #bbc6a8",
"bN c #bbc7c3",
".y c #bcb1ad",
"am c #bcb1bf",
"bg c #bcbabd",
"bJ c #bdc3bf",
".a c #bdc6a7",
"bz c #bdc6c3",
"ax c #beadbd",
".H c #beb2a2",
"#5 c #bebcc9",
"bl c #bebec0",
"bv c #bec2c1",
"az c #bfb3c1",
".n c #bfb9b9",
"bQ c #bfbfbf",
".k c #bfc0bb",
"bu c #bfc1c0",
"bP c #bfc3c2",
"bj c #bfc3c4",
".3 c #bfc6be",
"bB c #c0bebf",
".l c #c0c1bc",
"bD c #c1b6ba",
"bR c #c1b8bb",
"b# c #c1bbbf",
".C c #c1c0be",
"#T c #c1c0c6",
".8 c #c1c1bf",
".S c #c1c3c0",
"bA c #c1c5c4",
".N c #c3b1ad",
"#8 c #c3bbc8",
"a7 c #c3c2c7",
"bh c #c3c4c6",
"bT c #c4b9bd",
"bx c #c4cfcb",
"bf c #c5c0c4",
".D c #c5c1c0",
"ak c #c6bbcb",
"a3 c #c6bcc5",
".2 c #c6c1bb",
"bm c #c6c1c5",
"a5 c #c6c1c8",
".j c #c6c3bc",
"#o c #c6c8c3",
"aO c #c8bac7",
".m c #c8c4c3",
"aN c #c9b9c6",
"aP c #c9bdc9",
"a4 c #c9c2ca",
"#6 c #c9c6d1",
"#k c #c9cac5",
".B c #c9cbc6",
"#b c #cab8b6",
"a6 c #cac8cd",
"aj c #cbc0d0",
"b. c #cbc6ca",
".P c #cbd2ca",
".z c #cccdc7",
".i c #cdbebb",
"bC c #cdc4c7",
"bn c #cec5ca",
".b c #cfbaa5",
"bS c #cfc4c8",
".X c #d2b5b1",
".0 c #d5b3b4",
"ay c #d5c7d6",
".r c #d6c3b2",
".h c #d7b5b4",
".Z c #dab0b2",
".w c #dcaeb1",
"#j c #dce1db",
".Y c #ddb5b6",
".x c #dec2c1",
".s c #dfb0aa",
".M c #e0bebd",
".g c #e2aeb2",
"#K c #e6fcf0",
".c c #e8b3ad",
".v c #ecaeb3",
"#w c #f0fffb",
"ab c #f1fbfa",
"#Y c #f1fdfb",
"#L c #f1fffb",
".f c #f2abb3",
"ar c #f2f8f8",
"#0 c #f3fffa",
"#M c #f5fffb",
"ae c #f7fffb",
"ad c #f7fffc",
"ac c #f7ffff",
"aY c #f8edf1",
"aq c #f8f9fd",
"bq c #f9f5f6",
"#1 c #f9fffb",
"ag c #fbf6f3",
"aG c #fbf9fc",
"#X c #fbffff",
"aa c #fcffff",
"aH c #fdf9fa",
"bF c #fdfdff",
"#2 c #fefffb",
"br c #feffff",
"a0 c #fff5f6",
"aX c #fff8fb",
"bc c #fffafd",
"bb c #fffbff",
"aZ c #fffcfd",
"bp c #fffcff",
"bE c #fffdff",
"bd c #fffeff",
"Qt.#.a.b.c.d.e.f.g.h.i.j.k.l.m.n",
".o.p.q.r.s.t.u.v.w.x.y.z.A.B.C.D",
".E.F.G.H.I.J.K.L.M.N.O.P.Q.R.S.C",
".T.U.V.W.X.Y.Z.0.1.2.3.4.5.6.7.8",
".9#.###a#b#c#c#d#e#f#g#h#h#i#j#k",
"#l#m#n#o#p#q#r#s#t#u#v#w#x#y#z#A",
"#B#C#D#E#F#G#H#z#I#J#K#L#M#N#O#P",
"#Q#R#S#T#U#V#W#X#Y#Z#w#0#1#2#3#4",
"#5#6#7#8#9a.a#aaabacadaeafagahai",
"ajakalamanaoapaq#Xaraaasatauavaw",
"axayazaAaBaCaDaEaFaGaHaIaJaKaLaM",
"aNaOaPaQaRaSaTaUaVaWaXaYaZa0a1a2",
"a3a4a5a6a7a8a9b.b#babbbbbcbdbe#z",
"bfbgbhbibjbkblbmbnbabobpbqbrbsbt",
"bubvbwbxbybzbAbBbCbD#4bEbFbGbHbI",
"bJbKbLbMbNbObPbQbRbSbTatbUbVbWbX"};
