/* XPM */
static const char *yk_xpm[]={
"16 16 234 2",
"bg c #000000",
"#f c #000002",
".y c #000004",
".4 c #000100",
"#5 c #010000",
"#X c #010002",
"#E c #010005",
"aq c #030000",
"#S c #030002",
".O c #030207",
"aJ c #040000",
"bI c #050102",
"bb c #060000",
"bJ c #060002",
"ap c #080307",
"#D c #09040a",
"bq c #0a0300",
"#J c #0a080b",
"aa c #0b060a",
"bf c #0b0b09",
"#t c #0b0b0d",
"ah c #0e0d09",
"#g c #0f0f0f",
".J c #16101a",
"bp c #1a130d",
"aH c #1f1a17",
".Y c #211b25",
"## c #272229",
"aG c #494343",
".X c #4c454d",
"ba c #746d67",
"b. c #776f6d",
".N c #79787e",
"#I c #7a787d",
"aX c #7b7670",
"am c #7b797e",
"a9 c #7c7676",
"#C c #7d787c",
"bo c #7e7673",
".q c #7f767b",
"#O c #7f7b78",
"#e c #7f7e84",
"b# c #807875",
"#b c #817b85",
"#8 c #817f84",
"af c #81807b",
"aN c #82837e",
".F c #837a7f",
"aE c #837e82",
".i c #848389",
".f c #857f89",
"bz c #85807d",
".Z c #86808a",
"at c #86837e",
".2 c #86858b",
"ab c #878384",
"aj c #878586",
"#4 c #878684",
".d c #888189",
"#m c #888284",
".u c #88828c",
"a. c #88868b",
".7 c #898383",
"aD c #898488",
"as c #898582",
"#F c #89868d",
"#2 c #898883",
"ax c #898987",
"bn c #8a8280",
"#j c #8a8484",
"aW c #8a8581",
".g c #8a8790",
"ak c #8a888b",
"aC c #8b868a",
".h c #8c8992",
"bl c #8d8789",
"an c #8d8b90",
"a1 c #8d8f8a",
".r c #8e878f",
".K c #8e8892",
"#p c #8e8990",
"av c #8e8f87",
"#9 c #8f8d92",
".x c #8f8e94",
"#s c #919095",
"#q c #928c96",
".e c #97919b",
"#R c #979392",
".T c #988f90",
"by c #999395",
"#y c #999592",
".3 c #9e9fa1",
"#. c #a59ea5",
"bm c #a6a19e",
".M c #aca9b2",
"#d c #adaab3",
"#H c #aeabb2",
"a# c #afadb2",
"ao c #b0aeb1",
"#a c #b1abb5",
"bi c #b1afb2",
"#r c #b3b0b7",
"a3 c #b3b3b3",
"a2 c #b4b4b2",
"bx c #b5b1b2",
"#K c #b6b4b5",
"#Q c #b7b3b2",
".9 c #b8b2b4",
".w c #b8b5be",
"bh c #b9b7ba",
"be c #b9bcb5",
".B c #b9bdbc",
"aR c #bab5b9",
"aA c #bab8bb",
"al c #bab8bd",
"aT c #bbb7b8",
"ar c #bcb8b7",
"bD c #bcc2b8",
"bd c #bdc0b9",
"aB c #bebcbf",
"#W c #bebcc1",
"ag c #c0bfba",
"#0 c #c0bfbd",
"#B c #c1bdbe",
".P c #c1c3c2",
"aS c #c2bdc1",
"#h c #c2c2c0",
".l c #c2c4c3",
".6 c #c3c5c2",
".W c #c4bdc4",
"#o c #c4bfc5",
"aU c #c4c0bf",
"#7 c #c4c2c5",
"ai c #c4c3c1",
"bv c #c4c4c2",
"aM c #c4c5bf",
"aZ c #c4c7be",
"ad c #c5c1be",
".n c #c5cac6",
".I c #c6bfc7",
"#u c #c6c6c6",
".5 c #c6c8c5",
"bB c #c7c0ba",
"#v c #c7c7c5",
"aK c #c7c8c0",
"br c #c7cdc3",
"bM c #c8c1bb",
".1 c #c8c5ce",
"bF c #c8cbc4",
"aV c #c9c4c1",
"bH c #c9c7ca",
".z c #c9cace",
"bC c #c9cfc5",
".o c #cac1c2",
"a4 c #cac8cb",
".j c #cac9ce",
"#x c #cacac8",
"aw c #cacbc6",
".D c #cbc2c3",
"bk c #cbc7c8",
"a5 c #cbc9cc",
"#U c #cbc9ce",
".# c #ccc3c4",
".c c #ccc5cd",
"#N c #cccbc7",
".k c #cccdd1",
"bc c #cccfc6",
"bE c #cccfc8",
".C c #ccd1cd",
".a c #cdc4c9",
"aI c #cdc8c4",
"bj c #cdc8cc",
"#V c #cdcad1",
"#6 c #cdcbce",
"#w c #cdcdcb",
"bu c #cdd0c9",
"ae c #cecbc6",
"a8 c #cfc9cb",
"#1 c #cfceca",
".Q c #cfd1d0",
"bt c #cfd2cb",
"bs c #cfd5cb",
".E c #d0c7c8",
"#M c #d0cfcd",
"bw c #d0d0ce",
"aY c #d0d3ca",
"a0 c #d0d3cc",
"aF c #d1cdce",
".R c #d1d3d0",
"#n c #d2cdd1",
"#A c #d2cecd",
".t c #d3cdd7",
"#i c #d3d3d1",
".m c #d3d7d6",
".S c #d4cbcc",
"#T c #d4cfd3",
"au c #d4d1cc",
"#Z c #d4d2d3",
"aL c #d4d5cd",
"#Y c #d5d3d4",
"Qt c #d6cdce",
"bA c #d6cfc9",
".A c #d6d8d7",
"#l c #d7d1d3",
"bL c #d8d0cd",
"bK c #d8d0ce",
"bN c #d8d1cb",
"bG c #d8d6d9",
"#L c #dad9d7",
".b c #dcd3d8",
"ac c #dcd8d7",
"aP c #dcdcdc",
".p c #ddd4d5",
".V c #e0dade",
"#z c #e0dcd9",
"aO c #e0e0de",
".v c #ebe8f1",
"#G c #edeaf1",
".0 c #edeaf3",
"#c c #f2eff8",
"#3 c #f5f4f0",
".8 c #f6f0f0",
"a7 c #f6f1f5",
".U c #f7eef1",
"ay c #f7f7f7",
"aQ c #fbf9fc",
".s c #fff8ff",
".G c #fffaff",
"a6 c #fffbff",
"#k c #fffcfc",
".H c #fffcff",
".L c #fffdff",
"#P c #fffefb",
"az c #ffffff",
"Qt.#.a.b.c.d.e.f.g.h.i.j.k.l.m.n",
".o.p.b.q.r.s.t.u.v.w.x.y.z.A.B.C",
".D.E.F.G.H.I.J.K.L.M.N.O.y.P.Q.R",
".S.T.U.V.W.X.Y.Z.0.1.2.y.3.4.5.6",
".7.8.9.L#.###a#b#c#d#e.y#f#g#h#i",
"#j#k#l#m#n#o#p#q.L#r#s#t#u#v#w#x",
"#y#z#A#B#C#D#E#F#G#H#I#J#K#L#M#N",
"#O#P#Q#R#S#T#U#V#F#W#X#Y#Z#0#1#N",
"#2#3#4#5#6#7#8#9a.a#aaababacadae",
"afagahaiajakalamanaoapaqarasatau",
"av.4awaxayazaAaBaCaDaEaFaGaHaIaJ",
"aKaLaMaNaOaP.LaQaRaSaTaUaVaWaXaJ",
"aYaZa0a1a2a3a4a5a6a7a8a9b.b#babb",
"aZbcbdbebfbgbhbibjbkblbmbnbobpbq",
"brbsbtbubvbw#X#XaRbxbybzbbbbbAbB",
"bCbDbEbF#xbvbGbH#SbIbJaJbKbLbMbN"};
