/* XPM */
static const char *yt_xpm[]={
"16 16 118 2",
"#G c #121212",
".Z c #1a1a1a",
".6 c #252525",
".H c #2d2d2d",
"#N c #3f3f3f",
"#H c #424242",
".y c #444444",
".Q c #474747",
"#M c #494949",
"#D c #4c4c4c",
"#y c #4e4e4e",
"#R c #4f4f4f",
"#T c #505050",
"#B c #525252",
"#C c #535353",
"#x c #545454",
"#E c #565656",
".0 c #585858",
"#A c #595959",
"#s c #5a5a5a",
".v c #5b5b5b",
"#z c #5c5c5c",
".M c #5d5d5d",
"#d c #5e5e5e",
"#k c #5f5f5f",
".D c #626262",
".w c #636363",
".4 c #646464",
".X c #676767",
".T c #686868",
".L c #6b6b6b",
"#w c #6e6e6e",
".3 c #6f6f6f",
".W c #707070",
".S c #717171",
"#o c #747474",
".9 c #757575",
".N c #767676",
".u c #777777",
".z c #7a7a7a",
".l c #7b7b7b",
"#h c #7c7c7c",
"#. c #7e7e7e",
"#m c #7f7f7f",
"#F c #828282",
".5 c #858585",
"#j c #878787",
".U c #898989",
"#S c #8a8a8a",
"#t c #8c8c8c",
".x c #8d8d8d",
"#P c #909090",
".E c #919191",
".V c #929292",
"#u c #949494",
"#e c #959595",
".Y c #969696",
".1 c #979797",
".O c #989898",
".I c #999999",
"## c #9b9b9b",
"#J c #9c9c9c",
"#f c #9d9d9d",
"#v c #9e9e9e",
".m c #9f9f9f",
".R c #a0a0a0",
".P c #a1a1a1",
"#g c #a2a2a2",
"#I c #a3a3a3",
"#U c #a6a6a6",
"#a c #a8a8a8",
"#L c #a9a9a9",
"#c c #ababab",
".d c #acacac",
"#l c #aeaeae",
"#p c #b0b0b0",
"#b c #b1b1b1",
".K c #b3b3b3",
"#V c #b4b4b4",
".t c #b5b5b5",
".f c #b6b6b6",
"Qt c #b7b7b7",
".A c #b8b8b8",
".7 c #b9b9b9",
".k c #bababa",
".i c #bbbbbb",
".s c #bcbcbc",
".# c #bdbdbd",
".p c #bebebe",
".r c #bfbfbf",
".a c #c0c0c0",
"#K c #c1c1c1",
".g c #c2c2c2",
".h c #c3c3c3",
".B c #c4c4c4",
".F c #c5c5c5",
".C c #c6c6c6",
".e c #c7c7c7",
".o c #c8c8c8",
"#i c #c9c9c9",
".q c #cacaca",
".2 c #cbcbcb",
".c c #cccccc",
"#W c #cdcdcd",
".b c #cecece",
"#Z c #d0d0d0",
"#X c #d2d2d2",
".G c #d3d3d3",
"#Y c #d4d4d4",
"#n c #d5d5d5",
".8 c #d6d6d6",
".n c #d7d7d7",
"#r c #dbdbdb",
".J c #dcdcdc",
".j c #dddddd",
"#q c #e1e1e1",
"#Q c #ebebeb",
"#O c #f3f3f3",
"Qt.#.a.b.c.d.e.f.g.f.h.iQt.c.i.f",
".j.f.k.l.m.n.o.p.a.f.q.r.s.t.#.e",
".u.v.w.x.y.z.f.A.k.B.s.r.p.k.C.s",
".D.E.FQt.G.H.I.J.b.K.u.L.M.N.O.r",
".F.b.t.h.a.P.Q.R.S.T.U.E.V.W.X.Y",
".t.a.r.F.h.a.Z.0.1.2.3.4.5.6.P.4",
".F.7.8.K.9.T#.###a#b#c#d#e#f#g#h",
".k#i#j#k.O.h#l.s#i.r##.9#m.U.S.l",
"#n.V#o#p#q#r.r.a.R#s.R#t#m#u#v#w",
".R#x.R.U.v#y.#.O#z.9#A#B.u#C#D.d",
"#u#E#a#F#G#H#n#f.y.N.O.8#I#J#K.g",
"#L#M.P#N#s.0#O#P.v.F.A.o.o.e.k.i",
".o.5#h.t.t#Q.F.M.#.q.#.k.i.#.s.a",
".##i.D#R.U#S#T.U.h#U.a.p.#.p.h.p",
".C#V.b.1#w#T.R.g.o.f#W.p.t.a.o.A",
".h.f.r.2#X#Y#Z.k.s.B.s.i.F.r.A.a"};
