/* XPM */
static const char *yxstopflash_xpm[]={
"16 16 253 2",
"bX c #030017",
"bu c #1d1606",
"be c #2a2200",
"bI c #342e32",
"br c #434132",
"a0 c #453d00",
"bb c #494623",
"aX c #59561f",
"aH c #5c5811",
"## c #5f5d34",
"bd c #615b29",
"bc c #626030",
"b0 c #636647",
"#o c #656333",
"b3 c #656d7a",
"bG c #66606a",
"#E c #686437",
"b2 c #687065",
"bt c #6b6452",
"bs c #6b6653",
".G c #6d6d53",
"b1 c #6f745d",
"bY c #706877",
"bH c #746c79",
"bW c #746f86",
".r c #76765a",
".e c #767a1b",
".4 c #777431",
"#3 c #7a7122",
"bZ c #7b796a",
"aK c #7c741f",
".d c #7c822a",
"bM c #7d827c",
".c c #7e8245",
"bJ c #807d6e",
".w c #837c52",
"bL c #868978",
"b4 c #8792a4",
".f c #88893d",
"bO c #8891a0",
"bN c #898f9b",
"#i c #8a8a2a",
".V c #8c8c72",
"ag c #8d7f40",
"aY c #8d8b3e",
"#U c #908864",
".O c #908c67",
".N c #918c55",
"av c #938548",
"a# c #938966",
"aq c #938a5f",
"#O c #938e4c",
"aL c #958563",
"#V c #958f55",
"bK c #979681",
"bf c #988e82",
"bF c #99999b",
"#x c #9d9a2f",
"bv c #9e968b",
"#y c #a09d56",
"aa c #a39a61",
"#j c #a6a565",
"bP c #aab7bd",
"ar c #aba453",
"#N c #ada844",
"a1 c #ae9f8c",
".g c #aea78b",
".x c #b0a796",
"bm c #b0babc",
".W c #b2b485",
".C c #b2b9bf",
"aZ c #b7b25e",
".5 c #b8b58a",
"b6 c #b9cbcb",
"bC c #bac4c3",
".n c #bac4ce",
".s c #bbbd7e",
"bR c #bec9cb",
"aC c #bfbcc3",
".# c #bfbecc",
"bQ c #bfcfcf",
"bS c #c0cbc7",
".q c #c1c0bc",
"bn c #c2c9d3",
".h c #c3b9ba",
"au c #c3ba55",
"bp c #c3c5c2",
"ah c #c4b689",
"#R c #c4bdc4",
"aU c #c4c1cc",
"a6 c #c4c7be",
".k c #c4c9c3",
".S c #c4c9cf",
".T c #c4cbd3",
"aw c #c5b594",
".v c #c5c376",
"aR c #c5c5c5",
"by c #c5c6ca",
"a9 c #c5c7d4",
".B c #c5ccc5",
"bD c #c5cdc0",
"bh c #c6bec9",
".o c #c6c6d2",
"bj c #c6c7c9",
".A c #c6c9c2",
".9 c #c6c9d0",
".R c #c6cac9",
"bU c #c6ccc0",
"bk c #c6ccca",
"bz c #c6cfd4",
"aB c #c7c3c4",
".b c #c7c6b2",
".i c #c8c0cd",
"aV c #c8c1c8",
"a5 c #c8c7c3",
".z c #c8c7c5",
"Qt c #c8c9db",
"bl c #c8d0d2",
".m c #c8d1d6",
"bA c #c8d3d7",
"a3 c #c9bbcc",
"aO c #c9bcc3",
"#l c #c9c4c8",
"#C c #c9c6cd",
"#8 c #cac3cb",
".p c #cacbd0",
"bE c #cacdc2",
"bB c #cad8d9",
"ay c #cbbdb2",
"ba c #cbc9bd",
".l c #cbd5cc",
"af c #ccbd68",
"ak c #ccc5bb",
"#m c #cccbd1",
".8 c #cccdd2",
"bT c #ccd7c6",
"b5 c #ccdbe2",
"#A c #cdc4c9",
"aP c #cdc9be",
"bi c #cdcad3",
".Q c #cdcdc3",
".7 c #cdcdcf",
"b. c #cdcdd7",
"a7 c #cdd1d2",
"at c #cec752",
"aD c #cec7cf",
"#B c #cec9cf",
".H c #cecfa3",
"#5 c #cfc4ae",
"#9 c #cfc5b9",
"an c #cfc5c4",
"#2 c #cfc661",
"aT c #cfcbd9",
".6 c #cfcdbe",
"bx c #cfcdce",
"aQ c #cfcfc3",
"aS c #cfcfd7",
"a8 c #cfd4da",
"al c #d0cacc",
".E c #d0d0ce",
"#6 c #d1c8c3",
"az c #d1caba",
".D c #d1dae3",
"aG c #d2c8ad",
"aI c #d2d06c",
".F c #d2d2c8",
"bV c #d2d2dc",
"bo c #d2d7dd",
"ao c #d3c8c2",
"#7 c #d3cacf",
"am c #d3ced5",
"#n c #d3cfac",
"b# c #d3d1d4",
"aE c #d4cad2",
"aJ c #d4d065",
"a4 c #d5cad8",
"#4 c #d5cb96",
".j c #d5d2db",
"bq c #d5d7cc",
"aF c #d6cccb",
"#S c #d6d1d8",
"#P c #d7ccb6",
"#Q c #d7cdce",
"aj c #d7cfba",
".a c #d7d6dc",
"#J c #d8cb6f",
"aA c #d8d4c8",
".P c #d8d6bf",
"#. c #d8d7b9",
"#D c #d9d3b3",
"#w c #d9d955",
"a. c #dacfbb",
"bg c #dacfd3",
"#k c #dad5c2",
".y c #dbd3d0",
".U c #dbd9ca",
"a2 c #dccbd3",
"ai c #e0d2b5",
"aW c #e0d9c9",
".u c #e0e388",
"#z c #e2dac5",
"#G c #e2dd8b",
"as c #e2de72",
"aN c #e3d2da",
"ap c #e3d7c7",
".M c #e4df9b",
"aM c #e6d3cf",
"ax c #e6d5c5",
"ad c #e6dd68",
"#s c #e8df94",
"bw c #e8e3dd",
"#p c #e8e69c",
"#T c #e9e2c8",
"#t c #ebde8f",
"#Z c #ece178",
".3 c #edeb94",
"#a c #edeeac",
".t c #edf19d",
"ab c #eee78f",
"#g c #f0ed78",
"#X c #f2e891",
"#M c #f3ef72",
"#I c #f5e993",
"ac c #f6ee83",
"ae c #f7ec80",
"#L c #f8f073",
"#K c #faef85",
"#0 c #fcf185",
"#F c #fcf8b1",
".2 c #fcf99c",
".Z c #fdf9b2",
"#b c #fdfbb0",
".I c #fdfdbd",
"#c c #fefab3",
"#d c #fff8b3",
"#Y c #fff998",
"#f c #fff99e",
".0 c #fffbaf",
"#e c #fffbb0",
"#1 c #fffd8e",
"#u c #fffd9b",
".J c #fffeb3",
"#v c #ffff8b",
"#h c #ffff90",
".1 c #ffffab",
"#q c #ffffae",
".L c #ffffb0",
"#H c #ffffb2",
".K c #ffffb5",
"#W c #ffffb7",
"#r c #ffffba",
".Y c #ffffc1",
".X c #ffffc4",
"Qt.#.a.b.c.d.e.f.g.h.i.j.k.l.m.n",
".o.p.q.r.s.t.u.v.w.x.y.z.A.B.C.D",
".E.F.G.H.I.J.K.L.M.N.O.P.Q.R.S.T",
".U.V.W.X.Y.Z.0.1.2.3.4.5.6.7.8.9",
"#.###a#b#c#d#e#f#g#h#i#j#k#l#m.p",
"#n#o#p#q#r#s#t#u#v#w#x#y#z#A#B#C",
"#D#E#F#G#H#I#J#K#L#M#N#O#P#Q#R#S",
"#T#U#V#W#X#Y#Z#0#1#2#3#4#5#6#7#8",
"#9a.a#aaabacadaeafagahaiajakalam",
"anaoapaqarasatauavawaxayazaAaBaC",
"aDaEaFaGaHaIaJaKaLaMaNaOaPaQaRaS",
"aTaUaVaWaXaYaZa0a1a2a3a4a5a6a7a8",
"a9b.b#babbbcbdbebfbgbhbibjbkblbm",
"bnbobpbqbrbsbtbubvbwbxbya8bzbAbB",
".mbCbDbEbFbGbHbIbJbKbLbMbNbObPbQ",
"bRbSbTbUbVbWbXbYbZb0b1b2b3b4b5b6"};
