/* XPM */
static const char * alignport_xpm[] = {
"16 16 3 1",
" 	c None",
".	c #000080",
"X	c Red",
"                ",
"                ",
"                ",
"                ",
"                ",
"             .  ",
" XX           . ",
"XXXX . . . . . .",
" XX           . ",
"             .  ",
"                ",
"                ",
"                ",
"                ",
"                ",
"                "};
