/* XPM */
static const char * alignleft_xpm[] = {
"16 16 4 1",
" 	c Black",
".	c None",
"X	c #000080",
"o	c Gray100",
". ..............",
". ..............",
". .       ...X..",
". . o.o.o ..XX..",
". . .o.o. .XXXXX",
". . o.o.o ..XX..",
". .       ...X..",
". ..............",
". ..............",
". ..   ....X....",
". . o.o ..XX....",
". . .o. .XXXXXXX",
". . o.o ..XX....",
". ..   ....X....",
". ..............",
"................"};
