/* XPM */
static const char * alignvport_xpm[] = {
"16 16 3 1",
" 	c None",
".	c Red",
"X	c #000080",
"       .        ",
"      ...       ",
"      ...       ",
"       .        ",
"                ",
"       X        ",
"                ",
"       X        ",
"                ",
"       X        ",
"                ",
"       X        ",
"                ",
"     X X X      ",
"      X X       ",
"       X        "};
