/* XPM */
static const char * aligntop_xpm[] = {
"16 16 4 1",
" 	c None",
". 	c #000000",
"X	c Gray100",
"o	c #000080",
"                ",
" .............. ",
"                ",
"  ...  .......  ",
" .X X. .X X X.  ",
" . X . . X X .  ",
" .X X. .X X X.  ",
"  ...  .......  ",
"                ",
"   o      o     ",
"  ooo    ooo    ",
" ooooo  ooooo   ",
"   o      o     ",
"   o      o     ",
"   o      o     ",
"   o      o     "};
