/* XPM */
static const char * aligncenter_xpm[] = {
"16 16 4 1",
" 	c None",
".	c Black",
"X	c Gray100",
"o	c #000080",
"                ",
"................",
".              .",
".     ....     .",
".     .X .     .",
".     . X.     .",
".     .X .     .",
".  o  . X.  o  .",
".oooo .X . oooo.",
".  o  . X.  o  .",
".     .X .     .",
".     . X.     .",
".     ....     .",
".              .",
"................",
"                "};
