/* XPM */
static const char * alignvcenter_xpm[] = {
"16 16 4 1",
" 	c None",
"$	c Black",
"X	c #000080",
"o	c Gray100",
"                ",
"$$$$$$$$$$$$$$$$",
"$       X      $",
"$      XXX     $",
"$       X      $",
"$              $",
"$  $$$$$$$$$$  $",
"$  $o o o o $  $",
"$  $ o o o o$  $",
"$  $$$$$$$$$$  $",
"$              $",
"$       X      $",
"$      XXX     $",
"$       X      $",
"$$$$$$$$$$$$$$$$",
"                "};
