/* XPM */
static const char *arrow_right_xpm[]={
"16 15 2 1",
"# c #000000",
"  c None",
"                ",
" #              ",
"  ##            ",
"    ###         ",
"       ##       ",
"         ###    ",
"            ##  ",
"################",
"            ##  ",
"         ###    ",
"       ##       ",
"    ###         ",
"  ##            ",
" #              ",
"                "};
