/* XPM */
static const char *arrow_prn_xpm[]={
"80 17 2 1",
"# c #000000",
"  c None",
"                                                                                ",
"                                                                                ",
"                                                                ##              ",
"                                                                # ##            ",
"                                                                #   ###         ",
"                                                                #      ##       ",
"                                                                #        ###    ",
"                                                                #           ##  ",
"#################################################################             ##",
"                                                                #           ##  ",
"                                                                #        ###    ",
"                                                                #      ##       ",
"                                                                #   ###         ",
"                                                                # ##            ",
"                                                                ##              ",
"                                                                                ",
"                                                                                "};
