/* XPM */
static const char *attrset_xpm[]={
"16 16 8 1",
"  c None",
"a c #000000",
"c c #000080",
"d c #0000ff",
"f c #008080",
"e c #00ffff",
"b c #800000",
"# c #808080",
"          #aa#  ",
"          ab a# ",
"  ccd        ab ",
" cced       ab  ",
"ccddd       a   ",
"cddcfd          ",
"cccccfdfcc  ab  ",
"   cccfcdd      ",
"    cccce#      ",
"    #ccc#       ",
"    ccd#a       ",
"    cc# #a      ",
"         #a     ",
"           a    ",
"            #   ",
"                "};
