/* XPM */
static const char *cascade_xpm[]={
"17 17 3 1",
"  c None",
"# c #000080",
"a c #ffffff",
"                 ",
" ##########      ",
" #a########      ",
" ##########      ",
" #aaaaaaaa#      ",
" #a##########    ",
" #a#a########    ",
" ############    ",
"   #aaaaaaaa#    ",
"   #aa########## ",
"   #aa#a######## ",
"   ############# ",
"      #aaaaaaaa# ",
"      #aaaaaaaa# ",
"      #aaaaaaaa# ",
"      ########## ",
"                 "};
