/* XPM */
static const char *chglayer_xpm[]={
"16 16 7 1",
"  c #000000",
"c c #000080",
"d c #008000",
"e c #00ffff",
"# c #808080",
"b c #c0c0c0",
"a c #ffffff",
"                ",
"                ",
"               #",
"              #a",
"             #aa",
"    aaaaaaa #aa ",
"    #aaaaa #aa #",
"    ##aaa #aa #b",
"    ###aaa   #bb",
"    ####aaa #bb ",
"    ## ##a #bb c",
"    # # # #bb   ",
"     #a  #bb    ",
"    #aa #bb     ",
"   #aa #bb ddbbd",
"  #aa #bb dddeed"};
