/* XPM */
static const char * curonrotate_xpm[] = {
"32 32 3 1",
" 	c None",
".	c Gray100",
"X	c Black",
"        .                       ",
"       .X.                      ",
"       .XX.  ...                ",
"     ..XXXX. .XX..              ",
"    .XXXXXX. .XXXX.             ",
"   .XXX.XX.  ...XXX.            ",
"   .XX..X.     ..XX..           ",
"  .XX.  .     .XXXXXX.          ",
"  .XX.         .XXXX.           ",
"  .XX.          .XX.            ",
"  ....           ..             ",
"                                ",
"   ..           ....            ",
"  .XX.          .XX.            ",
" .XXXX.         .XX.            ",
".XXXXXX.     . ..XX.            ",
" ..XX..     .X..XX.             ",
"  .XXX... ..XX.XXX.             ",
"   .XXXX. .XXXXXX.              ",
"    ..XX. .XXXX..               ",
"      ... ..XX.                 ",
"            .X.                 ",
"             .                  ",
"                                ",
"                                ",
"                                ",
"                                ",
"                                ",
"                                ",
"                                ",
"                                ",
"                                "};
