/* XPM */
static const char * currotate_xpm[] = {
"32 32 3 1",
" 	c None",
".	c Gray100",
"X	c Black",
"                                ",
"        ..                      ",
"        .X.                     ",
"        .XX.                    ",
"      ..XXXX.                   ",
"     .XXXXXX.....               ",
"    .XXX.XX. .XX.               ",
"    .XX..X.  .....              ",
"   .XX. ..    .XX.              ",
"   .XX.   .   ....              ",
"   .XX.  .X.  .XX.              ",
"   .XX.   .   .XX.              ",
"   .XX.       .XX.              ",
"    .XX.     .XX.               ",
"    .XXX.....XXX.               ",
"     .XXXXXXXXX.                ",
"      ..XXXXX..                 ",
"        .....                   ",
"                                ",
"                                ",
"                                ",
"                                ",
"                                ",
"                                ",
"                                ",
"                                ",
"                                ",
"                                ",
"                                ",
"                                ",
"                                ",
"                                "};
