/* XPM */
static const char *customtools_xpm[]={
"16 16 4 1",
"  c None",
"# c #000000",
"b c #800000",
"a c #808000",
"                ",
"      ####      ",
"     ##aa###    ",
"       ##aaa#   ",
"        #aaa#   ",
"        ##aa##  ",
"       #b###aa# ",
"      #b#  #a#  ",
"     #b#    #   ",
"    #b#         ",
"   #b#          ",
"  #b#           ",
" #b#            ",
"#b#             ",
"##              ",
"                "};
