/* XPM */
static const char *edit_library_xpm[]={
"16 15 5 1",
"b c #000000",
"c c #0000ff",
"# c #808080",
". c #c0c0c0",
"a c #ffffff",
"..##############",
"#aaaaaaaaaaaaaa#",
"#..............b",
"#.############.b",
"#.##aaaaaaaaa#.b",
"#.##........a#.b",
"#.##...##...a#.b",
"#.##..#aa#..a#.b",
"#..#.#acca#.a#.b",
"#..#.#acca#.a#.b",
"#.##..#aa#..a#.b",
"#.##...##...a#.b",
"#.##........a#.b",
"#.############.b",
"#..............b"};
