/* XPM */
static const char * editfindfile_xpm[] = {
"16 16 5 1",
" 	c None",
".	c Black",
"X	c Yellow",
"o	c #808080",
"O	c #000080",
" ...            ",
". Xo......o     ",
".X X X X X.     ",
". XOX X X .     ",
".X XOX ..X. ..  ",
". X XOX.. . ..  ",
".X.X X ..X. ..  ",
". X.X.....o.....",
"o...............",
"     . .... ....",
"     . .... ....",
"     ...........",
"     ...o   o...",
"     . .     . .",
"     ...     ...",
"                "};
