/* XPM */
static const char *editfinddev_xpm[]={
"21 22 7 1",
"  c None",
"a c #000000",
"# c #000080",
"d c #808000",
"e c #808080",
"c c #ffff00",
"b c #ffffff",
"                     ",
"                     ",
"                     ",
"    ##############   ",
"    ##############   ",
"    abbbcdbbbbbbba   ",
"    abbbcdbbbbbbba   ",
"    abcccccdbbbbba   ",
"    abddcdddbcdbba   ",
"    ebbbcdbbbcdbba   ",
"    aabbbaacccccda   ",
"    aabbbaaddcddda   ",
"   aaaebeaaabcdbba   ",
"  abaaaaabaaaeaaaa   ",
"  abaaaeabaaa        ",
"  aaaaaaaaaaa        ",
"  abaa   abaa        ",
"  abaa   abaa        ",
"  aaaa   aaaa        ",
"                     ",
"                     ",
"                     "};
