/* XPM */
static const char * editdelete_xpm[] = {
"13 13 3 1",
" 	c None",
".	c #800000",
"X	c Gray100",
"             ",
"..         ..",
"....      .. ",
" ....    ..X ",
"   ...  .    ",
"    .....    ",
"     ...     ",
"    .....    ",
"   ...  ..X  ",
"  ...    ..X ",
" ...      .X ",
" ...       .X",
"  .         ."};
