/* XPM */
static const char * editfind_xpm[] = {
"16 16 3 1",
" 	c None",
".	c Black",
"X	c Gray100",
"                ",
"                ",
"   ...   ...    ",
"   .X.   .X.    ",
"   ...   ...    ",
"  ..... .....   ",
"  .X... .X...   ",
" .............  ",
"..X... ..X..... ",
"..X... ..X..... ",
"..X......X..... ",
"....... ....... ",
".X...     .X... ",
".X...     .X... ",
".....     ..... ",
"                "};
