/* XPM */
static const char *elems_text_xpm[]={
"16 16 3 1",
"# c #000000",
"a c #808080",
"  c None",
"                ",
"       #a       ",
"       ##       ",
"      a##a      ",
"      ####      ",
"     a# ##a     ",
"     #a a##     ",
"    a#   ##a    ",
"    #a   a##    ",
"   a########a   ",
"   #aaaaaaa##   ",
"  a#       ##a  ",
"  #a       a##  ",
" a#        a##a ",
"a###       ####a",
"                "};
