/* XPM */
static const char *elems_path_xpm[]={
"16 16 2 1",
"# c #000000",
"  c None",
"                ",
"                ",
"                ",
"    ####        ",
"    #   ####    ",
"    #       #   ",
"    #        #  ",
"    #        #  ",
"    #       #   ",
" ####   ####    ",
" #              ",
" #              ",
" #              ",
" #              ",
" #              ",
"                "};
