/* XPM */
static const char *elems_arc_xpm[]={
"16 16 3 1",
"a c #000000",
"# c #000080",
"  c None",
"                ",
"                ",
"    ##          ",
"    ##aa        ",
"        aa      ",
"          a     ",
"           a    ",
"           ##   ",
"           ##   ",
"           a    ",
"           a    ",
"          a     ",
"      ##aa      ",
"      ##        ",
"                ",
"                "};
