/* XPM */
static const char *elemsup_xpm[]={
"17 17 15 1",
"  c None",
"# c #000000",
"b c #008300",
"g c #009b00",
"c c #00ac00",
"h c #00b700",
"i c #00cc00",
"l c #00d200",
"m c #00d800",
"d c #00ea00",
"a c #00eb00",
"j c #00f800",
"k c #83ff83",
"e c #b1ffb1",
"f c #bcffbc",
"                 ",
"                 ",
"                 ",
"                 ",
"        #        ",
"       #a#       ",
"      #baa#      ",
"     #bcdef#     ",
"    #bghijkf#    ",
"   #bghhljjkf#   ",
"  #bggbhlmjjkf#  ",
"  #############  ",
"                 ",
"                 ",
"                 ",
"                 ",
"                 "};
