/* XPM */
static const char *elems_dyntext_xpm[]={
"16 16 2 1",
"# c #000000",
"  c None",
"                ",
"                ",
"  ##        ##  ",
"   #       #  # ",
"   #       #  # ",
"   #       #  # ",
"   #       #  # ",
"   #       #  # ",
"   #       #  # ",
"   #       #  # ",
"   #       #  # ",
"   #       #  # ",
"   #       #  # ",
"  ###  #    ##  ",
"                ",
"                "};
