/* XPM */
static const char *elems_image_xpm[]={
"16 16 3 1",
"# c #000000",
"  c None",
"a c #ffff00",
"                ",
"############### ",
"#             # ",
"#         ##  # ",
"#        #aa# # ",
"#        #aa# # ",
"#         ##  # ",
"#             # ",
"#    ##       # ",
"#   #  # ##   # ",
"#  #  # #  #  # ",
"# #      #  # # ",
"##  #  #  #  ## ",
"#    #  #  #  # ",
"############### ",
"                "};
