/* XPM */
static const char * elems_button_xpm[] = {
"16 16 8 1",
" 	c None",
".	c #808080",
"X	c #008080",
"o	c #008000",
"O	c Black",
"+	c Gray100",
"@	c Blue",
"#	c #000080",
"   ......       ",
"  ..X   oO      ",
" .+ + ooooO     ",
"..@+ @@@@oo.    ",
".@   #oo@ooO    ",
".@ oooo#X#oO    ",
".@@ ooooo@@O    ",
".@@@@ooooX@O    ",
".#@@@oooo@#.    ",
" O@@@OOOO#OOOO  ",
"  O#O + +O+ + O ",
"   O OOOOOOOOO O",
"   O+O.O   O.O+O",
"   O OOOOOOOOO O",
"    O + +O+ + O ",
"     OOOO OOOO  "};
