/* XPM */
static const char *elems_link_xpm[]={
"16 15 2 1",
"  c None",
"# c #000080",
"                ",
"                ",
"                ",
"                ",
"                ",
"###          ###",
"####        ####",
"################",
"####        ####",
"###          ###",
"                ",
"                ",
"                ",
"                ",
"                "};
