/* XPM */
static const char *elemstop_xpm[]={
"16 16 15 1",
"  c None",
"# c #000000",
"c c #008300",
"k c #009b00",
"g c #00ac00",
"j c #00b700",
"b c #00cc00",
"l c #00d200",
"m c #00d800",
"f c #00ea00",
"a c #00eb00",
"i c #00f800",
"h c #83ff83",
"e c #b1ffb1",
"d c #bcffbc",
"                ",
"                ",
" ############## ",
" #aaaaaaaaabbc# ",
" ############## ",
"                ",
"        #       ",
"       #a#      ",
"      #aac#     ",
"     #defgc#    ",
"    #dhibjkc#   ",
"   #dhiiljjkc#  ",
"  #dhiimljckkc# ",
"  ############# ",
"                ",
"                "};
