/* XPM */
static const char *elems_select_xpm[]={
"16 18 4 1",
"  c None",
"# c #000000",
"b c #800000",
"c c #808080",
"                ",
"                ",
" ## ## ## ## ## ",
"                ",
" #            # ",
" #            # ",
"      #         ",
" #    ##      # ",
" #    ###     # ",
"      ####      ",
" #    #####   # ",
" #    #b#b    # ",
"      # ##      ",
" #       ##   # ",
" # ## #c ## # # ",
"          #     ",
"                ",
"                "};
