/* XPM */
static const char *elems_rect_xpm[]={
"16 18 2 1",
"# c #000000",
"  c None",
"                ",
"                ",
"                ",
"                ",
" ############## ",
" #            # ",
" #            # ",
" #            # ",
" #            # ",
" #            # ",
" #            # ",
" #            # ",
" #            # ",
" ############## ",
"                ",
"                ",
"                ",
"                "};
