/* XPM */
static const char *elems_circle_xpm[]={
"16 18 2 1",
"# c #000000",
"  c None",
"                ",
"                ",
"                ",
"      ###       ",
"    ##   ##     ",
"   #       #    ",
"  #         #   ",
"  #         #   ",
" #           #  ",
" #           #  ",
"  #         #   ",
"  #         #   ",
"   #       #    ",
"    ##   ##     ",
"      ###       ",
"                ",
"                ",
"                "};
