/* XPM */
static const char *elemsdown_xpm[]={
"17 17 15 1",
"  c None",
"# c #000000",
"a c #008300",
"b c #009b00",
"j c #00ac00",
"c c #00b700",
"i c #00cc00",
"d c #00d200",
"e c #00d800",
"k c #00ea00",
"m c #00eb00",
"f c #00f800",
"g c #83ff83",
"l c #b1ffb1",
"h c #bcffbc",
"                 ",
"                 ",
"                 ",
"                 ",
"                 ",
"  #############  ",
"  #abbacdeffgh#  ",
"   #abccdffgh#   ",
"    #abcifgh#    ",
"     #ajklh#     ",
"      #amm#      ",
"       #m#       ",
"        #        ",
"                 ",
"                 ",
"                 ",
"                 "};
