/* XPM */
static const char *elemsbottom_xpm[]={
"16 16 15 1",
"  c None",
"# c #000000",
"g c #008300",
"h c #009b00",
"l c #00ac00",
"f c #00b700",
"i c #00cc00",
"e c #00d200",
"d c #00d800",
"k c #00ea00",
"m c #00eb00",
"c c #00f800",
"b c #83ff83",
"j c #b1ffb1",
"a c #bcffbc",
"                ",
"                ",
"  ############# ",
"  #abccdefghhg# ",
"   #abcceffhg#  ",
"    #abcifhg#   ",
"     #ajklg#    ",
"      #mmg#     ",
"       #m#      ",
"        #       ",
"                ",
" ############## ",
" #mmmmmmmmmiig# ",
" ############## ",
"                ",
"                "};
