/* XPM */
static const char *elems_pin_xpm[]={
"16 16 3 1",
"# c #000000",
"a c #00ff00",
"  c None",
"                ",
"                ",
"                ",
"                ",
"     # ### #    ",
"      #aaa#     ",
"     #aaaaa#    ",
"     #aa#aa#    ",
"     #aaaaa#    ",
"      #aaa#     ",
"     # ### #    ",
"                ",
"                ",
"                ",
"                ",
"                "};
