/* XPM */
static const char *evendown_xpm[]={
"16 16 4 1",
"# c #000000",
"b c #000080",
"  c None",
"a c #ffffff",
"  #a a a a a #  ",
"  # a a a a a#  ",
"  ############  ",
"        b       ",
"       bbb      ",
"      bbbbb     ",
"        b       ",
"        b       ",
"        b       ",
"      bbbbb     ",
"       bbb      ",
"        b       ",
"  ############  ",
"  # a a a a a#  ",
"  #a a a a a #  ",
"                "};
