/* XPM */
static const char *extelems_scale_xpm[]={
"16 18 8 1",
"d c #000000",
"a c #000000",
"f c #008000",
"e c #800000",
"# c #808080",
"  c None",
"c c #ff0000",
"b c #ffffff",
"                ",
"                ",
"     ##aaa#     ",
"    a## #b##a   ",
"   a #bb b ##a  ",
"  a#b bbbb bba  ",
"  abcbbbbbbbb a ",
" #d b# bbbbbbef ",
" ab# bcbbbbb#b f",
" abbbbb# bbbbb a",
" a# bbbbf#bbb##a",
" a bbbbbbbbbb #a",
" aaaaaaaaaaaaaaa",
"                ",
"                ",
"                ",
"                ",
"                "};
