/* XPM */
static const char *extelems_curve_xpm[]={
"16 18 5 1",
"a c #000080",
"# c #000000",
"b c #00ff00",
"  c None",
"c c #ff0000",
"                ",
"  #             ",
" ###            ",
"  #   a       a ",
"  #  a a     a  ",
"  # a b a   a b ",
"  #a b b a a b  ",
"  # b c b a b c ",
"  #b c c b b c  ",
"  # c   c b c   ",
"  #c     c c    ",
"  #       c  #  ",
"  ############# ",
"             #  ",
"                ",
"                ",
"                ",
"                "};
