/* XPM */
static const char *extelems_plugin_xpm[]={
"16 16 2 1",
"# c #000000",
"  c None",
"                ",
"   ########     ",
"  ##########    ",
" ###########    ",
" ####     #     ",
" #####   ##     ",
" ######  # #    ",
" #####      #   ",
"  ####     #    ",
"   ###    ##    ",
"   ###     #    ",
"    #  ####     ",
"    #    #      ",
"   ########     ",
"                ",
"                "};
