/* XPM */
static const char *extelems_date_xpm[]={
"16 16 3 1",
". c #000000",
"a c #c0c0c0",
"# c #d4d0c8",
"................",
".###########.##.",
".###########..#.",
"................",
".##############.",
".#########..###.",
".##.........##..",
".#..#.#.#.####..",
"...#.###.######.",
"..###.#...####..",
".###......####..",
"..#.......#####.",
"..#.#.##.######.",
"...####.........",
"###....#########",
"aaaaaaaaaaaaaaaa"};
