/* XPM */
static const char *extelems_pie_xpm[]={
"16 16 6 1",
"# c #000000",
"c c #0000ff",
"d c #800000",
"b c #800080",
"  c None",
"a c #ffff00",
"                ",
"                ",
"                ",
"                ",
"   #########    ",
" ##a ab#cccc##  ",
"# a a##b##cccc# ",
"###a#dbdbd#c### ",
"# a#########cc# ",
"#ada#bdbdb#ccc# ",
" ###bdbdbdb###  ",
"   #########    ",
"                ",
"                ",
"                ",
"                "};
