/* XPM */
static const char *extelems_bar_xpm[]={
"16 18 5 1",
"# c #000000",
"b c #008000",
"c c #00ffff",
"  c None",
"a c #ff0000",
"                ",
"  #             ",
" ###            ",
" ###  aa        ",
"  #   aa        ",
"  #   aa bb     ",
"  #   aa bb     ",
"  # ccaa bb     ",
"  # ccaa bb     ",
"  # ccaa bb     ",
"  # ccaa bb     ",
"  # ccaa bb ##  ",
"  ############# ",
"            ##  ",
"                ",
"                ",
"                ",
"                "};
