/* XPM */
static const char * extelems_dbtb_xpm[] = {
/* width height ncolors cpp [x_hot y_hot] */
"15 16 4 1 0 0",
/* colors */
 " 	m white	c None",
 "!	m white	c #000000",
 "#	m white	c #808080",
 "$	m white	c #ffffff",
/* pixels */
"    ######     ",
"  ##      ##   ",
" #          #  ",
" #$         #  ",
" #$$        #  ",
" #$      ###!  ",
" #$$ # #!##!!  ",
" #$   ####!#!  ",
" #$$ ###!##!!  ",
" #$   ####!#!  ",
" #$$ ###!##!!  ",
" #$   ####!#!  ",
" #$$ ###!##!!  ",
" #$   ####!#!  ",
" ##$ ###!##!   ",
"   ########    "};
