/* XPM */
static const char *extelems_clock_xpm[]={
"16 18 5 1",
"c c #000000",
"a c #000000",
"# c #808080",
"  c None",
"b c #ffffff",
"                ",
"    ##aaaa##    ",
"   #a#bbbb#a#   ",
"  #abbbbbbbba#  ",
" #abbbbc bbbba# ",
" ##bbbcccbbbb## ",
" abbbbbcbbbbbba ",
" abb bbccbc bba ",
" abb bbcccccbba ",
" abbbbbbbbcbbba ",
" ##bbbbbbbbbb## ",
" #aabbb  bbbba# ",
"  #abbbbbbbba#  ",
"   #a#bbbb#a#   ",
"    ##aaaa##    ",
"                ",
"                ",
"                "};
