/* XPM */
static const char *filecloseall_xpm[]={
"16 16 8 1",
"  c None",
"# c #000000",
"d c #f7e8af",
"e c #fcf2c0",
"f c #fdf5be",
"c c #fefcf5",
"b c #ffff00",
"a c #ffffff",
"      # ###     ",
"      ##   #    ",
"      ###   #   ",
" ###            ",
"#abc######      ",
"#ba###ddd#      ",
"#a#cbc######    ",
"#b#be###dad#    ",
"#a#a#cbc######  ",
"#b#b#bebabdbd#  ",
"#a#a#a######### ",
" ##b#b#fbfbfbf# ",
"  #a#a#bababab# ",
"   ##b#abababa# ",
"    #a#bababab# ",
"     #########  "};
