/* XPM */
static const char *fileimport_xpm[]={
"16 16 6 1",
"  c None",
"c c #000000",
"d c #00ff00",
"b c #808000",
"# c #808080",
"a c #ffffff",
"                ",
"  ##########    ",
"  #aaaaaaaa #   ",
"  #aaaaaaaa a#  ",
"bbbbbbbbbaacccc ",
"ddddddddbaaaa c ",
"bbbbbbbdbaaaa c ",
"  #aaabdbaaaa c ",
"  #abbbdbbbaa c ",
"  #abdddddbaa c ",
"  #aabdddbaaa c ",
"  #aaabdbaaaa c ",
"  #aaaabaaaaa c ",
"  #aaaaaaaaaa c ",
"  #           c ",
"  ############c "};
