/* XPM */
static const char *filesaveas_xpm[]={
"16 16 8 1",
"  c None",
". c #000000",
"a c #808000",
"c c #e6ebf3",
"f c #ebeef4",
"e c #f0f2f6",
"d c #f5f6f9",
"b c #ffffff",
"............    ",
".a.bbbb.a.b..   ",
".a.bbbb.b.b...  ",
".a.bbbb.a.b.c.. ",
".aa....aa.b.... ",
".aaaaaaaa.bbbb. ",
".a......a.bbbb. ",
".a....b.a.b.... ",
".a....b.a.bbbb. ",
" .........b.... ",
" .defbbbbbbbbb. ",
" ........bb.... ",
" .bbbbbbbbbbbb. ",
" ........bb.... ",
" .bbbbbbbbbbbb. ",
" .............. "};
