/* XPM */
static const char * fileexit_xpm[] = {
/* width height ncolors cpp [x_hot y_hot] */
"24 24 5 1 0 0",
/* colors */
 "A	m white	c #000000",
 "B	m white	c #808000",
 " 	m white	c #d4d0c8",
 "D	m white	c #808080",
 "E	m white	c #00ffff",
/* pixels */
"                        ",
"                        ",
"                        ",
"                        ",
"         AAAAAAAAAA     ",
"         ADDDDDDAAA     ",
"         ADDDDAABDA     ",
"         ADDAADBDDA     ",
"         ADDADBBDBA     ",
"        AADDABDDBDA     ",
"   AAAAAAADDABDDBBA     ",
"   AEEEEEEADADBBDDA     ",
"   AEEEEEEADADBBDBA     ",
"   AAAAAAADDABDDBDA     ",
"        AADDABDDBBA     ",
"         ADDADBBDDA     ",
"         ADDABDBDBA     ",
"         AAAADBDAAA     ",
"            ADAA        ",
"            AA          ",
"                        ",
"                        ",
"                        ",
"                        "};
