/* XPM */
static const char * filepreview_xpm[] = {
"16 16 5 1",
" 	c Black",
".	c None",
"X	c Gray100",
"o	c #808080",
"O	c Cyan",
"         .......",
" XXXXXXX  ......",
" XXXXXXX . .....",
" XXXXXXX    ....",
" XXXXXXXXXX ....",
" XXXXXXX    ....",
" XXXXXX o..o ...",
" XXXXX oOO.oo ..",
" XXXXX .O..o. ..",
" XXXXX ....o. ..",
" XXXXX o..Ooo ..",
" XXXXXX o..o o..",
" XXXXXXX    o  .",
" XXXXXXXXXX .   ",
"            ..  ",
"................"};
