/* XPM */
static char * gowith\bmp2\find_xpm[] = {
"16 16 3 1",
" 	c #c0c0c0",
".	c Black",
"X	c Gray100",
"                ",
"                ",
"    ...   ...   ",
"    .X.   .X.   ",
"    ...   ...   ",
"   ..... .....  ",
"   .X... .X...  ",
"  ............. ",
" ..X... ..X.....",
" ..X... ..X.....",
" ..X......X.....",
" ....... .......",
" .X...     .X...",
" .X...     .X...",
" .....     .....",
"                "};
