/* XPM */ 
static char * find32_xpm[] = {
"48 48 255 2",
"  	c None",
"! 	c black",
"# 	c #363636",
"$ 	c #1A1A1A",
"% 	c #0D0D0D",
"& 	c #474747",
"' 	c #1D1D1D",
"( 	c #2A2A2A",
") 	c #727171",
"* 	c #838384",
"+ 	c #999999",
", 	c #8B8B8B",
"- 	c #7D7D7D",
". 	c #626262",
"0 	c #3C3C3C",
"1 	c #282828",
"2 	c #121212",
"3 	c #535353",
"4 	c #767677",
"5 	c #6A6A6A",
"6 	c #5B5B5B",
"7 	c #252525",
"8 	c #212121",
"9 	c #565657",
": 	c #65666A",
"; 	c #6D6D6D",
"< 	c #AEAEAE",
"= 	c #2D2D2D",
"> 	c #414141",
"? 	c #313131",
"@ 	c #090909",
"A 	c #050505",
"B 	c #4C4C4C",
"C 	c #0B0201",
"D 	c #2D0D04",
"E 	c #581507",
"F 	c #181818",
"G 	c #180803",
"H 	c #700C03",
"I 	c #C23E15",
"J 	c #CE551C",
"K 	c #BB541C",
"L 	c #1C1208",
"M 	c #6B2C0F",
"N 	c #A03913",
"O 	c #DB6321",
"P 	c #E8802B",
"Q 	c #F38D30",
"R 	c #F28A2F",
"S 	c #DB7D27",
"T 	c #562B00",
"U 	c #DA7326",
"V 	c #EE882E",
"W 	c #FA9432",
"X 	c #FFA23C",
"Y 	c #FF9E38",
"Z 	c #FE9833",
"[ 	c #F59032",
"] 	c #8D4503",
"^ 	c #A88564",
"_ 	c #8887AA",
"` 	c #757696",
"a 	c #686A9A",
"b 	c #777AAA",
"c 	c #928DB7",
"d 	c #B46823",
"e 	c #A04F0C",
"f 	c #967354",
"g 	c #7273A5",
"h 	c #8488B6",
"i 	c #8DA2CF",
"j 	c #9CAFD3",
"k 	c #9FBAE1",
"l 	c #979BCB",
"m 	c #8B8FC1",
"n 	c #EB852D",
"o 	c #7C4F30",
"p 	c #7E80B1",
"q 	c #B4E4FA",
"r 	c #BBEEFF",
"s 	c #BFF0FF",
"t 	c #BAECFF",
"u 	c #B9EAFF",
"v 	c #BFEAFF",
"w 	c #B0E2FF",
"x 	c #ACDEFF",
"y 	c #9CC2EE",
"z 	c #818396",
"{ 	c #020202",
"| 	c #E27C29",
"} 	c #DF7928",
"~ 	c #A0551F",
" !	c #535466",
"!!	c #D3F1FD",
"#!	c #D9F5FF",
"$!	c #E3FAFF",
"%!	c #DCFFFF",
"&!	c #CCFCFF",
"'!	c #C5F8FF",
"(!	c #C6F9FF",
")!	c #D2FEFF",
"*!	c #C7EFFF",
"+!	c #9ED1FF",
",!	c #C26D31",
"-!	c #695369",
".!	c #ABB9DA",
"0!	c #FCFFFF",
"1!	c white",
"2!	c #E5FBFF",
"3!	c #DFFAFF",
"4!	c #D7F9FF",
"5!	c #B2E5FF",
"6!	c #ADE0FF",
"7!	c #CFFDFF",
"8!	c #98CAFE",
"9!	c #CE6823",
":!	c #D56F25",
";!	c #CD6D29",
"<!	c #EAFEFF",
"=!	c #EBF9FF",
">!	c #BBE5FF",
"?!	c #B5E2FF",
"@!	c #A3D6FF",
"A!	c #A9DCFF",
"B!	c #C7FAFF",
"C!	c #CDF6FF",
"D!	c #777985",
"E!	c #C66020",
"F!	c #CB6522",
"G!	c #945C42",
"H!	c #EDF9FF",
"I!	c #C25D1F",
"J!	c #908FC1",
"K!	c #A9CEED",
"L!	c #CAF3FF",
"M!	c #F7FFFF",
"N!	c #B1DEFF",
"O!	c #B6E9FF",
"P!	c #6A6B78",
"Q!	c #B24C1A",
"R!	c #995638",
"S!	c #706A8A",
"T!	c #D5FDFF",
"U!	c #A9DAFF",
"V!	c #C0F3FF",
"W!	c #636789",
"X!	c #6B4D52",
"Y!	c #C2F5FF",
"Z!	c #C9FCFF",
"[!	c #CCFFFF",
"]!	c #CEFFFF",
"^!	c #A94316",
"_!	c #B5E6FF",
"`!	c #D5FFFF",
"a!	c #CBFEFF",
"b!	c #51475F",
"c!	c #ACD3F1",
"d!	c #D7FFFF",
"e!	c #7984B0",
"f!	c #5A5A78",
"g!	c #010101",
"h!	c #8B3211",
"i!	c #D9FFFF",
"j!	c #DEFFFF",
"k!	c #E2FFFF",
"l!	c #973111",
"m!	c #8E280E",
"n!	c #464659",
"o!	c #E5FFFF",
"p!	c #4F535D",
"q!	c #09101F",
"r!	c #0D0716",
"s!	c #A7DAFF",
"t!	c #EDFFFF",
"u!	c #F3FFFF",
"v!	c #0E40B1",
"w!	c #3350AE",
"x!	c #0437B0",
"y!	c #0936A5",
"z!	c #481437",
"{!	c #6C395F",
"|!	c #4759A7",
"}!	c #BEE3ED",
"~!	c #113EA8",
" #	c #224ACC",
"!#	c #5A7CEF",
"##	c #1949BF",
"$#	c #6E74CE",
"%#	c #691D30",
"&#	c #7882CE",
"'#	c #7496FD",
"(#	c #5474C7",
")#	c #0A3BB6",
"*#	c #4968EA",
"+#	c #6984FD",
",#	c #708EFE",
"-#	c #6C8AFD",
".#	c #2E5CCD",
"0#	c #87B1FE",
"1#	c #6A98EB",
"2#	c #32498B",
"3#	c #D0F7FA",
"4#	c #4B4D65",
"5#	c #0739B3",
"6#	c #6078FD",
"7#	c #6092DF",
"8#	c #76A9EB",
"9#	c #6D75A6",
":#	c #9194C5",
";#	c #3C57E5",
"<#	c #5A6EFD",
"=#	c #657FFC",
">#	c #6389EF",
"?#	c #BCCDE0",
"@#	c #5465FC",
"A#	c #5D73FC",
"B#	c #4D76E1",
"C#	c #9FCEF7",
"D#	c #5284D3",
"E#	c #71819D",
"F#	c #4C61F5",
"G#	c #3669C9",
"H#	c #A6D7F8",
"I#	c #E1A054",
"J#	c #CCA567",
"K#	c #AAC0DB",
"L#	c #4767B2",
"M#	c #1C44C6",
"N#	c #425BEC",
"O#	c #576AFD",
"P#	c #1040BC",
"Q#	c #DC994F",
"R#	c #FFC15B",
"S#	c #FFBD57",
"T#	c #F5AF5C",
"U#	c #BAD4E7",
"V#	c #294CD5",
"W#	c #3352DD",
"X#	c #677998",
"Y#	c #FFA842",
"Z#	c #F19138",
"[#	c #7E6C6C",
"]#	c #565F9F",
"^#	c #4D5996",
"_#	c #CE7A41",
"`#	c #AD6851",
"a#	c #A57675",
"b#	c #3050CF",
"c#	c #163C98",
"d#	c #4D5269",
"e#	c #4C5779",
"f#	c #A18497",
"g#	c #586BF6",
"h#	c #2E4074",
"i#	c #5B6179",
"                        # $ $ $ #                                                               ",
"                    % $ # & & # ' ! (                                                           ",
"                ! ( ) * + + , - ) . 0 % 1                                                       ",
"            # 2 3 ) - , , , * - 4 ) 5 6 ( %                                                     ",
"          7 8 9 : ; 4 * * * , < < + * ; 9 = %                                                   ",
"        > $ 3 6 . : ) 4 * + < < < + - 5 9 > ' ?                                                 ",
"        @ & 3 9 6 . 5 - , + < < * 3 # ( 1 ? 0 A                                                 ",
"      @ # B B 0 & 9 5 4 * * ) 0 $ C D E E D ! @                                                 ",
"    & F > & B B 3 9 6 B > ( % G H I I I I J K D L                                               ",
"    ! ? > > & B B 3 8 G D M N I J J O P Q R R S T                                               ",
"    2 # 0 > > & B ? G J O O U P V W X X Y Y Z [ ] ^         _ ` a a b c _ _ _                   ",
"  ( ' ? # 0 > > & @ d W [ W Y Y Y Y Y Y Z Z Q V e f       g g h i j k k j l m _                 ",
"  ! 1 ? ? # 0 0 = L n V Q W Z Z Z Z Z W [ V n P e o ` b p k q r s t u v w x y l p z             ",
"  { 7 ( ? ? # # $ M | P n V V R R R R V n P | } ~  !p j !!#!$!%!&!'!(!&!)!*!w +!k p `           ",
"  @ 7 7 ( = ? ? % ~ U } | | P P n P P P | } U ,!-!h .!0!1!1!2!3!4!5!6!5!t '!7!*!8!y p `         ",
"  @ ' 8 7 1 ( = ! 9!:!U U U } } } } } } U U ;!-!h j <!1!1!1!=!>!>!?!+!@!@!A!u B!C!+!y g D!      ",
"  { $ ' 8 7 7 1 ! E!F!9!9!:!:!:!U U :!:!:!9!G!` l r 0!1!1!1!H!>!@!s A!x 6!6!6!5!(!C!@!i a ;     ",
"  ! 2 F $ ' 8 7 ! I!I!E!E!F!9!9!9!9!9!F!F!I!-!J!K!L!M!M!1!0!*!N!A!O!5!O!O!u u u u &!v x b P!    ",
"  7 @ 2 F $ $ ' ! Q!K K I!I!E!E!E!E!E!I!I!R!S!l u T!<!v v >!N!U!w s t s V!V!V!V!s V!)!5!i W!;   ",
"  ; { % 2 2 F F A M Q!Q!K K K K K K K K K X!_ k s 7!C!!!U!U!x 5!r Y!'!Z![![![![!Z!'!]!s K!a ; ; ",
"    $ A % % 2 2 @ D ^!^!Q!Q!Q!Q!Q!Q!Q!Q!Q!X!m K!C!'!5!v *!_!O!V!'!Z![!)!`!`!`!`!)![!a!C!t a : ; ",
"    ; A { @ % % % { E N ^!^!^!^!^!^!^!^!^!b!l c!*!(!A!+!A!O!s V!Z!]!`!d!%!%!%!%!d!`!]!7!V!e!f!; ",
"      ; % g!A @ @ @ { D M h!N N N N N N N b!l c!*!(!A!@!x 5!r B!]!`!i!j!k!k!k!k!j!%!`!)!(!h f!; ",
"        ; # @ ! { { A g!! M l!l!l!l!l!l!m!n!l K!*!(!x @!6!O!V!a!)!d!j!o!o!<!<!o!o!j!d!`!a!e!p!; ",
"          ; ; ; ( q!r!D E m!m!m!m!m!m!H H n!m y v Z!5!s!6!u '!]!`!%!k!<!t!u!u!t!<!k!i!i!]!a  !; ",
"              v!w!x!y!z!H H H H H H H H {!|!b j x `!r U!w r B!]!`!%!o!t!u!M!M!u!t!o!%!i!}!a 9 ; ",
"              ~! #!### #$#{!%#H H %#{!&#'#(#a l U!*!(!w w r B!)!d!%!o!t!u!0!0!0!0!t!%!i!j f!; ; ",
"            )#*#+#,#-###.#0#0#0#0#0#0#0#0#1#2#m k @!)!V!5!t B!]!`!%!o!t!u!M!0!1!1!1!k!3#g 4#;   ",
"          5#*#6#+#-#'#,#5#7#8!0#8!8!8!+!8!8#w!9#:#8!?!)!r u '![!`!%!k!o!t!t!1!1!1!1!o!j W!9 ;   ",
"        v!;#<#6#=#-#,#'#>#x!8#+!+!+!+!+!+!1#2#z l i +!>!7!Y!V!a!)!d!%!k!o!<!M!1!1!1!?#g n!; ;   ",
"      w! #@#<#A#6#+#-#,#'#B#v!8!@!@!@!C#c!D#w!E#< h i @!?!C!7!a![!)!d!%!%!j!j!t!t!?#b 4#4 ;     ",
"      )#;#F#@#<#6#=#+#-#,#'#.#G#s!U!H#E#I#J#+ < + D!h m C#6!v C!T!)!)!d!d!%!i!i!K#p 4#: ;       ",
"    L#M#;#N#@#O#A#6#=#+#-#,#-#P#7#H#E#Q#R#S#T#< - + < c b i K!O!s B![!]!)!3#U#:#b n!; ;         ",
"    v!V#W#N#F#@#<#A#6#=#=#+#-#!#v!X#I#R#S#Y#Z#^ [#W!]#|!^#a g b e!j K#.!j :#p f!n!* ;           ",
"    x!V#W#;#N#F#@#<#A#6#6#=#=#=#^#Q#R#S#Y#Z#_#`#a#a w!;#b#c#d#e#e#f!W!W!W!d#p!; ; ;             ",
"    5# #V#W#;#N#F#@#O#<#A#6#A#]#Q#R#S#Y#Z#_#`#a#f#g w!W#)#; ; ; ; ; ; ; ; ; ; ;                 ",
"    x!M# #V#W#;#;#F#@#@#O#g#]#Q#R#S#Y#Z#_#`#a#f#c 2#M#x!2#;                                     ",
"    ~!P#M# #V#W#;#;#N#F#F#]#Q#R#S#Y#Z#_#`#a#f#c h#y!c#e#;                                       ",
"    ; y!)#P#M# #V#W#;#;#^#Q#R#S#Y#Z#_#`#a#f#c h#h#f!; ;                                         ",
"    ; ; e#2#c#c#x!x!x!2#Q#R#S#Y#Z#_#`#a#f#c n!: ; ;                                             ",
"      ; ; 5 ; ; ; :  !Q#S#S#Y#Z#_#`#a#f#c n!; ;                                                 ",
"                ; W!Q#S#S#Y#Z#_#`#a#f#c n!; ;                                                   ",
"                ; i#^ S#Y#Z#_#`#a#f#c n!; ;                                                     ",
"                ; e#- f Z#_#`#a#f#c n!; ;                                                       ",
"                ; e#+ 4 f `#a#f#c n!; ;                                                         ",
"                ; i#P!4 5 [#f#c n!; ;                                                           ",
"                  ; 5 D!D!p!i# !- ;                                                             ",
"                  ; ; ; ; ; ; ; ;                                                               "};