/* XPM */
static const char *fontvertical_xpm[]={
"18 18 5 1",
"  c None",
"# c #000000",
"b c #808080",
"c c #c0c0c0",
"a c #ffffff",
"                  ",
" ###############  ",
" #aaaaaaaaaaaaa#b.",
" #a#a#aaaa#aaaa#b.",
" #a#a#aaabbbaaa#b.",
" #a#a#aac###caa#b.",
" #a#a#aa#cac#aa#b.",
" #a#a#a###a###a#b.",
" #a#a#aaaaaaaaa#b.",
" #a#a#a#a#a#a#a#b.",
" #a#a#a#a#a#a#a#b.",
" #a#a#a#a#a#a#a#b.",
" #a#a#a#a#a#a#a#b.",
" #a#a#a#a#a#a#a#b.",
" #aaaaaaaaaaaaa#b.",
" ###############b.",
" .bbbbbbbbbbbbbbb.",
"                  "};
