/* XPM */
static const char * fontunderline_xpm[] = {
"16 16 3 1",
" 	c None",
".	c Black",
"X	c #808080",
"                ",
"                ",
"                ",
"    .... ....   ",
"     ..   ..    ",
"     ..   ..    ",
"     ..   ..    ",
"     ..   ..    ",
"     ..   ..    ",
"     ..   ..    ",
"     ..X X..    ",
"      .....     ",
"                ",
"    .........   ",
"                ",
"                "};
