/* XPM */
static const char * fontbold_xpm[] = {
"16 16 2 1",
" 	c None",
".	c Black",
"                ",
"                ",
"                ",
"                ",
"   ........     ",
"    ...  ...    ",
"    ...  ...    ",
"    ...  ...    ",
"    .......     ",
"    ...  ...    ",
"    ...  ...    ",
"    ...  ...    ",
"   ........     ",
"                ",
"                ",
"                "};
