/* XPM */
static const char *fontframe_xpm[]={
"20 20 2 1",
"  c None",
"# c Black",
"                    ",
"                    ",
"  ################  ",
"  #              #  ",
"  #      ##      #  ",
"  #      ##      #  ",
"  #     ####     #  ",
"  #     ####     #  ",
"  #    ##  ##    #  ",
"  #    ##  ##    #  ",
"  #   ##    ##   #  ",
"  #   ########   #  ",
"  #  ##      ##  #  ",
"  #  ##      ##  #  ",
"  # ####    #### #  ",
"  #              #  ",
"  #              #  ",
"  ################  ",
"                    ",
"                    "};
