/* XPM */
static const char * fullscreen_xpm[] = {
"16 16 5 1",
" 	c None",
".	c Black",
"X	c Cyan",
"o	c Gray100",
"O	c #808080",
"                ",
"                ",
" .............  ",
".             . ",
". ........... . ",
". .XoXoXoXoX. . ",
". .oOOOoXoXo. . ",
". .XoXoXoXoX. . ",
". .oOOOOOOOo. . ",
". .XoXoXoXoX. . ",
". .oOOOOOOOo. . ",
". .XoXoXoXoX. . ",
". ........... . ",
".             . ",
" .............  ",
"                "};
