/* XPM */
static const char *gdesigndoc_xpm[]={
"16 16 6 1",
"# c #000000",
"a c #000080",
"d c #800000",
". c #808080",
"c c #c0c0c0",
"b c #ffffff",
"...............#",
".aaaaaaa.......#",
".aaaaaaa.......#",
".bbcbbcbbcbbcbb#",
".bbcbbcbbcbbcbb#",
".ccccccccddddcc#",
".bbcbbcbbdbbdbb#",
".bbcbbcbbdbbdbb#",
".ccccccccddddcc#",
".bbcbbcbbcbbcbb#",
".bbcbbcbbcbbcbb#",
".cccccccccccccc#",
".bbcbbcbbcbbcbb#",
".bbcbbcbbcbbcbb#",
"################",
"................"};
