/* XPM */
static const char *gdesign_xpm[]={
"32 32 642 2",
"Qt c None",
"d5 c #ffffff",
"fa c #000000",
"fX c #d56a6a",
"eL c #000000",
"fz c #dd6677",
".# c #404040",
"eN c #090000",
".y c #a71a00",
"hW c #464646",
"dI c #d14046",
".a c #434343",
".d c #404545",
".c c #454545",
".b c #444444",
"eM c #1e0500",
"d6 c #d64949",
"ep c #5c1e00",
".z c #454545",
".1 c #8c1500",
"eq c #dc4942",
"gi c #3d4043",
"c0 c #434646",
"#t c #454545",
"hK c #484848",
".2 c #444444",
"#s c #7b1200",
"i# c #606060",
"#T c #7a1400",
"ad c #7d1700",
"aN c #801a00",
"a2 c #821d00",
"bA c #852000",
"bW c #852300",
"ch c #882300",
"cD c #8b2600",
"dl c #8e2900",
"dH c #8e2b00",
"d4 c #912e00",
"dm c #724449",
".e c #982a15",
"fb c #d83b39",
"fY c #d93f3c",
"hX c #484848",
"hY c #494949",
"hZ c #4b4b4b",
"h0 c #4d4d4d",
"h1 c #4f4f4f",
"h2 c #515151",
"h3 c #525252",
"h4 c #545454",
"h5 c #565656",
"h6 c #585858",
"h7 c #5a5a5a",
"h8 c #5c5c5c",
"h9 c #5e5e5e",
"i. c #5f5f5f",
"en c #9e5d26",
"fA c #dc4c3b",
".x c #c74721",
"eK c #5f6060",
"f# c #606060",
"hV c #616161",
"eO c #dd493c",
"eo c #ae672b",
".f c #ce5933",
"em c #5a514d",
"fZ c #b03f35",
".v c #d26439",
".u c #d2643a",
".t c #d2653b",
".s c #d2653c",
".r c #d2653e",
".q c #d2653f",
".p c #d26740",
".o c #d26742",
".n c #d26743",
".m c #d26744",
".l c #d26844",
".k c #d26846",
".j c #d26847",
".i c #d26948",
".h c #d2694a",
".g c #d46e4c",
"dJ c #d85933",
".w c #d16237",
"d7 c #e15d29",
".A c #555555",
"er c #e45f28",
".D c #646666",
".B c #636363",
".C c #656565",
".E c #79534b",
".0 c #d37a46",
"#r c #d4834b",
"#S c #d5844b",
"ac c #d6854b",
"aw c #d7854b",
"aM c #d8874b",
"a1 c #d9884b",
"bg c #da8a4b",
"bz c #db8a4b",
"bV c #dc8c4b",
"cg c #dd8d4b",
"cC c #de8e4b",
"cZ c #e08f4b",
"dk c #e0904b",
"dG c #e1924b",
"d3 c #e3a155",
"fc c #e9732c",
"#U c #7f7f7f",
"cE c #7f8181",
"c1 c #807374",
"gR c #80807f",
"#u c #808080",
"hL c #636363",
"gj c #7e8080",
"d1 c #a27141",
"dn c #b35b44",
"fB c #e96e28",
".3 c #767676",
"d2 c #f0ca6d",
"f0 c #806c6d",
"dK c #f3a34e",
"hU c #747474",
"f5 c #7bacf8",
"ey c #7da7e3",
"gq c #7e92da",
"cT c #809eca",
"gu c #81aef7",
"gb c #81aff8",
"fl c #83b3f9",
"gr c #84a0e5",
"gv c #86b1f6",
"fJ c #86b3f8",
"gt c #89b2f6",
"fv c #8ca4e5",
"eF c #8cb5f5",
"hM c #8d8d8d",
"e7 c #8da2e2",
"hT c #8e8e8f",
"hS c #8f8f8f",
"hR c #909090",
"hQ c #919191",
"hP c #919192",
"gs c #91b7f6",
"hO c #929292",
"hN c #939393",
"gp c #93b7f3",
"dd c #93c4fd",
"fS c #94bdf9",
"bq c #95a0b5",
"bn c #965f62",
"eX c #97bff8",
"cv c #989bad",
"a8 c #9a959d",
"fT c #9a9fd5",
"bm c #9b4b44",
"gc c #9bbff7",
"ec c #9c7382",
"a7 c #9ca8be",
"d0 c #9e8f88",
"bo c #9fbbd9",
"hJ c #a0a0a0",
"eh c #a1c7f9",
"f. c #a3a3a3",
"el c #a3a4a4",
"eJ c #a4a4a3",
"dz c #a5cbfa",
"b5 c #a8645e",
"f6 c #a8c2f1",
"f4 c #a9c5f3",
"bp c #a9d1f7",
"fI c #aac7f4",
"dW c #abcdf9",
"cN c #af6054",
"a6 c #af7476",
"ex c #b0878f",
"bH c #b17063",
"eY c #b1ccf6",
"dX c #b1d0f9",
"br c #b28d6c",
"cr c #b28f90",
"c# c #b29a91",
"ga c #b2caf2",
"bI c #b39696",
"c9 c #b4685c",
"#9 c #b57662",
"#8 c #b57663",
"a. c #b57763",
"#7 c #b57764",
"gI c #b5abcb",
"du c #b66f65",
"bM c #b6947e",
"#6 c #b7654d",
"cw c #b7956f",
"gw c #b7ccf0",
"ei c #b7d2f7",
"a# c #b8654c",
"dQ c #b97b76",
"fw c #b9a1c4",
"gJ c #b9ccef",
"dA c #bad6fa",
"de c #bbc8dd",
"hj c #be8a8f",
"eV c #be9495",
"bl c #bf867d",
"hn c #bf8d92",
"fh c #bf9da1",
".8 c #bfa89f",
"fE c #c0a2a5",
"ho c #c19297",
"cU c #c29673",
"go c #c2d2ef",
"bk c #c37f7b",
"hi c #c3989e",
"cq c #c4613d",
"gH c #c49cae",
"hl c #c59ea4",
"hm c #c59fa6",
"hk c #c5a0a6",
"#Y c #c69e88",
".F c #c78559",
"e6 c #c794b1",
"hw c #c7aab2",
"hx c #c7abb3",
"fD c #c8623b",
"hd c #c8969b",
"#z c #c89877",
".4 c #c8c8c8",
"aQ c #c9997c",
"g9 c #c9999f",
"a9 c #c9a06a",
"df c #c9a38a",
"#5 c #ca532d",
"fk c #cad9f2",
"d. c #cbc1c3",
"az c #cc9b72",
"af c #ccada1",
"dC c #ccb2a3",
"bL c #cccbd2",
"gK c #ccd6ec",
"eG c #ccdcf5",
".9 c #cd9969",
"cO c #cdc8cb",
"g1 c #ce979c",
"hy c #cebcc5",
"am c #cf7e5d",
"f7 c #cf9aab",
"gV c #cf9ba0",
"a5 c #cfa3a1",
"an c #cfafa6",
"hv c #cfbfc8",
"dv c #cfc7cb",
"fK c #cfdbf1",
"ca c #d0a669",
"ed c #d0d0d8",
"fm c #d0dcf2",
"cS c #d0e2f7",
"bj c #d19b99",
"as c #d1aca3",
"bD c #d27f57",
"h. c #d2b6bd",
"dR c #d2cdd2",
".7 c #d2d1d1",
"dD c #d39e60",
"b6 c #d3cdcf",
"fg c #d46a3b",
"eU c #d46b33",
"gO c #d4989d",
"hc c #d4bcc3",
".6 c #d4d4d5",
"eb c #d56d2a",
"c2 c #d58b7a",
"ag c #d5a46e",
".5 c #d5d5d5",
"ew c #d66c2e",
"ay c #d6c5bf",
"gW c #d7b7bd",
"g0 c #d7bdc4",
"#y c #d7c7c4",
"g# c #d8dfee",
"fR c #d8e0f0",
"b0 c #d9844b",
"eW c #d9d9e0",
"ao c #d9dadb",
"gz c #da999e",
"gd c #dabdc8",
"hp c #dad7e0",
"hu c #dad9e3",
"aq c #dadadb",
"ht c #dadae4",
"ap c #dadbdb",
"ar c #daddde",
"gN c #dbbfc5",
"hh c #dbd9e2",
"hq c #dbdce5",
"gL c #dbdeea",
"ez c #dbe4f4",
"dP c #dc6f26",
"aP c #dccecc",
"fu c #dcd6e4",
"fi c #dcdce2",
"hg c #dcdce5",
"f1 c #dcdee0",
"cl c #dd8443",
"he c #ddd9e0",
"g8 c #dddbe3",
"hs c #dddde7",
"g2 c #dedae2",
"gG c #dedde6",
"g7 c #dedee6",
"dt c #df6d1f",
"ck c #dfa8a1",
"#Z c #dfaf6d",
"gU c #dfdde4",
"ha c #dfdfe7",
"g3 c #dfdfe8",
"fF c #dfe0e5",
"hb c #dfe1e9",
"h# c #dfe2ea",
"ge c #e09b9f",
"cG c #e09f95",
"gy c #e0c1c6",
"hr c #e0e0e4",
"gT c #e0e0e8",
"gZ c #e0e2ea",
"gx c #e0e4ee",
"bx c #e19274",
"fU c #e19da4",
"bE c #e1a680",
"bZ c #e1b3af",
"a4 c #e1c4c4",
"gP c #e1dce3",
"gY c #e1e0e8",
"g5 c #e1e1e4",
"g6 c #e1e1e9",
"gQ c #e1e2e9",
"gX c #e1e3ea",
"c8 c #e26718",
"cH c #e28842",
"at c #e2975f",
"dg c #e2b66b",
"b4 c #e2ba9b",
"f8 c #e2bdc2",
"c. c #e2e0e3",
"hA c #e2e2e3",
"gD c #e2e2e5",
"gE c #e2e2e9",
"gS c #e2e2ea",
"f3 c #e2e4ed",
"cM c #e36011",
"aE c #e38f62",
"aa c #e3945a",
"bN c #e3ba6d",
"gA c #e3dee5",
"gk c #e3e3e6",
"gn c #e3e3eb",
"gB c #e3e4eb",
"gM c #e3e4ec",
"e8 c #e3e4ef",
"gF c #e4e3e9",
"hH c #e4e4ea",
"gm c #e4e4eb",
"bc c #e5956f",
"bC c #e5c0bd",
"#X c #e5dfde",
"gf c #e5e0e6",
"hG c #e5e5ea",
"hF c #e5e5eb",
"hE c #e5e6eb",
"gg c #e5e6ec",
"aK c #e69b62",
"cF c #e6dfe1",
"hC c #e6e6eb",
"f2 c #e6e6ec",
"gl c #e6e6ed",
"hD c #e6e7ec",
"fM c #e7a1a4",
"aX c #e7a388",
"fN c #e7bec3",
"eE c #e7d9e2",
"g. c #e7e6ec",
"hB c #e7e7ec",
"fH c #e7e7ee",
"fW c #e7e8ee",
"f9 c #e7e9ef",
"bS c #e88c4c",
"c3 c #e89044",
"bw c #e89564",
"a0 c #e89d62",
"bf c #e89e62",
"fV c #e8e2e7",
"fL c #e8e5ea",
"dB c #e8e7e9",
"fG c #e8e8ee",
"hz c #e8e8ef",
"fO c #e8ebf1",
"cu c #e8ecf1",
"aW c #e99963",
"by c #e99c60",
"#4 c #e9a06c",
"aR c #e9bd73",
"fP c #e9e9ee",
"fy c #e9e9ef",
"fs c #eadce2",
"fr c #eadfe5",
"fo c #eae6ec",
"fQ c #eaeaee",
"hf c #eaeaf0",
"fp c #eba0a4",
"fq c #ebb5ba",
"#A c #ebc77a",
"ft c #ebdde2",
"fx c #ebe3e8",
"bX c #ebebeb",
"ci c #ebebec",
"fn c #ebebef",
"fj c #ebebf0",
"g4 c #ebebf1",
"aF c #ecb8a7",
"aJ c #ecc8bd",
"e1 c #ece9ee",
"#V c #ececec",
"hI c #ececef",
"e0 c #ececf1",
"cs c #ecedee",
"do c #ed9748",
"bF c #edd6bf",
"eZ c #edecf1",
"#v c #ededed",
"eB c #ededf2",
"bT c #ee9e5b",
"al c #eeae74",
"cV c #eec671",
"aZ c #eec9bd",
"be c #eecabd",
"bi c #eedbdb",
"bG c #eedec7",
"eC c #eee3e8",
"eH c #eeedf2",
"eA c #eeeef2",
"gC c #eeeef3",
"#N c #efb26c",
"aA c #efca79",
"eD c #efdbdf",
"ae c #efeeee",
"ee c #efeff3",
"gh c #efeff4",
"dw c #eff0f3",
"dS c #eff0f4",
"bb c #f0ab6a",
"e2 c #f0afb2",
"#O c #f0b169",
"#M c #f0b36e",
"#L c #f0b471",
"#K c #f0b573",
"#J c #f0b676",
"#H c #f0b67a",
"#I c #f0b77a",
"bs c #f0d17b",
"ej c #f0f0f3",
"ef c #f0f0f4",
"d# c #f0f1f3",
"eg c #f0f1f5",
"dc c #f0f3f8",
"dU c #f1f1f5",
"dZ c #f1f2f5",
"eP c #f28c29",
"e3 c #f28d8f",
"e4 c #f29598",
"dV c #f2f2f5",
"dT c #f2f2f6",
"fC c #f3952a",
"dY c #f3f2f6",
"dy c #f3f3f6",
"bJ c #f3f5f6",
"bK c #f3f8fd",
"e5 c #f49596",
"#G c #f4bf85",
"dx c #f4f4f6",
"e9 c #f4f4f7",
"bv c #f5ba6f",
"#. c #f5da8b",
"da c #f5f5f7",
"eI c #f5f5f8",
"cx c #f6d273",
".G c #f6d694",
"bd c #f6dbd1",
"db c #f6f5f7",
"cP c #f6f6f8",
"ek c #f6f6f9",
"d8 c #f7aa4e",
"aD c #f7c27f",
"dE c #f7d673",
"ah c #f7db85",
"a3 c #f7eff0",
"cQ c #f7f7f9",
".Z c #f8be65",
".Y c #f8c166",
".X c #f8c26a",
".W c #f8c36d",
"b1 c #f8c36f",
"#P c #f8c373",
".V c #f8c470",
".U c #f8c574",
".T c #f8c677",
".S c #f8c77a",
".R c #f8c87e",
".Q c #f8c982",
".P c #f8ca85",
".O c #f8cc88",
".N c #f8cd8c",
".M c #f8ce8f",
".L c #f8cf92",
".K c #f8d096",
".J c #f8d199",
".I c #f8d29d",
"cj c #f8f3f5",
"ax c #f8f9fa",
"ev c #f99f06",
"es c #f9b152",
".H c #f9d89f",
"b. c #f9db81",
"aY c #f9ece8",
"bY c #f9f8fa",
"ct c #f9f9fa",
"ff c #fa9b0e",
"eT c #fa9e08",
"ea c #faa204",
"bR c #fac873",
"cR c #faf9f9",
"#x c #fafafb",
"b7 c #fafbfc",
"dO c #fb9d03",
"b3 c #fbba73",
"cm c #fbcb73",
"cf c #fbcc7d",
"aV c #fbcd81",
"b8 c #fbfbfc",
"b9 c #fbfcfd",
"cI c #fccf77",
"#F c #fcdc9f",
"cb c #fcdf7e",
"#0 c #fce693",
"aG c #fcf6f4",
"aO c #fcfdfe",
"cp c #fd8215",
"c7 c #fd8b02",
"ds c #fd9602",
"fd c #fdb72c",
"ce c #fdcd71",
"c4 c #fdd079",
"ba c #fdd27f",
"dh c #fddb73",
"#3 c #fddb98",
"bB c #fdfcfd",
"#W c #fdfeff",
"cL c #fe8001",
"#R c #fec960",
"aL c #fecb63",
"au c #fecc63",
"bU c #fecc64",
"dp c #fed17b",
"dL c #fed27e",
"ak c #fed88f",
"aS c #fee388",
"#B c #fee798",
"aI c #fefefe",
"bh c #fefeff",
"aH c #feffff",
"co c #ff9016",
"cK c #ff9a12",
"c6 c #ffa40f",
"eS c #ffaa02",
"eu c #ffac02",
"dr c #ffad0a",
"e# c #ffae05",
"dN c #ffaf07",
"fe c #ffaf0f",
"eR c #ffb835",
"et c #ffbb3a",
"e. c #ffbf44",
"b2 c #ffbf6f",
"dM c #ffc34a",
"cn c #ffc46a",
"dq c #ffc754",
"cJ c #ffc864",
"dj c #ffc95f",
"c5 c #ffca5b",
"#q c #ffca5f",
"av c #ffca60",
"cY c #ffcb5f",
"#p c #ffcc5f",
"cB c #ffcc60",
"#Q c #ffcc63",
"ab c #ffcc64",
"eQ c #ffcd65",
"#o c #ffce64",
"cA c #ffce68",
"cX c #ffcf66",
"cz c #ffcf68",
"#n c #ffd068",
"cd c #ffd06d",
"#m c #ffd16c",
"di c #ffd266",
"#l c #ffd371",
"bQ c #ffd373",
"d9 c #ffd37f",
"#k c #ffd475",
"#j c #ffd579",
"bu c #ffd57b",
"dF c #ffd66b",
"bP c #ffd676",
"#i c #ffd67e",
"aU c #ffd784",
"cc c #ffd874",
"#h c #ffd882",
"#g c #ffda86",
"aC c #ffda8a",
"cy c #ffdb76",
"aT c #ffdb87",
"#f c #ffdb8a",
"aj c #ffdb8e",
"#e c #ffdc8e",
"#d c #ffdd92",
"#2 c #ffdd93",
"#D c #ffdd96",
"cW c #ffde75",
"b# c #ffde85",
"#c c #ffde97",
"#E c #ffde98",
"bt c #ffdf81",
"#b c #ffdf9b",
"#C c #ffe09b",
"bO c #ffe181",
"#1 c #ffe196",
"#a c #ffe19f",
"ai c #ffe392",
"aB c #ffe590",
"## c #ffe99f",
"#w c #ffffff",
"QtQtQt.#.a.b.c.d.e.f.g.h.i.j.k.l.m.n.o.p.p.q.r.s.s.t.u.u.v.w.x.y",
"QtQtQt.z.A.B.C.D.E.F.G.H.I.J.K.L.M.N.O.P.Q.R.S.T.U.V.W.X.Y.Z.0.1",
"QtQtQt.2.3.4.5.6.7.8.9#.###a#b#c#d#e#f#g#h#i#j#k#l#m#n#o#p#q#r#s",
"QtQtQt#t#u#v#w#w#w#x#y#z#A#B#C#D#E#F#G#H#I#J#K#L#M#N#O#P#Q#R#S#T",
"QtQtQt#t#U#V#w#w#w#w#W#X#Y#Z#0#1#2#3#4#5#6#7#8#9#9a.a#aaab#Racad",
"QtQtQt#t#U#V#w#w#w#w#w#waeafagahaiajakalamanaoapaqarasatauavawad",
"QtQtQt#t#U#V#w#w#w#w#w#w#waxayazaAaBaCaCaDaEaFaGaHaIaJaKaLavaMaN",
"QtQtQt#t#U#V#w#w#w#w#w#w#w#waOaPaQaRaSaTaUaVaWaXaY#waZa0auava1a2",
"QtQtQt#t#U#V#w#w#w#w#w#wa3a4a5a6a7a8a9b.b##ibabbbcbdbebfaLavbga2",
"QtQtQt#t#U#V#w#w#wbhbibjbkblbmbnbobpbqbrbsbt#jbubvbwbxbyauavbzbA",
"QtQtQt#t#U#VaIaIbBbCbDbEbFbGbHbIbJaObKbLbMbNbObPbQbRbSbTbUavbVbW",
"QtQtQt#t#UbXaObYbZb0b1b2b3b4b5b6b7b8b8b9c.c#cacbcccdcecfbUavcgch",
"QtQtQt#t#Ucicjckclcmcncocpcqcrcs#xctctctb8cucvcwcxcyczcAcBavcCcD",
"QtQtQt#tcEcFcGcHcIcJcKcLcMcNcOcPcQcQcQcQcQcRcScTcUcVcWcXcYavcZcD",
"QtQtQtc0c1c2c3c4c5c6c7c8c9d.d#cPdadadadadadbdcdddedfdgdhdidjdkdl",
"QtQtQtdmdndodpdqdrdsdtdudvdwdxdydydydydydydydxdzdAdBdCdDdEdFdGdH",
"QtQtdIdJdKdLdMdNdOdPdQdRdSdTdUdUdUdUdUdUdUdUdVdWdXdYdZd0d1d2d3d4",
"d5d6d7d8d9e.e#eaebecedeeefefefegegegegegegegdUeheiejekelemeneoep",
"eqeresd9eteuevewexeyezeAeBeBeCeDeDeDeDeDeDeDeEeFeGeHeIeJeKeLeMeN",
"eOePeQeReSeTeUeVeWeXeYeZe0e1e2e3e4e4e4e4e4e5e6e7e8e0e9f.f#Qtfafa",
"fbfcfdfefffgfhfifjfkflfmfnfofpfqfrfsfsfsftfufvfwfxfydTf.f#QtQtQt",
"fzfAfBfCfDfEfFfGfGfHfIfJfKfLfMfNfOfGfPfQfRfSfTfUfVfWdUf.f#QtQtQt",
"QtfXfYfZf0f1fyf2f2f2f3f4f5f6f7f8f9g.g#gagbgcgdgegfggghf.f#QtQtQt",
"QtQtQtgigjgkglgmgmgmgmgngogpgqgrgsgtgugvgwgxgygzgAgBgCf.f#QtQtQt",
"QtQtQt#t#ugDgmgEgEgEgEgEgFgGgHgIgagJgKgLgFgMgNgOgPgQeBf.f#QtQtQt",
"QtQtQt#tgRgDgSgTgTgTgTgTgTgUgVgWgXgYgYgTgTgZg0g1g2g3g4f.f#QtQtQt",
"QtQtQt#tgRg5g6g7g7g7g7g7g7g8g9h.h#hahahahahbhchdheg7hff.f#QtQtQt",
"QtQtQt#tgRg5hahghghghghghghhhihjhkhlhlhlhlhmhnhohphqfyf.f#QtQtQt",
"QtQtQt#t#uhrhshththththththuhvhwhxhxhxhxhxhxhwhyhuhthzf.f#QtQtQt",
"QtQtQt#t#UhAfPhBhBhBhBf2hChChDhDhDf2hChChChEhEhFhGhHhIhJf#QtQtQt",
"QtQtQthKhLhMhNhOhOhOhPhQhQhQhQhRhQhRhRhShShShShThShThShUhVQtQtQt",
"QtQtQthWhXhYhZhZh0h0h1h1h1h2h3h3h4h4h4h5h5h6h6h7h7h8h9i.i#QtQtQt"};
