/* XPM */
static const char * goback_xpm[] = {
"16 16 5 1",
" 	c None",
".	c Black",
"X	c #808080",
"o	c #fefefe",
"F	c #c0c0c0",
"                ",
"                ",
"                ",
"      .         ",
"     X.         ",
"    Xo.         ",
"   XoF.XXXXXX.  ",
"  XoFFFFFFFFX.  ",
"  .XFFXXXXXXX.  ",
"   .XX........  ",
"    .X.         ",
"     ..         ",
"      .         ",
"                ",
"                ",
"                "};
