/* XPM */
static const char * goforward_xpm[] = {
"16 16 4 1",
" 	c None",
".	c #808080",
"X	c Black",
"F	c #c0c0c0",
"                ",
"                ",
"                ",
"         .      ",
"         .X     ",
"         .FX    ",
"  ........FFX   ",
"  .FFFFFFFFFFX  ",
"  .F......FF.X  ",
"  XXXXXXXX..X   ",
"         X.X    ",
"         XX     ",
"         X      ",
"                ",
"                ",
"                "};
