/* XPM */
static const char * gohome_xpm[] = {
"16 16 9 1",
" 	c None",
".	c #808000",
"X	c Black",
"o	c #800000",
"O	c #c0c0c0",
"+	c Yellow",
"@	c Red",
"#	c Gray100",
"$	c #808080",
"                ",
"       .X  ooX  ",
"      .O+X o@X  ",
"     .OXX+Xo@X  ",
"    .OXOOX+X@X  ",
"   .OXO##OX+XX  ",
"  .OXO##O#OX+X  ",
" .OXO##O#O#OX+X ",
" XXO##O#O#O#OXX ",
"  $##O...X#OOX  ",
"  $#O#.O+XO#OX  ",
"  $##O.++X#OOX  ",
"  $#O#.+.XO#OX  ",
"  $OOO...XOOOX  ",
"  XXXXXXXXXXXX  ",
"                "};
