/* XPM */
static const char * groupsplit_xpm[] = {
"16 16 3 1",
" 	c None",
".	c Black",
"X	c #000080",
"                ",
"...     ...     ",
"...XXXXX...     ",
"...     ...     ",
" X       X      ",
" X  ...  X   ...",
" X  ...XXXXXX...",
" X  ...      ...",
" X   X        X ",
"...  X        X ",
"...XXX        X ",
"...  X        X ",
"     X        X ",
"    ...      ...",
"    ...XXXXXX...",
"    ...      ..."};
