/* XPM */
static const char * groupunite_xpm[] = {
"16 16 3 1",
" 	c None",
".	c Black",
"X	c #000080",
"                ",
"...          ...",
"...XXXXXXX   ...",
"...      X   ...",
" X       X      ",
" X       X      ",
" X   XXXXXXXXXX ",
" X   X        X ",
" X   X        X ",
" X   X        X ",
" XXXXX        X ",
"     X        X ",
"     X        X ",
"...  X       ...",
"...  XXXXXXXX...",
"...          ..."};
