/* XPM */
static const char * handdown_xpm[] = {
"32 32 3 1",
" 	c None",
".	c Black",
"X	c White",
"                                ",
"                                ",
"                                ",
"                                ",
"                                ",
"                                ",
"                                ",
"                                ",
"               ...              ",
"           .....X...            ",
"           .X..XX.XX.           ",
"           .XX.XX.XX...         ",
"          ..XX.XX.XX.X..        ",
"         ....XXXXXXX.XX.        ",
"         .X..XXXXXXXXXX.        ",
"         .XX.XXXXXXXXX.         ",
"         .XXXXXXXXXXXX.         ",
"          .XXXXXXXXXXX.         ",
"           .XXXXXXXXX.          ",
"            .XXXXXXXX.          ",
"             .XXXXXX.           ",
"             .XXXXXX.           ",
"             .XXXXXX.           ",
"            .XXXXXXXX.          ",
"                                ",
"                                ",
"                                ",
"                                ",
"                                ",
"                                ",
"                                ",
"                                "};
