/* XPM */
static const char * handup_xpm[] = {
"32 32 3 1",
" 	c None",
".	c Black",
"X	c White",
"                                ",
"                                ",
"                                ",
"                                ",
"                                ",
"                                ",
"                                ",
"               ..               ",
"           .. .XX...            ",
"          .XX..XX.XX.           ",
"          .XX..XX.XX. .         ",
"           .XX.XX.XX..X.        ",
"           .XX.XX.XX.XX.        ",
"         ....XXXXXXX.XX.        ",
"        .XX..XXXXXXXXXX.        ",
"        .XXX.XXXXXXXXX.         ",
"         .XXXXXXXXXXXX.         ",
"          .XXXXXXXXXXX.         ",
"           .XXXXXXXXX.          ",
"            .XXXXXXXX.          ",
"             .XXXXXX.           ",
"             .XXXXXX.           ",
"             .XXXXXX.           ",
"            .XXXXXXXX.          ",
"                                ",
"                                ",
"                                ",
"                                ",
"                                ",
"                                ",
"                                ",
"                                "};
