/* XPM */
static const char * hcur_xpm[] = {
"32 32 3 1",
" 	c None",
".	c Gray100",
"X	c Black",
"                                ",
"                                ",
"                                ",
"                                ",
"                                ",
"                                ",
"                                ",
"                                ",
"              ....              ",
"              .XX.              ",
"              .XX.              ",
"              .XX.              ",
"              .XX.              ",
"          ..  .XX.  ..          ",
"         .X.  .XX.  .X.         ",
"        .XX....XX....XX.        ",
"       .XXXXXXXXXXXXXXXX.       ",
"       .XXXXXXXXXXXXXXXX.       ",
"        .XX....XX....XX.        ",
"         .X.  .XX.  .X.         ",
"          ..  .XX.  ..          ",
"              .XX.              ",
"              .XX.              ",
"              .XX.              ",
"              .XX.              ",
"              ....              ",
"                                ",
"                                ",
"                                ",
"                                ",
"                                ",
"                                "};
