/* XPM */
static const char *help_xpm[]={
"16 16 3 1",
"# c #000000",
"  c None",
"a c #ffff00",
"                ",
"   ######       ",
"  #aaaaa##      ",
" #aa###aa##     ",
" #a##  #a##     ",
" #a## #aa##     ",
"  ## #aa##      ",
"    #aa##       ",
"    #a##        ",
"    #a##        ",
"    #a##        ",
"     ##         ",
"    #aa##       ",
"    #aa##       ",
"     ###        ",
"                "};
