/* XPM */ 
static char * horimeter_xpm[] = {
"32 32 571 2",
"  	c None",
"! 	c #565636",
"# 	c #515739",
"$ 	c #555739",
"% 	c #585D40",
"& 	c #5C6143",
"' 	c #565A3F",
"( 	c #575B40",
") 	c #5A5E42",
"* 	c #545B41",
"+ 	c #546040",
", 	c #5A6145",
"- 	c #4F5C43",
". 	c #545E46",
"0 	c #516143",
"1 	c #535F45",
"2 	c #525D41",
"3 	c #556143",
"4 	c #576245",
"5 	c #586648",
"6 	c #5B6D4D",
"7 	c #556245",
"8 	c #556648",
"9 	c #54694D",
": 	c #667E5E",
"; 	c #786624",
"< 	c #7C6B28",
"= 	c #7C6C28",
"> 	c #806D2C",
"? 	c #7D6C2A",
"@ 	c #7E6D2C",
"A 	c #7F6F2E",
"B 	c #7D7031",
"C 	c #857535",
"D 	c #847734",
"E 	c #887A37",
"F 	c #8B7C3D",
"G 	c #8A7D3A",
"H 	c #8D7D39",
"I 	c #907E3A",
"J 	c #907F3A",
"K 	c #8F803F",
"L 	c #938340",
"M 	c #91833F",
"N 	c #928443",
"O 	c #928446",
"P 	c #948644",
"Q 	c #948545",
"R 	c #707A5C",
"S 	c #605927",
"T 	c #595224",
"U 	c #5B5529",
"V 	c #5D5729",
"W 	c #5F572A",
"X 	c #5E5528",
"Y 	c #5F5828",
"Z 	c #60582C",
"[ 	c #655A2E",
"] 	c #645C34",
"^ 	c #685C31",
"_ 	c #645D31",
"` 	c #655D2E",
"a 	c #655D2F",
"b 	c #655A31",
"c 	c #645C2F",
"d 	c #675B2D",
"e 	c #685D2E",
"f 	c #6A5F30",
"g 	c #6D5E2F",
"h 	c #6B5F31",
"i 	c #6E6129",
"j 	c #6D5F2F",
"k 	c #5E6548",
"l 	c #6B612A",
"m 	c #4E4925",
"n 	c #514F28",
"o 	c #53522D",
"p 	c #575231",
"q 	c #565735",
"r 	c #5A5941",
"s 	c #5C5E4E",
"t 	c #62655A",
"u 	c #67695D",
"v 	c #696D62",
"w 	c #696F65",
"x 	c #666D63",
"y 	c #63675A",
"z 	c #60604D",
"{ 	c #5D5A41",
"| 	c #5C5936",
"} 	c #5C5834",
"~ 	c #595A30",
" !	c #5B592F",
"!!	c #5A5732",
"#!	c #595733",
"$!	c #5A5832",
"%!	c #5B644C",
"&!	c #6F6631",
"'!	c #554E2B",
"(!	c #4E503D",
")!	c #5A5E4D",
"*!	c #5F685C",
"+!	c #6A7268",
",!	c #707B75",
"-!	c #76857C",
".!	c #7A8A80",
"0!	c #7A8D80",
"1!	c #7C8E85",
"2!	c #809082",
"3!	c #7D9183",
"4!	c #819088",
"5!	c #819186",
"6!	c #7D8E85",
"7!	c #74827C",
"8!	c #6A7771",
"9!	c #60695F",
":!	c #595F4C",
";!	c #575943",
"<!	c #555435",
"=!	c #645E33",
">!	c #586148",
"?!	c #736B32",
"@!	c #59562A",
"A!	c #545C49",
"B!	c #5F695A",
"C!	c #6C7568",
"D!	c #748275",
"E!	c #78887D",
"F!	c #798B7D",
"G!	c #7B8D82",
"H!	c #7D8F84",
"I!	c #7F9087",
"J!	c #81938A",
"K!	c #82938B",
"L!	c #7F9389",
"M!	c #82928A",
"N!	c #7F9289",
"O!	c #829282",
"P!	c #798A7D",
"Q!	c #6E7C72",
"R!	c #677566",
"S!	c #636B61",
"T!	c #5D675B",
"U!	c #696337",
"V!	c #556047",
"W!	c #7B6C37",
"X!	c #635C31",
"Y!	c #616557",
"Z!	c #697364",
"[!	c #758274",
"]!	c #77897B",
"^!	c #788C7D",
"_!	c #7B8D7B",
"`!	c #738676",
"a!	c #81938D",
"b!	c #85968D",
"c!	c #85988D",
"d!	c #87998E",
"e!	c #87988E",
"f!	c #85958B",
"g!	c #81958B",
"h!	c #859289",
"i!	c #809386",
"j!	c #7D8C81",
"k!	c #708073",
"l!	c #6A7668",
"m!	c #656F60",
"n!	c #6E683C",
"o!	c #565E47",
"p!	c #7E7238",
"q!	c #6A6237",
"r!	c #666F5F",
"s!	c #4B5545",
"t!	c #7A887A",
"u!	c #7D8A7C",
"v!	c #647361",
"w!	c #707C77",
"x!	c #87938E",
"y!	c #83948D",
"z!	c #849790",
"{!	c #85998E",
"|!	c #899A91",
"}!	c #74897C",
"~!	c #6B7C74",
" #	c #8B9B92",
"!#	c #84968C",
"##	c #829389",
"$#	c #809185",
"%#	c #7F8E7E",
"&#	c #768175",
"'#	c #6C796B",
"(#	c #716C40",
")#	c #586247",
"*#	c #81743B",
"+#	c #6D6636",
",#	c #717865",
"-#	c #788270",
".#	c #7B8B78",
"0#	c #7C8B7F",
"1#	c #798974",
"2#	c #7E8C81",
"3#	c #819185",
"4#	c #86978D",
"5#	c #889A8F",
"6#	c #8A9B96",
"7#	c #86968C",
"8#	c #6E7F72",
"9#	c #61746A",
":#	c #8D9E97",
";#	c #88998F",
"<#	c #86958D",
"=#	c #869589",
">#	c #6E7E69",
"?#	c #637261",
"@#	c #7E8579",
"A#	c #736E40",
"B#	c #576147",
"C#	c #83753D",
"D#	c #6F6836",
"E#	c #77816B",
"F#	c #5D695B",
"G#	c #7F8C7B",
"H#	c #7D8F80",
"I#	c #75827A",
"J#	c #79867B",
"K#	c #82918C",
"L#	c #869A90",
"M#	c #8B9D95",
"N#	c #8F9F95",
"O#	c #8CA093",
"P#	c #91A19D",
"Q#	c #91A19C",
"R#	c #909E96",
"S#	c #8C9E93",
"T#	c #85968C",
"U#	c #7D764A",
"V#	c #5F6C5E",
"W#	c #80907C",
"X#	c #757041",
"Y#	c #55634D",
"Z#	c #85773F",
"[#	c #746B37",
"]#	c #7B8471",
"^#	c #5D6A5D",
"_#	c #7F8F7C",
"`#	c #808F83",
"a#	c #839487",
"b#	c #607160",
"c#	c #89998E",
"d#	c #8C9B94",
"e#	c #7E9184",
"f#	c #8E9F98",
"g#	c #8CA095",
"h#	c #92A39A",
"i#	c #8FA29B",
"j#	c #91A197",
"k#	c #8F9F96",
"l#	c #909D94",
"m#	c #87968D",
"n#	c #958B62",
"o#	c #89978B",
"p#	c #889481",
"q#	c #767142",
"r#	c #5C664D",
"s#	c #87793C",
"t#	c #776C37",
"u#	c #7E8974",
"v#	c #596859",
"w#	c #808F7D",
"x#	c #7D8E81",
"y#	c #75887B",
"z#	c #5C6D5E",
"{#	c #88988E",
"|#	c #76857B",
"}#	c #809182",
"~#	c #7D9089",
" $	c #88998B",
"!$	c #8A9D96",
"#$	c #8A9D8E",
"$$	c #8B9D94",
"%$	c #86978B",
"&$	c #8EA194",
"'$	c #899B8B",
"($	c #998F60",
")$	c #8D9988",
"*$	c #8C9785",
"+$	c #7B7147",
",$	c #5E6950",
"-$	c #89793D",
".$	c #786E35",
"0$	c #727D62",
"1$	c #5E6754",
"2$	c #63705A",
"3$	c #6A776E",
"4$	c #707B77",
"5$	c #6D7F7A",
"6$	c #6E827D",
"7$	c #75827F",
"8$	c #728481",
"9$	c #718280",
":$	c #6E7F7D",
";$	c #6C7C79",
"<$	c #667775",
"=$	c #65766B",
">$	c #68786A",
"?$	c #6B7A68",
"@$	c #8F8050",
"A$	c #8B9782",
"B$	c #919B86",
"C$	c #7C7442",
"D$	c #626D52",
"E$	c #89793A",
"F$	c #7C713B",
"G$	c #697569",
"H$	c #7A8573",
"I$	c #838F81",
"J$	c #606E5B",
"K$	c #87958B",
"L$	c #88978A",
"M$	c #87988F",
"N$	c #899990",
"O$	c #8A9D92",
"P$	c #8A9C94",
"Q$	c #8C9D96",
"R$	c #8C9F95",
"S$	c #8D9D95",
"T$	c #889C95",
"U$	c #879991",
"V$	c #84948C",
"W$	c #98885B",
"X$	c #748177",
"Y$	c #6C7865",
"Z$	c #7C7444",
"[$	c #646E54",
"]$	c #8E7A3C",
"^$	c #81733C",
"_$	c #7D8976",
"`$	c #828F7D",
"a$	c #869381",
"b$	c #3F4C36",
"c$	c #879888",
"d$	c #88988D",
"e$	c #8A9C93",
"f$	c #8D9F94",
"g$	c #8FA097",
"h$	c #90A198",
"i$	c #90A499",
"j$	c #92A49D",
"k$	c #92A69D",
"l$	c #93A59B",
"m$	c #92A498",
"n$	c #8FA294",
"o$	c #8F9177",
"p$	c #909C8B",
"q$	c #8A9685",
"r$	c #7E7545",
"s$	c #606E50",
"t$	c #8E7B3A",
"u$	c #83763C",
"v$	c #818B78",
"w$	c #85927D",
"x$	c #879584",
"y$	c #2E3926",
"z$	c #8A998B",
"{$	c #899B90",
"|$	c #8D9D92",
"}$	c #90A094",
"~$	c #91A098",
" %	c #90A496",
"!%	c #92A49B",
"#%	c #94A69B",
"$%	c #95A79C",
"%%	c #97A89E",
"&%	c #99A89D",
"'%	c #93A49A",
"(%	c #95A397",
")%	c #859581",
"*%	c #8F9C8A",
"+%	c #8D9986",
",%	c #7F7544",
"-%	c #5F6D53",
".%	c #907D3B",
"0%	c #85783A",
"1%	c #7F8C79",
"2%	c #89937E",
"3%	c #8C9782",
"4%	c #2E362A",
"5%	c #8D998C",
"6%	c #8E9C8F",
"7%	c #8E9F92",
"8%	c #8DA197",
"9%	c #8FA296",
":%	c #92A499",
";%	c #93A697",
"<%	c #96A79D",
"=%	c #94A89A",
">%	c #97A89A",
"?%	c #9AA99C",
"@%	c #98A798",
"A%	c #94A593",
"B%	c #899586",
"C%	c #91A08E",
"D%	c #8E9A88",
"E%	c #827845",
"F%	c #606B51",
"G%	c #9A9677",
"H%	c #979279",
"I%	c #949C8E",
"J%	c #98A08B",
"K%	c #99A08F",
"L%	c #737974",
"M%	c #9CA494",
"N%	c #9AA495",
"O%	c #9BA695",
"P%	c #9CA797",
"Q%	c #9DAA98",
"R%	c #9EAA99",
"S%	c #A0AA9E",
"T%	c #9CAA9B",
"U%	c #9BA89A",
"V%	c #9DA99B",
"W%	c #9FAB9D",
"X%	c #9EAB99",
"Y%	c #99A797",
"Z%	c #909C8C",
"[%	c #94A194",
"]%	c #909C8D",
"^%	c #837B51",
"_%	c #637051",
"`%	c #8E9980",
"a%	c #7D8876",
"b%	c #8C9682",
"c%	c #93998A",
"d%	c #959D88",
"e%	c #8E9785",
"f%	c #818B7C",
"g%	c #A0AA9C",
"h%	c #A3AB9D",
"i%	c #A1AC9C",
"j%	c #A5AE9A",
"k%	c #A1AD9A",
"l%	c #A2AC99",
"m%	c #A4AEA0",
"n%	c #A5AC9E",
"o%	c #A5AC9B",
"p%	c #A4AE9E",
"q%	c #A7AF9F",
"r%	c #A8B09F",
"s%	c #A8B29F",
"t%	c #A9B1A1",
"u%	c #A8B0A1",
"v%	c #A9B3A5",
"w%	c #6C7A5C",
"x%	c #9BA395",
"y%	c #98A196",
"z%	c #9BA597",
"{%	c #9BA596",
"|%	c #9CA59A",
"}%	c #959F97",
"~%	c #989F99",
" &	c #A3AC9E",
"!&	c #A2AC9F",
"#&	c #A3AC9F",
"$&	c #A4AE9F",
"%&	c #818875",
"&&	c #A3AF9E",
"'&	c #A5AF9F",
"(&	c #A3B09F",
")&	c #A6AFA0",
"*&	c #A4AFA1",
"+&	c #A5B1A0",
",&	c #AAB2A1",
"-&	c #A7B1A0",
".&	c #A5B1A1",
"0&	c #616541",
"1&	c #9CA594",
"2&	c #9BA494",
"3&	c #9CA697",
"4&	c #96A18F",
"5&	c #97A393",
"6&	c #9BA797",
"7&	c #A0AA9B",
"8&	c #A3ABA0",
"9&	c #A3AD9F",
":&	c #A3ACA0",
";&	c #A8B0A0",
"<&	c #2A3038",
"=&	c #A3ADA0",
">&	c #A3AFA2",
"?&	c #A4AEA3",
"@&	c #A6B1A3",
"A&	c #A6B0A1",
"B&	c #A6B1A0",
"C&	c #99A391",
"D&	c #A9B4A3",
"E&	c #A5B0A1",
"F&	c #A5B09D",
"G&	c #A9B2A2",
"H&	c #5F6845",
"I&	c #9BA091",
"J&	c #979D8D",
"K&	c #9BA194",
"L&	c #8E9588",
"M&	c #8E9789",
"N&	c #92988D",
"O&	c #939D91",
"P&	c #A2AA9C",
"Q&	c #A4AB9E",
"R&	c #A2AB9C",
"S&	c #A5AA9C",
"T&	c #5D6669",
"U&	c #A5AF9E",
"V&	c #A3AE9B",
"W&	c #A5B19D",
"X&	c #A5B19F",
"Y&	c #A7B1A1",
"Z&	c #A6B2A4",
"[&	c #73806D",
"]&	c #ABB4A6",
"^&	c #A5B1A2",
"_&	c #9EA597",
"`&	c #9EA69C",
"a&	c #626B48",
"b&	c #666543",
"c&	c #6D6942",
"d&	c #717047",
"e&	c #7A744A",
"f&	c #7D7C57",
"g&	c #7D7C56",
"h&	c #82805B",
"i&	c #83845E",
"j&	c #808362",
"k&	c #838867",
"l&	c #828567",
"m&	c #8C8D6B",
"n&	c #8A8E70",
"o&	c #8C8E6B",
"p&	c #919777",
"q&	c #949777",
"r&	c #999F85",
"s&	c #9AA284",
"t&	c #A2A98F",
"u&	c #A4A993",
"v&	c #A6AC96",
"w&	c #ABB099",
"x&	c #ACB59D",
"y&	c #5B613F",
"z&	c #545336",
"{&	c #515133",
"|&	c #575736",
"}&	c #626140",
"~&	c #5C5C39",
" '	c #585B3B",
"!'	c #5D5D3B",
"#'	c #666448",
"$'	c #615F48",
"%'	c #5F624C",
"&'	c #616249",
"''	c #616149",
"('	c #68684E",
")'	c #6B664C",
"*'	c #66664D",
"+'	c #6A674B",
",'	c #6D6A51",
"-'	c #5D5F3E",
".'	c #5C6145",
"0'	c #5F5E3D",
"1'	c #565B3F",
"2'	c #565A3C",
"3'	c #50573C",
"4'	c #6B6E50",
"! # # $ % & & ' ( ) ) * + , , - . 0 0 1 2 3 3 4 5 6 6 7 8 9 9 : ",
"; < < = > ? ? @ A B B C D E E F G H H I J K K L M N N O P Q Q R ",
"; < < = > ? ? @ A B B C D E E F G H H I J K K L M N N O P Q Q R ",
"S T T U V W W X Y Z Z [ ] ^ ^ _ ` a a b c d d e f g g h i j j k ",
"l m m n o p p q r s s t u v v w x y y z { | | } ~  ! !!!#!$!$!%!",
"&!'!'!(!)!*!*!+!,!-!-!.!0!1!1!2!3!4!4!5!6!7!7!8!9!:!:!;!<!=!=!>!",
"&!'!'!(!)!*!*!+!,!-!-!.!0!1!1!2!3!4!4!5!6!7!7!8!9!:!:!;!<!=!=!>!",
"?!@!@!A!B!C!C!D!E!F!F!G!H!I!I!J!K!L!L!M!N!O!O!P!Q!R!R!S!T!U!U!V!",
"W!X!X!Y!Z![![!]!^!_!_!`!a!b!b!c!d!e!e!f!g!h!h!i!j!k!k!l!m!n!n!o!",
"p!q!q!r!s!t!t!u!v!w!w!x!y!z!z!{!|!}!}!~! #!#!###$#%#%#&#'#(#(#)#",
"p!q!q!r!s!t!t!u!v!w!w!x!y!z!z!{!|!}!}!~! #!#!###$#%#%#&#'#(#(#)#",
"*#+#+#,#-#.#.#0#1#2#2#3#4#5#5#6#7#8#8#9#:#;#;#<#=#>#>#?#@#A#A#B#",
"C#D#D#E#F#G#G#H#I#J#J#K#L#M#M#N#O#P#P#Q#R#S#S#{!T#U#U#V#W#X#X#Y#",
"Z#[#[#]#^#_#_#`#a#b#b#c#d#e#e#f#g#h#h#i#j#k#k#l#m#n#n#o#p#q#q#r#",
"Z#[#[#]#^#_#_#`#a#b#b#c#d#e#e#f#g#h#h#i#j#k#k#l#m#n#n#o#p#q#q#r#",
"s#t#t#u#v#w#w#x#y#z#z#{#|#}#}#~# $!$!$#$$$%$%$&$'$($($)$*$+$+$,$",
"-$.$.$0$1$2$2$m!3$4$4$5$6$7$7$8$9$:$:$;$<$=$=$>$?$@$@$A$B$C$C$D$",
"E$F$F$G$H$I$I$J$K$L$L$M$N$O$O$P$M#Q$Q$R$S$T$T$U$V$W$W$X$Y$Z$Z$[$",
"E$F$F$G$H$I$I$J$K$L$L$M$N$O$O$P$M#Q$Q$R$S$T$T$U$V$W$W$X$Y$Z$Z$[$",
"]$^$^$_$`$a$a$b$c$d$d$5#e$f$f$g$h$i$i$j$k$l$l$m$n$o$o$p$q$r$r$s$",
"t$u$u$v$w$x$x$y$z${${$|$}$~$~$ %!%#%#%$%%%&%&%'%(%)%)%*%+%,%,%-%",
".%0%0%1%2%3%3%4%5%6%6%7%8%9%9%:%;%<%<%=%>%?%?%@%A%B%B%C%D%E%E%F%",
".%0%0%1%2%3%3%4%5%6%6%7%8%9%9%:%;%<%<%=%>%?%?%@%A%B%B%C%D%E%E%F%",
"G%H%H%I%J%K%K%L%M%N%N%O%P%Q%Q%R%S%T%T%U%V%W%W%X%Y%Z%Z%[%]%^%^%_%",
"`%a%a%b%c%d%d%e%f%g%g%h%i%j%j%k%l%m%m%n%o%p%p%q%r%s%s%t%u%v%v%w%",
"x%y%y%z%{%|%|%}%~% & &!&#&$&$&%&&&'&'&(&)&*&*&+&,&(&(&-&.&-&-&0&",
"x%y%y%z%{%|%|%}%~% & &!&#&$&$&%&&&'&'&(&)&*&*&+&,&(&(&-&.&-&-&0&",
"1&2&2&3&4&5&5&6&7&8&8&9&:&;&;&<&=&>&>&?&@&A&A&B&C&D&D&E&F&G&G&H&",
"I&J&J&K&L&M&M&N&O&P&P&Q&R&S&S&T&U&V&V&W&X&Y&Y&Z&[&]&]&^&_&`&`&a&",
"b&c&c&d&e&f&f&g&h&i&i&j&k&l&l&m&n&o&o&p&q&r&r&s&t&u&u&v&w&x&x&y&",
"b&c&c&d&e&f&f&g&h&i&i&j&k&l&l&m&n&o&o&p&q&r&r&s&t&u&u&v&w&x&x&y&",
"z&{&{&|&}&~&~& '!'#'#'$'%'&'&'''(')')'*'+',','-'.'0'0'1'2'3'3'4'"};