/* XPM */
static const char * hotline_xpm[] = {
"32 32 2 1",
" 	c None",
".	c Red",
"                                ",
"            ...                 ",
"            ...                 ",
"            ...                 ",
"            ...                 ",
"            ...                 ",
"            ...                 ",
"            ...                 ",
"            ...                 ",
"            ...                 ",
"            ...                 ",
"  .......................       ",
"  .......................       ",
"  .......................       ",
"            ...                 ",
"            ...                 ",
"            ...                 ",
"            ...                 ",
"            ...                 ",
"            ...                 ",
"            ...                 ",
"            ...                 ",
"            ...                 ",
"            ...                 ",
"                                ",
"                                ",
"                                ",
"                                ",
"                                ",
"                                ",
"                                ",
"                                "};
