/* XPM */
static const char *icon_xpm[]={
"18 16 5 1",
"  c None",
"b c #000084",
"c c #00ff00",
"# c #848684",
"a c #c6c7c6",
"     ##########   ",
"     #aaaaaaaa#   ",
"     #a      a### ",
"     #a      aaa# ",
" ################ ",
" #bbbbbbbbbbbbbb# ",
" #bcbbcccbbcccbb# ",
" #bcbcbbbbcbbbcb# ",
" #bcbcbbbbcbbbcb# ",
" #bcbcbbbbcbbbcb# ",
" #bcbbcccbbcccbb# ",
" #bbbbbbbbbbbbbb# ",
" ################ ",
"     #a        a# ",
"     #aaaaaaaaaa# ",
"     ############ "};
