/* XPM */
static const char *imagesrc_xpm[]={
"16 16 9 1",
"a c #000000",
"d c #00ff00",
"c c #00ffff",
"f c #606000",
"# c #606040",
". c #a0a080",
"g c None",
"e c #ffff00",
"b c #ffffff",
".##############.",
"#..............a",
"#.bbbabbcbcbaa.a",
"#.bcadacbcbaee.a",
"#.baadababcaee.a",
"#.adadaadabcaa.a",
"#.adddaddacbcb.a",
"#.baddddabbcbc.a",
"#.aaaddaaaaaaa.a",
"#.f#ada###f##f.a",
"#.#fadaf#f#f##.a",
"#.f#ada#f#f#f#.a",
"#.##aaaf#f#f##.a",
"#..............a",
".aaaaaaaaaaaaaa.",
"gggggggggggggggg"};
