/* XPM */
static const char *layerhigh_xpm[]={
"16 16 5 1",
"# c #000000",
"c c #808080",
"  c None",
"a c #ffff00",
"b c #ffffff",
"                ",
" ###########    ",
" #ababababa#    ",
" #babababab#    ",
" #ababababa#    ",
" #babababab#    ",
" #ababababa#### ",
" #babababab#cc# ",
" #ababababa#cc# ",
" #babababab#cc# ",
" ###########cc# ",
"      #ccccccc# ",
"      #ccccccc# ",
"      ######### ",
"                ",
"                "};
