/* XPM */
static const char *layeradd_xpm[]={
"16 16 5 1",
"c c #000000",
"b c #000080",
"# c #808080",
"  c None",
"a c #ffffff",
" ########       ",
" #aaaaaaa#      ",
" #aaaaaaaa#     ",
" #aaaaabaccc    ",
" #aaaabbaaac    ",
" #aaaabbbaac    ",
" #aaababbaaccc  ",
" #aaabaabbcc  c ",
" #aaabbbbc aa  c",
" #aabaaabc a   c",
" #aabaaaaca    c",
" #abbbaab#ca  cc",
" #aaaaaaaa#cccc#",
" #aaaaaaaaac  cc",
" ccccccccccc   c",
"                "};
