/* XPM */
static const char *layerset_xpm[]={
"16 16 5 1",
"  c  None",
"a c  #000000",
". c  #808080",
"c c  #c0c0c0",
"b c  #ffffff",
"........     a  ",
".bbbbbbb.     a ",
".bbbbbbbb. aaaaa",
".bbbbbbbaaaaaaaa",
".bbaaaabbba   a ",
".bbbbbbbbba  a  ",
".bbaaaaabbaaa   ",
".bbbbbbbbaa  a  ",
".bbaaaaaa bb  a ",
".bbbbbbba b   a ",
".bbaaaaaa     a ",
".bbbbbbb.aa  aa ",
".bbaaaaab.aaaa. ",
".bbbbbbbbba  aa.",
"aaaaaaaaaaa   aa",
" ccccccccccccccc"};
