/* XPM */
static const char * layerpos_xpm[] = {
"16 16 5 1",
" 	c None",
".	c Black",
"X	c #808080",
"o	c Gray100",
"F	c #000080",
"                ",
"      FF ..     ",
"      FFXoo.    ",
"     .FFoooo.   ",
"   .XoFFooooo.  ",
" ..oFFFFFFoooo. ",
".ooooFFFFooo..  ",
" .ooooFFoo..o.  ",
" ..ooooo..oooo. ",
".oo.oo..oooo..  ",
" .oo..oooo..oo. ",
".o.ooooo..oo..  ",
" .o.oo..oo..    ",
"  .o..oo..      ",
"   .oo..        ",
"    ..          "};
