/* XPM */
static const char * layertop_xpm[] = {
"16 16 5 1",
" 	c None",
".	c Black",
"X	c #808080",
"o	c Yellow",
"O	c Gray100",
"                ",
"                ",
" .......        ",
" .XXXXX.        ",
" .XX.........   ",
" .XX.oOoOoOo.   ",
" .XX.OoOoOoO.   ",
" .XX.oOoOoOo.   ",
" ....OoOoOoO.   ",
"    .oOoOoOo....",
"    .OoOoOoO.XX.",
"    .oOoOoOo.XX.",
"    .........XX.",
"         .XXXXX.",
"         .XXXXX.",
"         ......."};
