/* XPM */
static const char * layerbottom_xpm[] = {
"16 16 5 1",
" 	c None",
".	c Black",
"X	c #808080",
"o	c Gray100",
"O	c Yellow",
"                ",
".......         ",
".XXXXX.         ",
".XXXXX......    ",
".XXXXX.oOoO.    ",
".XXXXX.OoOo.    ",
".XXXXX.oOoO.    ",
".......OoOo.    ",
"   .OoOo....... ",
"   .oOoO.XXXXX. ",
"   .OoOo.XXXXX. ",
"   ......XXXXX. ",
"        .XXXXX. ",
"        .XXXXX. ",
"        ....... ",
"                "};
