/* XPM */
static const char * lightning_xpm[] = {
"32 32 4 1",
" 	c None",
".	c Blue",
"X	c Black",
"o	c Yellow",
"     ......................     ",
"   ..........................   ",
"  ................XXXXXXXXXXX.  ",
" ................XXoooooooooX.. ",
" ...............XXoooooooooXX.. ",
"...............XXoooooooooXX....",
"..............XXoooooooooXX.....",
".............XXoooooooooXX......",
"............XXoooooooooXX.......",
"...........XXoooooooooXX........",
"..........XXoooooooooXX.........",
".........XXoooooooooXXXXXXXX....",
"........XXoooooooooooooooooX....",
"........XooooooooooooooooXXX....",
"........XXXXXXooooooooooXX......",
"...........XXoooooooooXXX.......",
"..........XXoooooooooXX.........",
".........XXoooooooooXX..........",
"........XXooooooooXXX...........",
".......XXooooooooXX.............",
".......XooooooooXX..............",
".......XXXXoooXXX...............",
"........XXoooXX.................",
".......XXoooXX..................",
"......XXooXXX...................",
".....XXooXX.....................",
"....XXooXX......................",
" ..XXoXXX...................... ",
" ..XoXX........................ ",
"  .XXX........................  ",
"   ..........................   ",
"     ......................     "};
