/* XPM */
static const char * linewidth6_xpm[] = {
"110 12 2 1",
" 	c None",
".	c Black",
"                                                                                                              ",
"                                                                                                              ",
"                                                                                                              ",
"  ..........................................................................................................  ",
"  ..........................................................................................................  ",
"  ..........................................................................................................  ",
"  ..........................................................................................................  ",
"  ..........................................................................................................  ",
"  ..........................................................................................................  ",
"                                                                                                              ",
"                                                                                                              ",
"                                                                                                              "};
