/* XPM */
static const char * linestyle_xpm[] = {
"16 16 2 1",
" 	c None",
".	c Black",
"                ",
"                ",
"                ",
"............... ",
"                ",
"                ",
". . . . . . . . ",
"                ",
"                ",
"... ... ... ... ",
"                ",
"                ",
".  ..  .  ..  . ",
"                ",
"                ",
"                "};
