/* XPM */
static const char * linecolor_xpm[] = {
"16 12 7 1",
" 	c None",
".	c Black",
"X	c Yellow",
"o	c #808080",
"O	c Gray100",
"+	c #000080",
"@	c #008080",
"            .XX.",
"           .XX. ",
"          o.XX. ",
"          ....  ",
"         .OO++  ",
"        .OO+++  ",
"        .O++++  ",
"       .O++++   ",
"       .O+++    ",
"+++@  .O+++     ",
"++@  .+++o      ",
"                ",
};
