/* XPM */
static const char * linedashdot_xpm[] = {
"110 12 2 1",
" 	c None",
".	c Black",
"                                                                                                              ",
"                                                                                                              ",
"                                                                                                              ",
"                                                                                                              ",
"                                                                                                              ",
"                                                                                                              ",
"  .........      ...      .........      ...      .........      ...      .........      ...      .........   ",
"                                                                                                              ",
"                                                                                                              ",
"                                                                                                              ",
"                                                                                                              ",
"                                                                                                              "};
