/* XPM */
static const char * line_xpm[] = {
"16 16 4 1",
" 	c None",
".	c #808080",
"X	c #000080",
"o	c Black",
"                ",
"                ",
"            .X. ",
"            XoX ",
"            oX. ",
"           o    ",
"          o     ",
"         o      ",
"        o       ",
"       o        ",
"      o         ",
"     o          ",
"  .Xo           ",
"  XoX           ",
"  .X.           ",
"                "};
