/* XPM */
static const char * linewidth1_xpm[] = {
"110 12 2 1",
" 	c None",
".	c Black",
"                                                                                                              ",
"                                                                                                              ",
"                                                                                                              ",
"                                                                                                              ",
"                                                                                                              ",
"                                                                                                              ",
"  ..........................................................................................................  ",
"                                                                                                              ",
"                                                                                                              ",
"                                                                                                              ",
"                                                                                                              ",
"                                                                                                              "};
