/* XPM */
static const char *loupe_xpm[]={
"17 18 6 1",
"  c None",
"# c #000000",
"d c #0000bf",
"b c #808080",
"a c #c0c0c0",
"c c #ffffff",
"                 ",
"     ####        ",
"   ##aaaa##      ",
"  #bcccaaab#     ",
"  #ccaaaaaa#     ",
" #acaaaaaaaa#    ",
" #acaaaaaaaa#    ",
" #aaaaaaaaaa#    ",
" #aaaaaaaaaa#    ",
"  #aaaaaaac#     ",
"  #baaaaacb#b    ",
"   ##aaacbddd    ",
"     ####daddd   ",
"          daddd  ",
"           daddd ",
"            dadd ",
"             dd  ",
"                 "};
