/* XPM */
static const char *mirror_nxy_xpm[]={
"17 17 2 1",
"  c None",
"# c #000080",
"        #        ",
"       ### ##    ",
"  #     #  ###   ",
"   #    #  # ##  ",
"    #   #  #  ## ",
"     #  #  #   # ",
"      # #  ##### ",
"       ##      # ",
"#################",
"        ##     # ",
"        # #      ",
" ###### #  #     ",
" ##   # #   #    ",
"  ##  # #    #   ",
"   ## # #     #  ",
"    ### #        ",
"        #        "};
