/* XPM */
static const char *mirror_o_xpm[]={
"17 17 2 1",
"  c None",
"# c #000080",
"        #        ",
"       ### ##    ",
"        #  ###   ",
"        #  # ##  ",
"        #  #  ## ",
"        #  #   # ",
"        #  ##### ",
"        #      # ",
"#################",
"        #      # ",
" #####  #        ",
" #   #  #        ",
" ##  #  #        ",
"  ## #  #        ",
"   ###  #        ",
"    ##  #        ",
"        #        "};
