/* XPM */
static const char * moveport_xpm[] = {
"32 32 2 1",
" 	c None",
".	c Black",
"                                ",
"                                ",
"                                ",
"               .                ",
"              ...               ",
"             .....              ",
"            .......             ",
"            .......             ",
"              ...               ",
"              ...               ",
"              ...               ",
"              ...               ",
"      ..    ..   ..    ..       ",
"     ...    .     .    ...      ",
"    ........       ........     ",
"   .........       .........    ",
"    ........       ........     ",
"     ...    .     .    ...      ",
"      ..    ..   ..    ..       ",
"              ...               ",
"              ...               ",
"              ...               ",
"              ...               ",
"            .......             ",
"            .......             ",
"             .....              ",
"              ...               ",
"               .                ",
"                                ",
"                                ",
"                                ",
"                                "};
