/* XPM */
static const char *objtwinkle_xpm[]={
"16 16 4 1",
"# c #000000",
"b c #808000",
"  c None",
"a c #ffff00",
"       ######## ",
"      #aaaaab#  ",
"      #aaaab#   ",
"     #aaaab#    ",
"     #aaab#     ",
"    #aaab#      ",
"    #aab#       ",
"   #aaa###      ",
"   #aaab#       ",
"  ##aab#        ",
"   #ab#         ",
"  #ab#          ",
"  #b#           ",
" #b#            ",
" ##             ",
" #              "};
