/* XPM */
static const char *option_xpm[]={
"16 16 9 1",
"a c #000000",
"c c #000080",
"e c #800080",
"d c #808000",
"  c #808080",
"# c None",
"g c #ff0000",
"f c #ffff00",
"b c #ffffff",
"  ##    a#######",
" b  bbbbba######",
" b #b### ba#####",
" #aa### aaba####",
"aaa#   a##aa####",
"####aaa#########",
"####a#a        #",
"####abaccc#c#ca#",
"####ddabbbbbb#a#",
"###dbb#abbbeb#a#",
"###dbfdabgbeb#a#",
"###dffdabgbeb#a#",
"###dffdabgbeb#a#",
"###dffda# # ##a#",
"###dffdaaaaaaaa#",
"####aaa#########"};
