/* XPM */
static const char * pencil_xpm[] = {
"32 32 21 1",
" 	c None",
".	c Black",
"X	c #e04080",
"o	c #a0a0a4",
"O	c #606080",
"+	c #e0a0c0",
"@	c #c0c0c0",
"#	c Gray100",
"$	c #a04080",
"%	c #e0a000",
"&	c #c0e000",
"*	c #c04040",
"=	c Gray25",
"-	c #a04000",
";	c #800000",
":	c #a06000",
">	c #a0a040",
",	c #a04040",
"<	c #e0c080",
"1	c #c06040",
"2	c #c06000",
"                                ",
"                   ......       ",
"                 ..XXXXXX.      ",
"                ..ooOX++XX.     ",
"               .@@@@#oOXXXX.    ",
"              .@@@##@@oOXXX$.   ",
"             .@###@@@@@oOX$$.   ",
"            ..%%%@#@@@ooOX$$.   ",
"           .&&&&%**#@@oOO.$$.   ",
"          .&&&&%#%%*#@OO=.$-.   ",
"         .&&&&%#%%%%*@O==.-;.   ",
"        .&&&&%#%%%%%%*===.;.==  ",
"       .&&&&%#%%%%%%%=.==.;.====",
"      .&&&&%#%%%%%%%:=.=O...====",
"     .>%%%%#%%%%%%%:,=.O=..=====",
"    .><<<%%11%%%%%:,2=.=..======",
"    .<<##<<>1%%%%:,21=...====== ",
"    .<###<<<>1%%:,21=...======  ",
"    ><###<<<<1%:,211=..======   ",
"   .<<##<<<<<>*,211*..======    ",
"   .<##<<<<<<<*211*..======     ",
"   ><<<<<<<<<>*11*..======      ",
"  ...<<<<<<<>>*1*..======       ",
"  .oO..<<<<>>2**..======        ",
"  =#...<<>>>2**..======         ",
" .O=....>>>2....======          ",
" .=.....*....========           ",
" .........==========            ",
" ......============             ",
"      ============              ",
"      =========                 ",
"      =====                     "};
