/* XPM */
static const char *picksetting_xpm[]={
"16 16 11 1",
"  c None",
"g c #000000",
"# c #000080",
"a c #800080",
"b c #0000ff",
"c c #008080",
"d c #808000",
"e c #808080",
"f c #ffff00",
"h c #ffffff",
"i c #800000",
"bbbbbbbbbbbbb#a ",
"#cdefd#c#cccc#a ",
"eefdefg      ea ",
" fee fe      ea ",
" dfe fg e h ega ",
"  df dgege egga ",
" h fdeee eee da ",
" hefdehhheiehea ",
" h fdehhheiehea ",
" hefdehhheiehea ",
" h fdehhheiehea ",
"eeefddeeeaie ea ",
"aaifdgaaaiigaaa ",
"  afda   aia    ",
"   a      g     ",
"                "};
