/* XPM */
static const char * premove_xpm[] = {
"32 32 3 1",
" 	c None",
".	c Gray100",
"X	c Black",
"         .                      ",
"        .X.                     ",
"       .XXX.                    ",
"      .XXXXX.                   ",
"      ...X...                   ",
"        .X.                     ",
"   ..   .X.   ..                ",
"  .X.   ...   .X.               ",
" .XX....   ....XX.              ",
".XXXXXX. X .XXXXXX.             ",
" .XX.... XX....XX.              ",
"  .X.    X.X  .X.               ",
"   ..    X..X ..                ",
"         X...X                  ",
"      ...X....X                 ",
"      .XXX.....X                ",
"       .XX......X               ",
"        .X.......X              ",
"         X........X             ",
"         X.....XXXXX            ",
"         X..X..X                ",
"         X.X X..X               ",
"         XX  X..X               ",
"         X    X..X              ",
"              X..X              ",
"               X..X             ",
"               X..X             ",
"                XXX             ",
"                                ",
"                                ",
"                                ",
"                                "};
