/* XPM */
static const char *rastesimple_xpm[]={
"16 16 2 1",
". c #00ff00",
"# c #ff0000",
"................",
".##############.",
".##############.",
".##############.",
".##############.",
".##############.",
".##############.",
".##############.",
".##############.",
".##############.",
".##############.",
".##############.",
".##############.",
".##############.",
".##############.",
"................"};
