/* XPM */
static const char *rasteexshade_portrait_xpm[]={
"16 16 8 1",
". c #35ca00",
"# c #50af00",
"a c #6b9400",
"b c #867900",
"c c #a15e00",
"d c #bb4400",
"e c #d62900",
"f c #f10e00",
".#abcdeffedcba#.",
".#abcdeffedcba#.",
".#abcdeffedcba#.",
".#abcdeffedcba#.",
".#abcdeffedcba#.",
".#abcdeffedcba#.",
".#abcdeffedcba#.",
".#abcdeffedcba#.",
".#abcdeffedcba#.",
".#abcdeffedcba#.",
".#abcdeffedcba#.",
".#abcdeffedcba#.",
".#abcdeffedcba#.",
".#abcdeffedcba#.",
".#abcdeffedcba#.",
".#abcdeffedcba#."};
