/* XPM */
static const char *rasteexshade_landscape_xpm[]={
"16 16 10 1",
". c #1ce300",
"# c #38c700",
"h c #54ab00",
"a c #55aa00",
"b c #718e00",
"c c #8d7200",
"d c #aa5500",
"e c #c63900",
"f c #e21d00",
"g c #ff0000",
"................",
"################",
"aaaaaaaaaaaaaaaa",
"bbbbbbbbbbbbbbbb",
"cccccccccccccccc",
"dddddddddddddddd",
"eeeeeeeeeeeeeeee",
"ffffffffffffffff",
"gggggggggggggggg",
"ffffffffffffffff",
"eeeeeeeeeeeeeeee",
"dddddddddddddddd",
"cccccccccccccccc",
"bbbbbbbbbbbbbbbb",
"hhhhhhhhhhhhhhhh",
"################"};
