/* XPM */
static const char *rastegl_portrait_xpm[]={
"16 16 8 1",
". c None",
"# c #220000",
"a c #440000",
"b c #660000",
"c c #880000",
"d c #aa0000",
"e c #cc0000",
"f c #ee0000",
".#abcdeffedcba#.",
".#abcdeffedcba#.",
".#abcdeffedcba#.",
".#abcdeffedcba#.",
".#abcdeffedcba#.",
".#abcdeffedcba#.",
".#abcdeffedcba#.",
".#abcdeffedcba#.",
".#abcdeffedcba#.",
".#abcdeffedcba#.",
".#abcdeffedcba#.",
".#abcdeffedcba#.",
".#abcdeffedcba#.",
".#abcdeffedcba#.",
".#abcdeffedcba#.",
".#abcdeffedcba#."};
