/* XPM */
static const char * rotateright_xpm[] = {
"16 16 4 1",
" 	c None",
".	c #000080",
"X	c Black",
"o	c #800080",
"     .          ",
"     ..         ",
"   .....  X     ",
"  .  ..   XX    ",
" .   .    XX    ",
" .        XoX   ",
"          XoX   ",
"          XooX  ",
"       XX XooX  ",
"     XX X XoooX ",
"   XX   X XoooX ",
" XX     X XooooX",
"XXXXXXXXX XXXXXX",
"                ",
"                ",
"                "};
