/* XPM */
static const char * rotate_xpm[] = {
"16 16 4 1",
" 	c None",
".	c #000080",
"X	c #808080",
"o	c #008000",
"       .        ",
"       ..       ",
"     X....      ",
"    ......      ",
"   ... ..   .X  ",
"  X..  .        ",
"  ..X        .. ",
"  ..    oo      ",
"  ..   oooo  .. ",
"  ..   oooo  .. ",
"  ..    oo  X.. ",
"  X..       ..X ",
"   ...     ...  ",
"    .........   ",
"     X.....X    ",
"                "};
