/* XPM */
static const char *sameheight_xpm[]={
"16 16 4 1",
"# c #000000",
"b c #000080",
"  c None",
"a c #ffffff",
"                ",
"   #########    ",
"   #a aba a#    ",
"   # abbba #    ",
"   #abbbbba#    ",
"   # a b a #    ",
"   #a aba a#    ",
"   # a b a #    ",
"   #a aba a#    ",
"   # a b a #    ",
"   #abbbbba#    ",
"   # abbba #    ",
"   #a aba a#    ",
"   #########    ",
"                ",
"                "};
