/* XPM */
static const char *samewidth_xpm[]={
"16 16 4 1",
"# c #000000",
"b c #000080",
"  c None",
"a c #ffffff",
"                ",
"                ",
"                ",
"############### ",
"#a a a a a a a# ",
"# aba a a aba # ",
"#abb a a a bba# ",
"#bbbbbbbbbbbbb# ",
"#abb a a a bba# ",
"# aba a a aba # ",
"#a a a a a a a# ",
"############### ",
"                ",
"                ",
"                ",
"                "};
