/* XPM */
static const char * selectport_xpm[] = {
"32 32 3 1",
" 	c None",
".	c Gray100",
"X	c Black",
"                                ",
"                                ",
"                                ",
"               ..               ",
"              .XX.              ",
"             .XXXX.             ",
"            .XXXXXX.            ",
"           .XXXXXXXX.           ",
"          .XXXXXXXXXX.          ",
"          ............          ",
"        ..            ..        ",
"       .X.            .X.       ",
"      .XX.            .XX.      ",
"     .XXX.     ..     .XXX.     ",
"    .XXXX.    .XX.    .XXXX.    ",
"   .XXXXX.   .XXXX.   .XXXXX.   ",
"   .XXXXX.   .XXXX.   .XXXXX.   ",
"    .XXXX.    .XX.    .XXXX.    ",
"     .XXX.     ..     .XXX.     ",
"      .XX.            .XX.      ",
"       .X.            .X.       ",
"        ..            ..        ",
"          ............          ",
"          .XXXXXXXXXX.          ",
"           .XXXXXXXX.           ",
"            .XXXXXX.            ",
"             .XXXX.             ",
"              .XX.              ",
"               ..               ",
"                                ",
"                                ",
"                                "};
