/* XPM */
static const char *sizehorcursor_xpm[]={
"32 32 3 1",
"  c None",
"a c #000000",
"# c #ffffff",
"                                ",
"                                ",
"                                ",
"                                ",
"                                ",
"                                ",
"                                ",
"                                ",
"                                ",
"                                ",
"                                ",
"                                ",
"          ##         ##         ",
"         #a#         #a#        ",
"        #aa#         #aa#       ",
"       #aaa###########aaa#      ",
"      #aaaaaaaaaaaaaaaaaaa#     ",
"       #aaa###########aaa#      ",
"        #aa#         #aa#       ",
"         #a#         #a#        ",
"          ##         ##         ",
"                                ",
"                                ",
"                                ",
"                                ",
"                                ",
"                                ",
"                                ",
"                                ",
"                                ",
"                                ",
"                                "};
