/* XPM */
static const char *sizefdiagcursor_xpm[]={
"32 32 3 1",
"  c None",
"a c #000000",
"# c #ffffff",
"                                ",
"                                ",
"                                ",
"                                ",
"                                ",
"                                ",
"                                ",
"                                ",
"                                ",
"         #######                ",
"         #aaaaa#                ",
"         #aaaa#                 ",
"         #aaa#                  ",
"         #aa#a#                 ",
"         #a# #a#                ",
"         ##   #a#               ",
"               #a#              ",
"                #a#   ##        ",
"                 #a# #a#        ",
"                  #a#aa#        ",
"                   #aaa#        ",
"                  #aaaa#        ",
"                 #aaaaa#        ",
"                 #######        ",
"                                ",
"                                ",
"                                ",
"                                ",
"                                ",
"                                ",
"                                ",
"                                "};
