/* XPM */
static const char *snapgrid_xpm[]={
"16 16 3 1",
"  c None",
"# c #000000",
"a c #800000",
"                ",
" #  #  #  #  #  ",
"                ",
"                ",
" #  #  #  #  #  ",
"                ",
"                ",
" #  #  a  #  #  ",
"       aa       ",
"       aaa      ",
" #  #  aaaa  #  ",
"       aaa      ",
"          a     ",
" #  #  #  a  #  ",
"                ",
"                "};
