/* XPM */
static const char *tileh_xpm[]={
"16 16 3 1",
"  c None",
"# c #000080",
"a c #ffffff",
"                ",
" #############  ",
" #a###########  ",
" #############  ",
" #aaaaaaaaaaa#  ",
" #aaaaaaaaaaa#  ",
" #aaaaaaaaaaa#  ",
" #############  ",
" #a###########  ",
" #############  ",
" #aaaaaaaaaaa#  ",
" #aaaaaaaaaaa#  ",
" #aaaaaaaaaaa#  ",
" #############  ",
"                ",
"                "};
