/* XPM */
static const char * tipofday_xpm[] = {
"32 32 7 1",
" 	c None",
".	c #808000",
"X	c Yellow",
"o	c Gray100",
"O	c Black",
"+	c Cyan",
"@	c #c0c0c0",
"                                ",
"            .....               ",
"          ..XXXXX..             ",
"         .XoXoXoXoX.            ",
"        .Xooo O oXXXO           ",
"       .XooooOOOXoXoXO          ",
"       .oooooOOOoXoXXO          ",
"      .XoooooOOOXoXoX.O         ",
"      .Xooooo O oXoXX.O         ",
"      .oXoooooOoXoXoX.O         ",
"      .XXXoXoXOXoXoXX.O         ",
"      .XXoXoXoXoXoXoX.O         ",
"       OXXXXo O oXXX.O          ",
"       O.XXoXOOOXoXo.O          ",
"        O.XXX O XXX.O           ",
"        +O.XXoXoXo.O+O          ",
"       +oO.XXXXXXX.Oo+O         ",
"      +oooO..XXX..Oooo+O        ",
"     +oooo OO...OOOoooo+O       ",
"   O+ooooo ooOOO@@Oooooo+O      ",
"    O+oooo  Oo@@OOOoooo+O       ",
"     O+oooo oOOO@Ooooo+O        ",
"      O+ooo  o@@OOooo+O         ",
"       O+oooOOOOOooo+O          ",
"        O+oooOOOooo+O           ",
"         O+ooooooo+O            ",
"          O+ooooo+O             ",
"           O+ooo+O              ",
"            O+o+O               ",
"             O+O                ",
"              O                 ",
"                                "};
