/* XPM */
static const char *turn_vert_xpm[]={
"16 16 3 1",
"  c None",
"# c #000000",
"a c #800080",
"                ",
"           ##   ",
"         ## #   ",
"       ##   #   ",
"     ##     #   ",
"   ##       #   ",
"  ###########   ",
"                ",
"                ",
"  ###########   ",
"   ##aaaaaaa#   ",
"     ##aaaaa#   ",
"       ##aaa#   ",
"         ##a#   ",
"           ##   ",
"                "};
