/* XPM */
static const char *turn_horz_xpm[]={
"16 16 3 1",
"  c None",
"# c #000000",
"a c #800080",
"                ",
"                ",
"      #  #      ",
"     ##  ##     ",
"     ##  ##     ",
"    # #  #a#    ",
"    # #  #a#    ",
"   #  #  #aa#   ",
"   #  #  #aa#   ",
"  #   #  #aaa#  ",
"  #   #  #aaa#  ",
" #    #  #aaaa# ",
" ######  ###### ",
"                ",
"                ",
"                "};
