/* XPM */
static const char *viewbrushbar_xpm[]={
"16 16 5 1",
"b c #000000",
"a c #000080",
"# c #808080",
"  c None",
"c c #ffffff",
"   #aa#         ",
"   a  a#        ",
"   a bab#       ",
"   ab a#b#      ",
"   b ca #aaa    ",
"  b cbab aaaa   ",
" b cc b  #aaa   ",
"b cc    ##aaa   ",
" bc    ##b aa   ",
"  b   ##b  a#   ",
"   b###b   #    ",
"    b#b         ",
"     b          ",
"                ",
"                ",
"                "};
