/* XPM */
static const char *viewpenbar_xpm[]={
"16 16 6 1",
"# c #000000",
"c c #000080",
"d c #808080",
"  c None",
"a c #ffff00",
"b c #ffffff",
"            #aa#",
"           #aa# ",
"           #aa# ",
"          ####  ",
"         #bbcc  ",
"        #bbccc  ",
"        #bcccc  ",
"       #bcccc   ",
"       #bccc    ",
"cccd  #bccc     ",
"ccd  #ccc       ",
"                ",
"                ",
"                ",
"                ",
"                "};
