/* XPM */
static const char * zoomautosize_xpm[] = {
/* width height ncolors cpp [x_hot y_hot] */
"16 16 3 1 0 0",
/* colors */
" 	s background	m black	c None",
"#	s iconColor1	m black	c black",
"X	s iconColor7	m white	c cyan",
/* pixels */
"                ",
" ###        ### ",
" ##          ## ",
" # #        # # ",
"    #      #    ",
"     ######     ",
"     #XXXX#     ",
"     #XXXX#     ",
"     #XXXX#     ",
"     #XXXX#     ",
"     ######     ",
"    #      #    ",
" # #        # # ",
" ##          ## ",
" ###        ### ",
"                "};
