/* XPM */
static const char *zoomwindow_xpm[]={
"16 16 6 1",
"  c None",
"# c #000000",
"c c #800000",
"b c #ff0000",
"a c #ffffff",
"d c #ffff00",
"     ####       ",
"   ## aa ##     ",
"  #aaa     #    ",
" #aa        #   ",
" #a   ##    #   ",
"# a   ##     #  ",
"#a  ######a  #  ",
"dddd######a  #  ",
"d     ##d a  #  ",
"d#    ##daa #   ",
"d#    aada  #   ",
"d #     d  ##   ",
"d  ##   d#bcc#  ",
"d    ###d cbccc ",
"ddddddddd  cbcc ",
"            cbc "};
