/* XPM */
const static char *zoomautoheight_xpm[]={
"19 19 3 1",
"  c None",
"# c #000080",
"a c #808080",
"                   ",
"                   ",
"                   ",
"   #############   ",
"   # ###########   ",
"   #############   ",
"   #           #   ",
"   #           #   ",
"   #           #   ",
"   #           #   ",
"   #a a a a a a#   ",
"   #           #   ",
"   #           #   ",
"   #           #   ",
"   #           #   ",
"   #############   ",
"                   ",
"                   ",
"                   "};
