/* XPM */
static const char *zoomin_xpm[]={
"16 16 5 1",
"  c None",
"# c #000000",
"c c #800000",
"b c #ff0000",
"a c #ffffff",
"     ####       ",
"   ## aa ##     ",
"  #aaa     #    ",
" #aa        #   ",
" #a         #   ",
"# a          #  ",
"#a  ######a  #  ",
"#a  ######a  #  ",
"#         a  #  ",
" #       aa #   ",
" #    aaaa  #   ",
"  #        ##   ",
"   ##    #bcc#  ",
"     #### cbccc ",
"           cbcc ",
"            cbc "};
