/* XPM */
static const char *zoompan_xpm[]={
"16 16 3 1",
"  c None",
"# c #000000",
"a c #ffffff",
"       ##       ",
"   ## #aa###    ",
"  #aa##aa#aa#   ",
"  #aa##aa#aa# # ",
"   #aa#aa#aa##a#",
"   #aa#aa#aa#aa#",
" ## #aaaaaaa#aa#",
"#aa##aaaaaaaaaa#",
"#aaa#aaaaaaaaa# ",
" #aaaaaaaaaaaa# ",
"  #aaaaaaaaaaa# ",
"  #aaaaaaaaaa#  ",
"   #aaaaaaaaa#  ",
"    #aaaaaaa#   ",
"     #aaaaaa#   ",
"                "};
